<svg width="100" height="129" viewBox="0 0 100 129" fill="none" xmlns="http://www.w3.org/2000/svg">
<path d="M29.5401 10.7823C28.6226 6.37024 25.1919 3.72935 21.8777 4.88372C18.5634 6.0381 16.6204 10.5507 17.5378 14.9627C18.1693 17.9989 19.9909 20.1962 22.1456 20.8954L22.8839 24.4455L28.5962 22.456L27.8575 18.9044C29.4489 16.8997 30.1712 13.8172 29.5401 10.7823Z" fill="#FFBE32"/>
<path d="M26.0069 17.9963C25.705 18.3427 25.3276 18.5593 24.9266 18.6164C24.9926 19.2359 25.1825 19.8597 25.3112 20.437L25.8971 23.0683C25.9965 23.5144 25.4516 23.6598 25.353 23.2174L24.8688 21.0437C24.7192 20.3721 24.5469 19.7015 24.4297 19.019C24.4051 18.8752 24.3874 18.7243 24.3764 18.5706C24.2478 18.5296 24.1245 18.4648 24.0102 18.378C23.4104 17.9202 23.2221 16.9408 23.2764 16.0799C22.7385 15.6127 22.4632 14.6972 22.5719 13.8798C22.7003 12.9157 23.2727 12.1446 23.9583 11.7826C24.2881 11.6084 24.545 12.2472 24.2139 12.4221C23.6921 12.6979 23.2104 13.2496 23.1169 14.0034C23.0616 14.4495 23.1714 14.946 23.4079 15.2849C23.6421 14.4528 24.1733 13.7708 24.9001 13.7423C25.2389 13.7289 25.6258 13.9147 25.7954 14.3191C25.9895 14.7819 25.8264 15.2809 25.5626 15.6284C25.1288 16.2002 24.435 16.5219 23.8176 16.3716C23.812 16.9982 23.9852 17.5962 24.387 17.8186C24.4645 17.0806 24.7549 16.4102 25.3864 16.2194C25.7237 16.1175 26.159 16.2467 26.3212 16.683C26.496 17.1518 26.2805 17.6786 26.0069 17.9963ZM23.9016 15.6595C24.3647 15.7887 24.9426 15.4977 25.2301 15.0367C25.4139 14.7417 25.2792 14.5089 25.0094 14.4657C24.7497 14.424 24.486 14.5744 24.293 14.791C24.1141 14.9917 23.9811 15.3067 23.9016 15.6595ZM25.803 16.9693C25.6594 16.7547 25.3292 16.9982 25.2151 17.1339C25.0452 17.3358 24.9547 17.605 24.9217 17.8937C25.1108 17.8563 25.294 17.7615 25.4557 17.6331C25.5774 17.5363 25.946 17.1829 25.803 16.9693Z" fill="white"/>
<path d="M28.1749 19.9463L22.2753 22.0013L23.1673 26.2902L23.953 26.0164C24.0452 26.3145 24.2187 26.5584 24.4405 26.7019C24.6624 26.8455 24.9172 26.8788 25.1567 26.7955L27.3659 26.026C27.6054 25.9425 27.8129 25.7482 27.9492 25.4799C28.0854 25.2117 28.1408 24.888 28.105 24.5704L29.0671 24.2352L28.1749 19.9463Z" fill="#8ED4B5"/>
<path d="M23.8292 26.2235C23.8404 26.2235 23.8515 26.2217 23.8622 26.218L28.3476 24.6554C28.3639 24.6501 28.3793 24.6406 28.3927 24.6276C28.4062 24.6145 28.4176 24.5981 28.4261 24.5793C28.4346 24.5605 28.4402 24.5397 28.4424 24.5181C28.4447 24.4965 28.4436 24.4746 28.4392 24.4535C28.4348 24.4325 28.4272 24.4128 28.4169 24.3956C28.4065 24.3784 28.3937 24.364 28.379 24.3533C28.3643 24.3426 28.3481 24.3358 28.3314 24.3333C28.3147 24.3308 28.2977 24.3326 28.2816 24.3387L23.7962 25.901C23.7665 25.9113 23.7406 25.9352 23.7235 25.9684C23.7064 26.0015 23.6992 26.0415 23.7033 26.081C23.7073 26.1205 23.7223 26.1568 23.7455 26.183C23.7687 26.2092 23.7984 26.2236 23.8292 26.2235ZM23.1376 22.8979C23.1488 22.8979 23.1599 22.896 23.1706 22.8924L27.656 21.33C27.6723 21.3247 27.6877 21.3153 27.7011 21.3022C27.7146 21.2891 27.726 21.2727 27.7345 21.2539C27.743 21.2352 27.7486 21.2144 27.7508 21.1928C27.7531 21.1712 27.752 21.1492 27.7476 21.1282C27.7432 21.1071 27.7356 21.0874 27.7253 21.0702C27.7149 21.053 27.7021 21.0386 27.6874 21.0279C27.6727 21.0172 27.6565 21.0104 27.6398 21.0079C27.6231 21.0054 27.6061 21.0072 27.59 21.0133L23.1046 22.5756C23.075 22.5861 23.0494 22.6101 23.0325 22.6431C23.0155 22.6762 23.0084 22.7161 23.0124 22.7554C23.0164 22.7948 23.0313 22.8309 23.0544 22.8571C23.0774 22.8833 23.107 22.8978 23.1376 22.8979ZM23.4546 24.4223C23.4658 24.4223 23.4769 24.4205 23.4876 24.4168L27.973 22.8544C27.9893 22.8491 28.0047 22.8397 28.0181 22.8266C28.0316 22.8136 28.043 22.7972 28.0515 22.7784C28.06 22.7596 28.0656 22.7388 28.0678 22.7172C28.07 22.6956 28.0689 22.6736 28.0646 22.6526C28.0602 22.6315 28.0526 22.6118 28.0423 22.5946C28.0319 22.5774 28.019 22.5631 28.0044 22.5524C27.9897 22.5417 27.9735 22.5349 27.9568 22.5324C27.9401 22.5298 27.9231 22.5317 27.907 22.5377L23.4216 24.1001C23.392 24.1105 23.3664 24.1345 23.3494 24.1676C23.3325 24.2006 23.3254 24.2405 23.3294 24.2799C23.3334 24.3192 23.3483 24.3553 23.3714 24.3815C23.3944 24.4077 23.424 24.4222 23.4546 24.4223Z" fill="black"/>
<path d="M20.1589 4.8028C20.2011 4.80263 20.2427 4.78861 20.2796 4.76207C20.3166 4.73552 20.3477 4.69731 20.3702 4.65099C20.3926 4.60466 20.4057 4.55174 20.4081 4.49714C20.4105 4.44254 20.4022 4.38804 20.3839 4.33872L19.1241 0.963299C19.0953 0.886095 19.0439 0.826871 18.9813 0.798627C18.9187 0.770382 18.8501 0.775426 18.7903 0.812651C18.6661 0.890503 18.6142 1.08387 18.6739 1.24463L19.9337 4.62005C19.9542 4.67484 19.9861 4.72104 20.026 4.75337C20.0658 4.78569 20.1119 4.80283 20.1589 4.8028ZM16.5058 8.4588C16.5638 8.45865 16.62 8.43237 16.6647 8.38448C16.7094 8.33658 16.7399 8.27004 16.7508 8.19628C16.7617 8.12252 16.7525 8.04612 16.7247 7.9802C16.6969 7.91428 16.6522 7.86293 16.5984 7.83497L13.9077 6.44704C13.8467 6.41845 13.7794 6.42171 13.7202 6.45614C13.661 6.49057 13.6144 6.55347 13.5904 6.63152C13.5664 6.70958 13.5668 6.79667 13.5915 6.87437C13.6162 6.95207 13.6633 7.01429 13.7228 7.04786L16.4134 8.43579C16.4428 8.45102 16.4741 8.45882 16.5058 8.4588ZM13.6861 16.0625C13.713 16.0625 13.7402 16.0569 13.7671 16.0448L16.5068 14.828C16.5384 14.8149 16.5678 14.7937 16.593 14.7658C16.6183 14.7378 16.639 14.7036 16.6539 14.6651C16.6688 14.6267 16.6777 14.5848 16.6799 14.5418C16.6822 14.4989 16.6777 14.4558 16.667 14.4151C16.6562 14.3744 16.6392 14.3369 16.6171 14.3048C16.5949 14.2727 16.5681 14.2466 16.5381 14.2281C16.508 14.2097 16.4755 14.1991 16.4423 14.1971C16.409 14.1951 16.3759 14.2017 16.3446 14.2165L13.605 15.4333C13.549 15.4581 13.5017 15.5078 13.4714 15.5736C13.4411 15.6393 13.4298 15.7169 13.4395 15.7924C13.4493 15.8679 13.4794 15.9365 13.5245 15.9859C13.5697 16.0354 13.6269 16.0625 13.6861 16.0625ZM16.7493 24.0155C16.8208 24.0155 16.8917 23.976 16.9411 23.8997L18.7997 21.0245C18.8221 20.9922 18.8392 20.9543 18.85 20.9132C18.8608 20.8722 18.8652 20.8287 18.8627 20.7854C18.8603 20.7421 18.8512 20.6999 18.8359 20.6613C18.8206 20.6227 18.7995 20.5884 18.7737 20.5606C18.748 20.5327 18.7182 20.5119 18.6861 20.4993C18.654 20.4866 18.6203 20.4825 18.587 20.4871C18.5536 20.4917 18.5213 20.5049 18.492 20.5259C18.4627 20.547 18.437 20.5755 18.4163 20.6097L16.5577 23.4849C16.5274 23.5321 16.508 23.5895 16.5019 23.6505C16.4958 23.7114 16.5033 23.7733 16.5234 23.8289C16.5435 23.8846 16.5754 23.9317 16.6154 23.9647C16.6554 23.9977 16.7019 24.0153 16.7493 24.0155ZM26.0946 4.10264C26.1436 4.10267 26.1916 4.08404 26.2325 4.04908C26.2734 4.01411 26.3055 3.96435 26.3247 3.90599L27.4612 0.458022C27.4751 0.418747 27.4827 0.376275 27.4837 0.333111C27.4847 0.289948 27.479 0.246965 27.467 0.206696C27.4549 0.166428 27.4368 0.129689 27.4136 0.0986447C27.3904 0.0676004 27.3626 0.0428791 27.3319 0.0259379C27.3012 0.00899666 27.2682 0.000178329 27.2349 2.67685e-06C27.2015 -0.000172975 27.1684 0.0082976 27.1376 0.0249151C27.1068 0.0415327 27.0789 0.0659609 27.0555 0.09676C27.0321 0.127559 27.0138 0.164106 27.0015 0.204246L25.8649 3.65221C25.8487 3.70139 25.8422 3.75499 25.8459 3.80823C25.8496 3.86147 25.8635 3.91269 25.8862 3.95731C25.909 4.00193 25.9399 4.03855 25.9763 4.06391C26.0127 4.08928 26.0533 4.10258 26.0946 4.10264ZM30.028 10.1094C30.0663 10.1094 30.1041 10.098 30.1384 10.076L32.7368 8.41962C32.7963 8.38171 32.8417 8.31478 32.863 8.23355C32.8843 8.15233 32.8799 8.06346 32.8506 7.9865C32.8213 7.90954 32.7696 7.8508 32.7068 7.82319C32.644 7.79557 32.5754 7.80136 32.5159 7.83927L29.9175 9.49564C29.8667 9.52778 29.8258 9.58126 29.8016 9.64734C29.7773 9.71343 29.7711 9.78821 29.7839 9.85946C29.7967 9.93071 29.8279 9.99423 29.8722 10.0396C29.9166 10.085 29.9715 10.1096 30.028 10.1094ZM32.9503 18.5884C33.0121 18.5883 33.0718 18.5586 33.1177 18.505C33.1636 18.4514 33.1925 18.3776 33.1989 18.298C33.2052 18.2184 33.1885 18.1385 33.152 18.0739C33.1155 18.0093 33.0618 17.9645 33.0013 17.9481L30.1657 17.1825C30.1015 17.1672 30.0353 17.1851 29.9812 17.2321C29.927 17.2792 29.8892 17.3518 29.8759 17.4345C29.8625 17.5171 29.8746 17.6032 29.9097 17.6744C29.9447 17.7457 29.9999 17.7963 30.0634 17.8157L32.8989 18.5813C32.9158 18.586 32.933 18.5883 32.9503 18.5884ZM68.6809 12.0369C69.7053 7.11105 73.5353 4.16255 77.2357 5.45165C80.9359 6.74025 83.1052 11.7784 82.0808 16.7042C81.3759 20.0941 79.3422 22.5472 76.9363 23.3277L76.1121 27.2911L69.7346 25.0698L70.5592 21.1044C68.7828 18.8667 67.9762 15.4253 68.6809 12.0369Z" fill="#FFBE32"/>
<path d="M72.2741 18.6245C72.4551 18.1377 72.9409 17.9931 73.3176 18.1069C74.0227 18.32 74.3469 19.0681 74.4334 19.8922C74.8821 19.6437 75.0754 18.9759 75.0692 18.2765C74.3799 18.4446 73.6055 18.0851 73.1211 17.4469C72.8266 17.0589 72.6446 16.5021 72.8614 15.9852C73.0506 15.5337 73.4825 15.3265 73.861 15.3414C74.6723 15.3732 75.2657 16.1346 75.527 17.0635C75.7908 16.6848 75.9137 16.1305 75.8518 15.6326C75.7473 14.7911 75.2098 14.1749 74.627 13.867C74.2576 13.6719 74.5442 12.9586 74.9125 13.1532C75.6778 13.5576 76.317 14.4185 76.4602 15.4948C76.5817 16.4073 76.2742 17.4295 75.6737 17.9509C75.7344 18.9119 75.5241 20.0056 74.8545 20.5165C74.7252 20.6153 74.5875 20.6858 74.4457 20.7316C74.4336 20.9032 74.4137 21.0716 74.3862 21.2323C74.2555 21.9944 74.0631 22.7431 73.8961 23.4928L73.3557 25.9196C73.2457 26.4138 72.6373 26.2512 72.7481 25.7533L73.4024 22.8156C73.5459 22.1713 73.758 21.4747 73.8317 20.7832C73.3839 20.7193 72.9625 20.4775 72.6254 20.0908C72.3198 19.7365 72.0793 19.1485 72.2741 18.6245ZM74.5389 16.5124C74.3235 16.2705 74.0291 16.1027 73.7391 16.1492C73.4379 16.1975 73.2875 16.4576 73.4928 16.7869C73.8139 17.3018 74.459 17.6266 74.976 17.4823C74.8871 17.0882 74.7387 16.7366 74.5389 16.5124ZM73.2409 19.6854C73.4215 19.8287 73.6258 19.9346 73.8369 19.9763C73.8002 19.6543 73.6991 19.3538 73.5096 19.1283C73.3821 18.9766 73.0135 18.7049 72.8532 18.9445C72.6936 19.1832 73.1051 19.5777 73.2409 19.6854Z" fill="white"/>
<path d="M70.2051 22.2681L76.7918 24.5622L75.7959 29.3505L74.9186 29.045C74.8156 29.3776 74.622 29.6499 74.3743 29.8102C74.1266 29.9704 73.8421 30.0075 73.5746 29.9145L71.1082 29.0553C70.8409 28.9621 70.6092 28.7452 70.4571 28.4457C70.305 28.1462 70.2431 27.7849 70.283 27.4303L69.209 27.0562L70.2051 22.2681Z" fill="#8ED4B5"/>
<path d="M75.0567 29.2762C75.0911 29.2764 75.1243 29.2604 75.1503 29.2311C75.1762 29.2018 75.193 29.1613 75.1975 29.1172C75.202 29.073 75.1939 29.0283 75.1747 28.9913C75.1556 28.9543 75.1266 28.9276 75.0934 28.9163L70.0856 27.1722C70.0493 27.1596 70.0107 27.1661 69.9782 27.1903C69.9457 27.2145 69.9219 27.2545 69.9121 27.3014C69.9024 27.3482 69.9074 27.3982 69.9261 27.4403C69.9448 27.4824 69.9757 27.5132 70.0119 27.5258L75.0197 29.2699C75.0318 29.274 75.0442 29.2762 75.0567 29.2762ZM75.8289 25.5636C75.8633 25.5638 75.8966 25.5477 75.9225 25.5185C75.9484 25.4892 75.9652 25.4487 75.9697 25.4045C75.9742 25.3604 75.9661 25.3157 75.947 25.2787C75.9278 25.2417 75.8989 25.215 75.8656 25.2037L70.858 23.4593C70.8401 23.4529 70.8213 23.4512 70.8029 23.4542C70.7844 23.4572 70.7666 23.465 70.7505 23.477C70.7343 23.489 70.7202 23.5051 70.7089 23.5242C70.6976 23.5433 70.6893 23.5652 70.6846 23.5885C70.6798 23.6117 70.6785 23.6359 70.6809 23.6598C70.6833 23.6836 70.6893 23.7066 70.6986 23.7275C70.7078 23.7483 70.7202 23.7666 70.7349 23.7813C70.7496 23.7959 70.7665 23.8067 70.7844 23.8129L75.792 25.5573C75.8041 25.5613 75.8165 25.5634 75.8289 25.5636ZM75.475 27.2655C75.5094 27.2657 75.5427 27.2496 75.5686 27.2203C75.5945 27.1911 75.6113 27.1506 75.6158 27.1064C75.6203 27.0623 75.6122 27.0175 75.5931 26.9805C75.5739 26.9436 75.545 26.9169 75.5117 26.9055L70.5039 25.1612C70.486 25.1549 70.4673 25.1533 70.4489 25.1564C70.4304 25.1595 70.4127 25.1673 70.3965 25.1793C70.3804 25.1913 70.3663 25.2073 70.355 25.2263C70.3437 25.2454 70.3353 25.2671 70.3305 25.2904C70.3257 25.3136 70.3244 25.3378 70.3268 25.3616C70.3292 25.3855 70.3352 25.4085 70.3445 25.4293C70.3538 25.4502 70.3661 25.4685 70.3808 25.4831C70.3955 25.4978 70.4124 25.5086 70.4303 25.5148L75.4381 27.2591C75.4501 27.2633 75.4626 27.2654 75.475 27.2655Z" fill="black"/>
<path d="M79.1544 5.3613C79.2069 5.36136 79.2584 5.34222 79.3028 5.30608C79.3473 5.26995 79.383 5.21829 79.4058 5.15706L80.8122 1.38859C80.8282 1.34591 80.8375 1.29957 80.8396 1.25224C80.8417 1.2049 80.8366 1.1575 80.8245 1.11273C80.8124 1.06796 80.7937 1.0267 80.7693 0.991329C80.7449 0.955954 80.7153 0.92715 80.6823 0.906565C80.6494 0.88588 80.6136 0.87382 80.577 0.871076C80.5404 0.868332 80.5037 0.874957 80.4691 0.890572C80.4345 0.906187 80.4027 0.930485 80.3753 0.962073C80.348 0.993661 80.3258 1.03192 80.3099 1.07465L78.9034 4.84313C78.8827 4.89813 78.8732 4.95904 78.8757 5.02013C78.8783 5.08121 78.8928 5.14046 78.9179 5.19229C78.943 5.24412 78.9779 5.28683 79.0192 5.3164C79.0606 5.34596 79.1071 5.36142 79.1544 5.3613ZM83.2329 9.44295C83.2675 9.44295 83.3022 9.43461 83.3362 9.41717L86.3401 7.86772C86.4089 7.83222 86.4639 7.76284 86.4931 7.67483C86.5223 7.58683 86.5233 7.48742 86.4959 7.39846C86.4685 7.3095 86.4149 7.23828 86.3469 7.20048C86.2789 7.16268 86.202 7.16138 86.1333 7.19688L83.1294 8.74633C83.0694 8.77769 83.0196 8.83508 82.9887 8.90867C82.9577 8.98226 82.9475 9.06748 82.9597 9.14976C82.9719 9.23204 83.0058 9.30626 83.0557 9.35974C83.1055 9.41322 83.1682 9.44263 83.2329 9.44295ZM86.381 17.9321C86.447 17.932 86.5108 17.9016 86.5611 17.8464C86.6115 17.7911 86.6451 17.7146 86.6559 17.6303C86.6668 17.5461 86.6542 17.4596 86.6205 17.3862C86.5867 17.3128 86.534 17.2572 86.4716 17.2294L83.4128 15.871C83.3781 15.8556 83.3415 15.8492 83.3049 15.8522C83.2684 15.8551 83.2326 15.8674 83.1997 15.8882C83.1668 15.909 83.1374 15.938 83.1131 15.9736C83.0889 16.0091 83.0703 16.0505 83.0584 16.0953C83.0465 16.1402 83.0416 16.1876 83.0438 16.2349C83.0461 16.2823 83.0556 16.3285 83.0717 16.3711C83.0878 16.4137 83.1102 16.4518 83.1377 16.4832C83.1651 16.5145 83.1971 16.5386 83.2317 16.554L86.2905 17.9126C86.3196 17.9254 86.3502 17.932 86.381 17.9321ZM82.9608 26.8114C83.0139 26.8113 83.0657 26.7915 83.1104 26.7546C83.1551 26.7177 83.1907 26.6651 83.2131 26.6029C83.2356 26.5408 83.2439 26.4716 83.2371 26.4036C83.2303 26.3356 83.2086 26.2714 83.1747 26.2187L81.0997 23.0088C81.0762 22.9725 81.0474 22.9424 81.0149 22.9205C80.9824 22.8985 80.9469 22.885 80.9104 22.8808C80.8739 22.8766 80.8372 22.8817 80.8022 22.8959C80.7672 22.9101 80.7348 22.9331 80.7066 22.9635C80.6785 22.9939 80.6553 23.0312 80.6384 23.0732C80.6214 23.1152 80.611 23.1612 80.6077 23.2084C80.6045 23.2557 80.6084 23.3033 80.6194 23.3485C80.6303 23.3938 80.6481 23.4358 80.6716 23.4722L82.7466 26.682C82.7728 26.7226 82.8056 26.7552 82.8426 26.7775C82.8796 26.7999 82.92 26.8115 82.9608 26.8114ZM72.5275 4.57975C72.5736 4.57969 72.619 4.56484 72.6596 4.53652C72.7002 4.5082 72.7348 4.4673 72.7602 4.41747C72.7856 4.36764 72.801 4.31043 72.8052 4.25097C72.8093 4.19151 72.802 4.13165 72.7839 4.07674L71.515 0.227385C71.4835 0.144179 71.4286 0.0797769 71.3615 0.0474727C71.2944 0.0151685 71.2203 0.0174275 71.1545 0.0537835C71.0886 0.0901395 71.0361 0.157817 71.0077 0.242848C70.9793 0.327879 70.9772 0.423772 71.0019 0.510735L72.2708 4.36009C72.2922 4.42527 72.328 4.48085 72.3736 4.51991C72.4192 4.55897 72.4727 4.57978 72.5275 4.57975ZM68.1363 11.2859C68.1993 11.286 68.2606 11.2585 68.31 11.2079C68.3594 11.1572 68.3941 11.0864 68.4085 11.0069C68.4228 10.9274 68.4159 10.844 68.3889 10.7703C68.3618 10.6965 68.3163 10.6368 68.2597 10.6009L65.3585 8.75164C65.3257 8.73069 65.2899 8.71833 65.2534 8.71526C65.2168 8.71218 65.1801 8.71846 65.1455 8.73373C65.1108 8.749 65.0787 8.77296 65.0512 8.80424C65.0237 8.83553 65.0012 8.87352 64.985 8.91606C64.9688 8.9586 64.9593 9.00484 64.9569 9.05216C64.9545 9.09947 64.9594 9.14693 64.9712 9.19182C64.983 9.23671 65.0015 9.27815 65.0256 9.31378C65.0498 9.34941 65.0792 9.37853 65.1121 9.39947L68.0132 11.2487C68.0515 11.2731 68.0936 11.2858 68.1363 11.2859ZM64.8734 20.7519C64.8923 20.7519 64.9113 20.7494 64.9306 20.7443L68.0962 19.8897C68.1321 19.88 68.1661 19.8613 68.1964 19.8346C68.2267 19.8079 68.2526 19.7737 68.2727 19.734C68.2927 19.6943 68.3066 19.6499 68.3134 19.6033C68.3202 19.5567 68.3198 19.5088 68.3123 19.4624C68.3048 19.416 68.2904 19.3719 68.2697 19.3328C68.2491 19.2936 68.2227 19.2601 68.192 19.2341C68.1613 19.2081 68.127 19.1902 68.091 19.1814C68.055 19.1726 68.018 19.1731 67.9822 19.1827L64.8165 20.0373C64.7488 20.0553 64.6886 20.1052 64.6476 20.1774C64.6067 20.2496 64.5879 20.3389 64.595 20.4279C64.6021 20.517 64.6345 20.5995 64.686 20.6593C64.7374 20.7192 64.8042 20.7522 64.8734 20.7519ZM69.7122 104.347C67.7181 107.444 66.0947 109.779 63.5656 112.092C62.2871 113.262 58.465 116.027 59.1886 106.458C59.4418 103.113 59.9763 98.4393 61.3384 94.7706C63.3953 89.2305 55.8834 87.2392 54.3777 91.8696C52.8918 96.4394 51.8884 101.096 51.6693 106.022C51.4767 110.347 51.6898 115.389 53.5361 119.167C54.5547 121.251 56.3541 123.074 58.2584 123.53C66.5343 125.515 74.48 111.75 75.2196 110.595C73.7302 109.171 71.1161 105.902 69.7122 104.347Z" fill="#FFBE32"/>
<path d="M66.1961 108.476C69.1943 104.63 70.7871 102.567 73.5463 98.4448L79.758 105.219C77.0025 109.333 75.4172 111.394 72.4252 115.237C70.3543 112.99 67.9828 110.403 66.1961 108.476Z" fill="#4B3BC5"/>
<path d="M69.2444 104.075L72.0192 100.153L74.2909 96.9465L76.1668 97.633L81.2899 103.965L87.2981 109.607L87.7008 111.571C83.3059 115.649 78.3182 107.999 78.3182 107.999L77.8082 108.7L77.3458 108.713L77.3813 109.284L76.8793 109.967L76.4668 110.019L76.4524 110.552L75.8907 111.324L69.2444 104.075Z" fill="#00A45C"/>
<path d="M73.7379 107.066C73.8504 106.899 74.0908 106.926 74.2748 107.127L76.8854 109.973C76.7681 110.197 76.6222 110.393 76.4539 110.553L73.8674 107.732C73.6834 107.531 73.6254 107.233 73.7379 107.066ZM74.6121 105.739C74.7246 105.572 74.965 105.599 75.149 105.8L77.8137 108.706C77.7643 108.803 77.7002 108.912 77.618 109.023C77.5371 109.131 77.4557 109.217 77.3822 109.285L74.7416 106.405C74.5576 106.205 74.4996 105.906 74.6121 105.739ZM74.2836 96.9386L74.5699 96.5319L75.0443 95.8649L88.5687 110.613C88.2859 110.989 87.9982 111.31 87.7078 111.578L74.2836 96.9386Z" fill="#8ED4B5"/>
<path d="M77.1907 105.551C77.2073 105.569 77.22 105.592 77.2275 105.618C77.4687 106.462 77.8543 107.223 78.3554 107.846C78.3674 107.861 78.377 107.879 78.3837 107.898C78.3903 107.918 78.3938 107.939 78.394 107.961C78.3942 107.982 78.391 108.004 78.3847 108.023C78.3784 108.043 78.3691 108.061 78.3573 108.076C78.3333 108.107 78.3011 108.124 78.2674 108.125C78.2337 108.126 78.2011 108.109 78.1765 108.08C77.648 107.423 77.2413 106.619 76.987 105.73C76.9814 105.71 76.9789 105.688 76.9796 105.667C76.9804 105.645 76.9845 105.624 76.9916 105.605C76.9987 105.585 77.0088 105.568 77.0211 105.554C77.0335 105.539 77.0479 105.528 77.0636 105.521C77.0849 105.511 77.1079 105.509 77.1302 105.514C77.1525 105.519 77.1734 105.532 77.1907 105.551Z" fill="black"/>
<path d="M38.1272 108.971C35.0477 109.785 32.6323 110.303 29.5227 110.08C27.9509 109.967 23.6128 109.061 28.8981 102.196C30.7462 99.7962 33.4688 96.5879 36.3391 94.8231C40.6735 92.1582 35.8124 84.6007 32.3557 86.9987C28.9442 89.3654 25.8655 92.1857 23.264 95.8422C20.9798 99.0526 18.6566 103.146 18.2288 107.561C17.9927 109.997 18.4925 112.855 19.7489 114.734C25.2083 122.897 38.1831 118.544 39.3282 118.237C38.8721 115.938 38.4518 111.304 38.1272 108.971Z" fill="#FFBE32"/>
<path d="M33.3538 109.371C37.5842 108.777 39.8417 108.446 44.0229 107.446L45.5121 117.684C41.3377 118.681 39.0874 119.016 34.8631 119.613C34.3612 116.209 33.7926 112.3 33.3538 109.371Z" fill="#4B3BC5"/>
<path d="M37.8973 108.385L41.992 107.553L45.3416 106.876L46.4623 108.91L47.3229 117.934L49.2125 127.129L48.5567 128.979C43.1246 128.637 43.0202 118.695 43.0202 118.695L42.2774 118.833L41.9112 118.473L41.6569 118.946L40.9291 119.076L40.5827 118.786L40.3086 119.189L39.4909 119.34L37.8973 108.385Z" fill="#00A45C"/>
<path d="M39.9171 114.307C40.0872 114.267 40.2608 114.48 40.305 114.783L40.9307 119.086C40.7296 119.166 40.5195 119.202 40.3092 119.192L39.6891 114.928C39.6448 114.625 39.7469 114.347 39.9171 114.307ZM41.252 113.974C41.4221 113.934 41.5956 114.147 41.6397 114.45L42.2786 118.842C42.0782 118.926 41.8675 118.962 41.6571 118.948L41.0241 114.596C40.98 114.292 41.0819 114.014 41.252 113.974ZM45.3399 106.864L45.7635 106.777L46.4618 106.637L49.7043 128.929C49.2987 128.995 48.9167 129.014 48.5584 128.99L45.3399 106.864Z" fill="#8ED4B5"/>
<path d="M43.3512 115.889C43.3552 115.917 43.3535 115.945 43.3463 115.971C43.1183 116.817 43.0423 117.718 43.1243 118.607C43.1261 118.628 43.1247 118.65 43.1201 118.67C43.1154 118.691 43.1077 118.71 43.0973 118.727C43.0869 118.744 43.074 118.758 43.0594 118.768C43.0447 118.779 43.0287 118.785 43.0121 118.787C42.9788 118.792 42.9453 118.78 42.9187 118.754C42.8922 118.727 42.8747 118.688 42.87 118.645C42.7836 117.708 42.8637 116.757 43.1041 115.866C43.1138 115.832 43.1318 115.803 43.1553 115.783C43.1788 115.764 43.2066 115.755 43.2345 115.757C43.2624 115.76 43.2889 115.774 43.3099 115.798C43.331 115.822 43.3455 115.854 43.3512 115.889Z" fill="black"/>
<path d="M3.04938 14.9038C3.38668 13.0935 5.28863 12.2043 6.1355 13.9694C6.51499 10.9435 9.10971 12.791 9.42612 14.941C9.89897 15.3252 10.4208 15.8484 11.0187 16.6269C13.3753 19.6968 11.6849 23.9028 10.741 25.0513C11.7357 27.6336 11.9947 30.6102 12.896 33.2642C14.5255 38.4461 16.8033 44.2729 19.0228 49.8653C19.2217 49.8705 19.4205 49.8827 19.6189 49.9019C19.7171 49.9115 19.7909 49.8084 19.7439 49.698C16.582 42.2528 19.081 34.5053 21.8165 31.3743C27.1431 25.2781 33.806 28.3049 39.1475 34.0816C39.1618 34.0977 39.179 34.1089 39.1975 34.1141C39.216 34.1192 39.2352 34.1181 39.2533 34.111C39.2714 34.1039 39.2878 34.0909 39.3009 34.0733C39.3141 34.0557 39.3235 34.034 39.3284 34.0103C39.6649 32.3236 42.1471 21.6372 50.9131 22.3561C60.3813 23.1326 62.0938 34.9954 62.2926 36.7149C62.3043 36.8155 62.391 36.8648 62.46 36.8138C68.4873 32.3472 74.8287 30.1574 79.7633 38.5836C82.2906 42.8991 82.6754 52.2987 79.6158 56.533C79.5369 56.6422 79.6166 56.8176 79.7301 56.7845C80.1559 56.6621 80.5904 56.598 81.0266 56.5931C83.2258 50.9459 85.4652 45.0911 87.0787 39.8907C88.0109 37.1044 88.2658 34.0151 89.3254 31.3126C88.334 30.0498 86.7238 26.096 88.9156 23.0297C89.4912 22.2244 89.9982 21.6779 90.4601 21.2725C90.7164 19.1091 93.258 17.1451 93.7216 20.1517C94.5189 18.3493 96.4443 19.1513 96.832 20.9452C101.422 18.8571 101.142 32.813 95.2205 33.4373C95.1701 33.9717 95.0326 34.5341 94.7861 35.1119C93.9047 40.6601 91.7062 45.9522 90.0129 51.2178C89.2539 53.4252 88.0976 56.4986 86.9129 59.5368C88.5793 61.246 89.8761 63.4694 90.3984 65.5711C91.9093 71.6531 90.4883 78.4677 86.7385 82.4677C81.8935 87.6357 75.6916 85.4956 74.6852 85.2084C74.6662 85.2025 74.6464 85.2033 74.6277 85.2107C74.6091 85.2181 74.5923 85.2318 74.5791 85.2503C74.5659 85.2689 74.5568 85.2917 74.5527 85.3164C74.5486 85.3411 74.5497 85.3667 74.5559 85.3907C75.3145 88.4898 74.5145 92.5897 73.3154 95.2839C70.1408 102.417 62.4479 101.364 58.4973 96.4635C58.4861 96.4495 58.4728 96.4387 58.4581 96.4318C58.4434 96.425 58.4278 96.4223 58.4123 96.4239C58.3967 96.4254 58.3816 96.4313 58.368 96.441C58.3543 96.4507 58.3424 96.4641 58.333 96.4802C55.1465 101.907 50.0958 104.645 45.1616 103.572C38.6366 102.153 35.5817 94.7786 35.1587 93.6905C35.1405 93.6437 35.1013 93.5886 35.0651 93.6129C24.9152 100.478 15.7478 87.5245 20.9798 79.2037C21.0497 79.0925 20.9505 78.9237 20.839 78.9333C6.81343 80.142 5.71793 59.7479 12.946 52.4276C11.814 49.5706 10.7187 46.7037 9.99233 44.6237C8.32281 39.5044 6.15425 34.3857 5.28648 28.9437C5.04214 28.3823 4.9064 27.8307 4.85738 27.3025C-0.938311 26.7241 -1.55589 13.0417 3.04938 14.9038Z" fill="#0A53EF" fill-opacity="0.94"/>
<path d="M70.7539 80.8502L72.1412 82.296L74.0611 79.3697C74.0887 79.3309 74.1269 79.3074 74.1676 79.3041C74.2083 79.3009 74.2484 79.3181 74.2795 79.3523C74.3105 79.3864 74.3302 79.4348 74.3343 79.4873C74.3385 79.5398 74.3267 79.5923 74.3016 79.6339L72.3869 82.5521L74.784 85.0501C74.8001 85.0669 74.8135 85.0877 74.8234 85.1112C74.8334 85.1347 74.8396 85.1605 74.8418 85.1871C74.8441 85.2137 74.8422 85.2407 74.8364 85.2664C74.8306 85.2921 74.8209 85.316 74.8079 85.3369C74.7949 85.3577 74.7789 85.3751 74.7608 85.3879C74.7426 85.4008 74.7227 85.4089 74.7021 85.4118C74.6815 85.4146 74.6607 85.4122 74.6408 85.4047C74.621 85.3972 74.6025 85.3846 74.5863 85.3679L72.0606 82.7353L72.0602 82.7351L72.06 82.7345L70.5567 81.1677C70.5401 81.1511 70.5263 81.1304 70.516 81.1069C70.5057 81.0833 70.4991 81.0573 70.4967 81.0304C70.4942 81.0035 70.4959 80.9763 70.5017 80.9503C70.5075 80.9242 70.5172 80.9 70.5303 80.8789C70.5434 80.8578 70.5597 80.8403 70.5781 80.8274C70.5965 80.8145 70.6167 80.8065 70.6375 80.8038C70.6583 80.8011 70.6793 80.8039 70.6993 80.8118C70.7193 80.8198 70.7379 80.8328 70.7539 80.8502ZM12.9505 52.6216C12.9168 52.6219 12.8839 52.6081 12.8566 52.5823C12.8294 52.5564 12.8093 52.52 12.7993 52.4783C12.7893 52.4365 12.7899 52.3918 12.8011 52.3505C12.8122 52.3093 12.8333 52.2738 12.8613 52.2493C16.0306 49.436 19.8974 49.6726 19.9361 49.6751L19.9843 49.6784L21.6988 51.3677C21.7152 51.3839 21.7291 51.4042 21.7395 51.4274C21.7499 51.4505 21.7567 51.4761 21.7594 51.5027C21.7622 51.5292 21.7609 51.5562 21.7556 51.5821C21.7503 51.6081 21.7411 51.6324 21.7285 51.6537C21.716 51.675 21.7003 51.6929 21.6824 51.7063C21.6645 51.7198 21.6447 51.7286 21.6242 51.7322C21.6037 51.7357 21.5828 51.7341 21.5628 51.7272C21.5428 51.7204 21.524 51.7085 21.5075 51.6922L19.8716 50.0801C19.424 50.0626 15.9335 50.0166 13.0392 52.5857C13.0132 52.6091 12.9822 52.6216 12.9505 52.6216ZM55.9278 39.7349L61.0215 39.5934L62.3241 36.7108C62.3345 36.6877 62.3484 36.6675 62.3649 36.6513C62.3814 36.6351 62.4002 36.6233 62.4202 36.6165C62.4402 36.6097 62.4611 36.6081 62.4816 36.6118C62.5021 36.6154 62.5218 36.6243 62.5397 36.6378C62.5575 36.6513 62.5732 36.6692 62.5857 36.6906C62.5982 36.7119 62.6073 36.7363 62.6126 36.7622C62.6178 36.7881 62.6191 36.8151 62.6162 36.8416C62.6134 36.8682 62.6066 36.8937 62.5961 36.9168L59.9022 42.8788C59.8918 42.9019 59.8779 42.9222 59.8615 42.9384C59.845 42.9546 59.8262 42.9664 59.8062 42.9732C59.7862 42.98 59.7653 42.9816 59.7448 42.9779C59.7243 42.9743 59.7046 42.9654 59.6868 42.9518C59.6689 42.9383 59.6532 42.9204 59.6407 42.8991C59.6282 42.8777 59.619 42.8534 59.6138 42.8275C59.6086 42.8016 59.6073 42.7746 59.6102 42.748C59.613 42.7215 59.6198 42.6959 59.6303 42.6728L60.8352 40.0066L55.9348 40.1426H55.9313C55.8904 40.1414 55.8515 40.1197 55.8227 40.0821C55.794 40.0445 55.7777 39.9939 55.7772 39.941C55.7767 39.888 55.7922 39.837 55.8203 39.7985C55.8484 39.7601 55.8869 39.7373 55.9278 39.7349ZM32.822 88.0555L35.8325 90.3274L36.6181 87.5682C36.6252 87.543 36.6362 87.52 36.6502 87.5003C36.6643 87.4807 36.6812 87.4648 36.7 87.4536C36.7188 87.4424 36.7391 87.436 36.7598 87.435C36.7805 87.434 36.8011 87.4382 36.8205 87.4475C36.8399 87.4568 36.8577 87.4709 36.8729 87.4891C36.8881 87.5073 36.9004 87.5291 36.9091 87.5535C36.9177 87.5778 36.9226 87.6041 36.9234 87.6309C36.9242 87.6576 36.9209 87.6843 36.9138 87.7095L35.2128 93.6841C35.2056 93.7092 35.1947 93.7323 35.1807 93.7519C35.1666 93.7716 35.1497 93.7875 35.1309 93.7987C35.1121 93.8099 35.0918 93.8162 35.0711 93.8172C35.0504 93.8183 35.0298 93.814 35.0104 93.8048C34.9909 93.7955 34.9731 93.7814 34.9579 93.7632C34.9427 93.745 34.9305 93.7231 34.9218 93.6988C34.9131 93.6744 34.9083 93.6481 34.9075 93.6214C34.9066 93.5946 34.9099 93.5679 34.9171 93.5428L35.7218 90.7161L32.6632 88.4079C32.6449 88.3946 32.6289 88.3768 32.616 88.3555C32.6031 88.3341 32.5937 88.3097 32.5881 88.2835C32.5826 88.2574 32.5812 88.2301 32.5839 88.2033C32.5867 88.1764 32.5935 88.1505 32.6041 88.1271C32.6146 88.1037 32.6286 88.0833 32.6454 88.067C32.6621 88.0507 32.6811 88.0388 32.7014 88.0322C32.7217 88.0255 32.7428 88.0241 32.7635 88.0281C32.7842 88.0322 32.8041 88.0414 32.822 88.0555ZM78.0244 57.4512L79.6715 56.5953L79.7002 56.5842C79.741 56.5736 83.8199 55.6073 87.0191 59.3866C87.0347 59.4046 87.0474 59.4264 87.0564 59.4507C87.0654 59.475 87.0706 59.5015 87.0717 59.5284C87.0728 59.5554 87.0697 59.5823 87.0627 59.6078C87.0556 59.6332 87.0448 59.6565 87.0307 59.6765C87.0166 59.6964 86.9997 59.7125 86.9807 59.7239C86.9618 59.7353 86.9414 59.7417 86.9205 59.7428C86.8997 59.7438 86.8789 59.7395 86.8593 59.7301C86.8398 59.7207 86.8219 59.7064 86.8066 59.6879C83.8193 56.1596 80.0338 56.9239 79.7738 56.9818L78.1418 57.8299C78.103 57.8498 78.0596 57.8491 78.0212 57.8279C77.9828 57.8067 77.9524 57.7667 77.9367 57.7166C77.9213 57.6664 77.9218 57.6102 77.9383 57.5605C77.9547 57.5108 77.9857 57.4715 78.0244 57.4512ZM39.3167 33.8068C39.3373 33.8047 39.3581 33.808 39.3778 33.8163C39.3975 33.8247 39.4157 33.838 39.4314 33.8555C39.4471 33.873 39.46 33.8943 39.4693 33.9183C39.4786 33.9423 39.4842 33.9684 39.4856 33.9951L39.6417 36.6909C39.6481 36.8031 39.5831 36.9009 39.4964 36.9095L39.4845 36.91C39.4447 36.9099 39.4065 36.8904 39.3774 36.8554C39.3483 36.8204 39.3304 36.7725 39.3274 36.7212L39.1714 34.0254C39.1683 33.9715 39.1818 33.9182 39.2091 33.8772C39.2363 33.8362 39.275 33.8109 39.3167 33.8068ZM20.7546 78.7618L22.2835 77.5114C22.3188 77.4825 22.3615 77.473 22.4023 77.4849C22.443 77.4968 22.4784 77.5292 22.5007 77.5749C22.523 77.6205 22.5304 77.6758 22.5212 77.7285C22.512 77.7812 22.487 77.8271 22.4517 77.8559L20.9228 79.1064C20.9053 79.1222 20.8855 79.1333 20.8647 79.1389C20.8438 79.1446 20.8222 79.1447 20.8013 79.1393C20.7804 79.1338 20.7606 79.123 20.743 79.1073C20.7254 79.0917 20.7105 79.0716 20.6991 79.0482C20.6877 79.0249 20.6801 78.9988 20.6767 78.9715C20.6734 78.9443 20.6743 78.9164 20.6795 78.8896C20.6847 78.8629 20.694 78.8377 20.7069 78.8158C20.7198 78.7938 20.7361 78.7754 20.7546 78.7618ZM9.37144 70.6789C9.39102 70.6702 9.41173 70.6667 9.43238 70.6684C9.45303 70.6701 9.47322 70.6771 9.49178 70.6889C9.51035 70.7008 9.52692 70.7172 9.54056 70.7374C9.5542 70.7575 9.56462 70.7809 9.57125 70.8063C9.90716 72.0886 10.4315 73.2747 11.1154 74.2993C11.6669 75.1262 12.3136 75.8384 13.0326 76.4106C13.062 76.4337 13.0847 76.4687 13.0973 76.5102C13.1099 76.5516 13.1116 76.5973 13.1022 76.6401C13.0928 76.683 13.0728 76.7206 13.0453 76.7473C13.0177 76.774 12.9842 76.7883 12.9498 76.788C12.9214 76.788 12.8931 76.7784 12.8673 76.7577C12.1207 76.1638 11.4492 75.4245 10.8765 74.5659C10.1662 73.5016 9.62163 72.2695 9.27281 70.9375C9.25946 70.8863 9.26235 70.8303 9.28084 70.7818C9.29933 70.7334 9.33191 70.6963 9.37144 70.6789ZM90.1359 21.3235C91.9517 19.6803 93.0099 19.5984 93.5773 19.8193C94.0355 19.9972 94.3714 20.4335 94.5748 21.1175C95.1797 23.148 93.6757 25.1577 93.205 25.7198C93.3982 25.9315 93.5517 26.1972 93.6539 26.4968C94.0041 26.6773 94.4695 26.7137 95.0476 26.6017C94.0982 24.6878 96.6123 20.9891 96.7259 20.8258C96.7507 20.7894 96.7856 20.767 96.823 20.7637C96.8604 20.7603 96.8973 20.7762 96.9257 20.8079C96.9395 20.8235 96.9508 20.8426 96.9589 20.864C96.967 20.8853 96.9717 20.9085 96.9729 20.9322C96.974 20.956 96.9715 20.9798 96.9655 21.0022C96.9595 21.0247 96.9501 21.0454 96.9378 21.0631C96.9291 21.0738 96.6988 21.4147 96.4029 21.9281C95.7099 23.1381 94.6636 25.3159 95.3234 26.4781C95.3481 26.5226 95.3751 26.5648 95.4043 26.6045C95.5845 26.8502 95.7849 26.9485 96.0298 26.9255C97.1541 26.7827 98.574 23.8724 98.5871 23.8441C98.607 23.8029 98.6386 23.7735 98.6751 23.7622C98.7115 23.7509 98.75 23.7585 98.7822 23.7834C98.7979 23.7957 98.8117 23.812 98.8225 23.8312C98.8334 23.8504 98.8412 23.8723 98.8455 23.8954C98.8497 23.9186 98.8504 23.9427 98.8474 23.9662C98.8444 23.9897 98.8379 24.0122 98.8281 24.0324C98.7687 24.1603 97.3222 27.1247 96.0589 27.2857L96.0476 27.287C95.7484 27.3211 95.48 27.1993 95.256 26.9245C95.0918 26.9627 94.9363 26.99 94.7877 27.0069C94.4002 27.0512 94.0588 27.0246 93.7693 26.927C93.931 27.8021 93.749 28.8594 93.2215 30.0747C93.2101 30.1006 93.1941 30.1226 93.1747 30.1387C93.1553 30.1548 93.1332 30.1646 93.1103 30.1672C93.0822 30.1694 93.0541 30.1617 93.0291 30.145C93.013 30.1336 92.9988 30.1182 92.9873 30.0997C92.9758 30.0811 92.9673 30.0599 92.9622 30.0371C92.9571 30.0143 92.9555 29.9904 92.9575 29.9668C92.9595 29.9432 92.9651 29.9204 92.974 29.8996C93.6273 28.3938 93.6181 27.3947 93.44 26.7734C93.2705 26.1655 92.9381 25.9152 92.9119 25.894L92.7324 25.7669L92.8894 25.5988C92.8912 25.5962 92.9123 25.572 92.9509 25.5288C93.2857 25.1347 94.8742 23.1444 94.3089 21.2449C94.1375 20.6638 93.8701 20.3117 93.4937 20.1658C93.0043 19.9747 92.0808 20.0582 90.4547 21.4835C90.4045 21.5255 90.3527 21.5727 90.2992 21.62C90.2886 21.6309 90.2777 21.6369 90.2648 21.6432C90.2418 21.653 90.2173 21.6558 90.1933 21.6513C90.1724 21.6473 90.1526 21.6361 90.1361 21.619C90.1224 21.6088 90.1109 21.5943 90.1027 21.5768C90.0918 21.5574 90.0841 21.5354 90.0799 21.5121C90.0756 21.4888 90.0751 21.4647 90.0782 21.4411C90.0813 21.4175 90.088 21.395 90.0979 21.3748C90.1078 21.3546 90.1207 21.3371 90.1359 21.3235ZM9.75152 14.9771C7.89098 13.4175 6.83122 13.3836 6.27028 13.6303C5.81735 13.829 5.49391 14.2802 5.30974 14.973C4.76188 17.0298 6.32086 18.9697 6.80699 19.5102C6.61984 19.7305 6.47384 20.003 6.38004 20.3071C6.03512 20.5033 5.57106 20.5612 4.9902 20.4755C5.88571 18.5196 3.27009 14.9374 3.15173 14.7797C3.12601 14.7443 3.09054 14.7235 3.05304 14.7219C3.01554 14.7202 2.97906 14.7378 2.95154 14.7708C2.93818 14.7871 2.92746 14.8067 2.91997 14.8284C2.91248 14.8502 2.90838 14.8736 2.90791 14.8973C2.90744 14.9211 2.9106 14.9448 2.91722 14.967C2.92383 14.9891 2.93377 15.0094 2.94646 15.0266C2.95544 15.0367 3.19509 15.3673 3.50524 15.8666C4.23161 17.0442 5.33786 19.173 4.71091 20.3645C4.68825 20.4087 4.66188 20.453 4.63356 20.4944C4.46032 20.7482 4.26286 20.8556 4.01735 20.8435C2.89001 20.752 1.38982 17.9079 1.37576 17.8803C1.35481 17.8401 1.32248 17.8121 1.28574 17.8023C1.249 17.7926 1.21077 17.8019 1.17927 17.8283C1.16386 17.8413 1.15061 17.8582 1.14029 17.8779C1.12997 17.8977 1.1228 17.9198 1.11918 17.9432C1.11556 17.9666 1.11558 17.9906 1.11922 18.014C1.12287 18.0374 1.13007 18.0595 1.14041 18.0793C1.2033 18.2044 2.73161 21.1011 3.99841 21.2044L4.00974 21.2052C4.30974 21.2257 4.57458 21.0917 4.79079 20.8068C4.95602 20.8374 5.11208 20.8577 5.2611 20.868C5.64978 20.8946 5.99 20.8526 6.27653 20.7416C6.13922 21.6235 6.35075 22.672 6.91188 23.8625C6.92394 23.8879 6.94058 23.9092 6.96038 23.9244C6.98018 23.9396 7.00255 23.9484 7.02555 23.95C7.05367 23.9508 7.08144 23.9419 7.10602 23.9242C7.12181 23.9121 7.1356 23.896 7.14658 23.877C7.15756 23.8579 7.16552 23.8363 7.17 23.8132C7.17449 23.7902 7.17541 23.7662 7.1727 23.7427C7.17 23.7192 7.16374 23.6966 7.15426 23.6762C6.45934 22.2011 6.44059 21.2024 6.60134 20.5733C6.75387 19.9581 7.07907 19.6929 7.10465 19.6704L7.28063 19.5352L7.11891 19.3744C7.11715 19.3719 7.09547 19.3486 7.05543 19.3072C6.70993 18.9285 5.06696 17.0118 5.57887 15.0878C5.73395 14.4993 5.99137 14.1354 6.36344 13.9723C6.84723 13.759 7.77243 13.8005 9.43746 15.151C9.48883 15.1907 9.54176 15.2354 9.59664 15.2801C9.60735 15.2897 9.61915 15.297 9.6316 15.3019C9.65486 15.3108 9.67943 15.3124 9.70328 15.3067C9.72406 15.3016 9.74345 15.2896 9.75953 15.2718C9.77295 15.261 9.78404 15.2459 9.79176 15.2281C9.80209 15.2083 9.80924 15.186 9.81281 15.1625C9.81638 15.1391 9.8163 15.115 9.81255 15.0916C9.8088 15.0682 9.80146 15.046 9.79098 15.0263C9.7805 15.0067 9.76709 14.9899 9.75152 14.9771Z" fill="black"/>
<path d="M38.3833 75.3553C38.3364 79.0199 40.3677 81.7384 43.0773 82.7884C45.8183 83.8505 49.3253 83.3318 51.1862 80.2347C52.5653 77.9396 53.0059 72.6219 50.3833 71.3914C49.8524 71.1425 49.2491 71.1202 48.7233 71.4036C48.1446 71.7155 47.7817 72.4055 47.355 72.9664C46.331 74.3127 45.0067 74.5197 44.1769 72.7743C43.7132 71.7992 43.5028 70.7504 42.7591 70.0331C42.0929 69.3906 41.2493 69.2546 40.5146 69.794C39.2476 70.7239 38.6071 72.7106 38.4316 74.4939C38.4028 74.7863 38.3868 75.0737 38.3833 75.3553Z" fill="white"/>
<path d="M44.3721 83.2776C44.4144 83.2775 44.4552 83.2579 44.4873 83.2223C44.5194 83.1867 44.5407 83.1375 44.5473 83.0835L45.6402 74.1159C45.6476 74.0556 45.6361 73.9941 45.6084 73.9448C45.5806 73.8955 45.5389 73.8625 45.4924 73.853C45.4459 73.8439 45.3985 73.8589 45.3605 73.8947C45.3224 73.9305 45.2969 73.9843 45.2893 74.0443L44.1963 83.0119C44.1923 83.0448 44.1939 83.0783 44.2009 83.1103C44.2079 83.1423 44.2202 83.1719 44.2369 83.1972C44.2536 83.2224 44.2743 83.2427 44.2977 83.2566C44.321 83.2705 44.3464 83.2776 44.3721 83.2776ZM50.2133 81.4792C50.2419 81.4791 50.2701 81.4702 50.2954 81.4531C50.3208 81.436 50.3425 81.4112 50.3589 81.3808C50.3753 81.3505 50.3858 81.3155 50.3894 81.2788C50.3931 81.2421 50.3899 81.2048 50.3801 81.17L47.9188 72.5052C47.9012 72.4504 47.8679 72.4064 47.8259 72.3826C47.7839 72.3587 47.7363 72.3568 47.6933 72.3773C47.6502 72.3978 47.6149 72.439 47.5948 72.4924C47.5747 72.5458 47.5713 72.6072 47.5854 72.6637L50.0467 81.3285C50.0592 81.3727 50.0819 81.4108 50.1117 81.4377C50.1415 81.4647 50.1769 81.4791 50.2133 81.4792ZM39.0475 78.856C39.072 78.856 39.0962 78.8495 39.1186 78.8368C39.141 78.8241 39.1612 78.8055 39.1778 78.7822L43.8457 72.2585C43.8615 72.2364 43.8738 72.2104 43.8819 72.1822C43.89 72.1539 43.8937 72.1238 43.8928 72.0937C43.8919 72.0635 43.8864 72.0339 43.8766 72.0065C43.8669 71.9791 43.8531 71.9545 43.836 71.934C43.8189 71.9135 43.7988 71.8976 43.7769 71.8871C43.7551 71.8767 43.7318 71.8719 43.7085 71.8731C43.6853 71.8743 43.6624 71.8814 43.6412 71.894C43.62 71.9066 43.601 71.9245 43.5852 71.9466L38.9172 78.4702C38.8937 78.503 38.8781 78.5439 38.8723 78.588C38.8665 78.6321 38.8708 78.6774 38.8846 78.7184C38.8985 78.7593 38.9213 78.7942 38.9502 78.8186C38.9791 78.8431 39.0129 78.8561 39.0475 78.856Z" fill="black"/>
<path d="M61.3131 89.0696C57.6096 89.0696 54.6073 85.1842 54.6073 80.3912C54.6073 75.5982 57.6096 71.7128 61.3131 71.7128C65.0167 71.7128 68.019 75.5982 68.019 80.3912C68.019 85.1842 65.0167 89.0696 61.3131 89.0696Z" fill="#FF7300"/>
<path d="M29.7204 79.8311C26.0168 79.8311 23.0145 75.9456 23.0145 71.1527C23.0145 66.3597 26.0168 62.4742 29.7204 62.4742C33.4239 62.4742 36.4262 66.3597 36.4262 71.1527C36.4262 75.9456 33.4239 79.8311 29.7204 79.8311Z" fill="#FF7300"/>
<path d="M56.6368 74.1711L57.5116 74.8604C62.9448 78.7151 69.9299 76.1773 72.7983 68.976C75.8826 61.2318 73.6936 52.7609 68.0194 48.8562C68.0194 48.8562 58.8241 53.9942 55.2673 55.9958L56.6368 74.1711Z" fill="white"/>
<path d="M51.6295 59.7575C51.5891 59.7467 51.5535 59.7157 51.5306 59.6712C51.5076 59.6268 51.4991 59.5724 51.5069 59.5199C52.7672 51.0952 58.7625 45.7439 65.1563 47.3379C68.2332 48.1048 70.8416 50.4082 72.501 53.8238C72.5834 53.9937 72.6611 54.1663 72.7383 54.3397L72.7399 54.3375L74.8916 52.3828C74.9269 52.3534 74.9697 52.3428 75.0109 52.3533C75.0521 52.3637 75.0886 52.3944 75.1127 52.4389C75.1369 52.4833 75.1468 52.5382 75.1404 52.5919C75.134 52.6456 75.1119 52.694 75.0785 52.7271L72.9268 54.6817C72.9162 54.6913 72.9047 54.6971 72.8934 54.703C73.2381 55.5304 73.5231 56.3971 73.7447 57.2923C73.7612 57.2713 73.7809 57.2551 73.8025 57.2448L76.2398 56.1197C76.2799 56.1038 76.3231 56.1086 76.3606 56.1329C76.398 56.1573 76.4267 56.1994 76.4408 56.2504C76.4548 56.3015 76.4531 56.3576 76.436 56.4071C76.4188 56.4566 76.3876 56.4956 76.3488 56.516L73.9115 57.6411C73.894 57.6492 73.8756 57.6533 73.857 57.6532C73.8471 57.6532 73.8377 57.6497 73.8281 57.6474C74.0173 58.4803 74.1529 59.3321 74.2334 60.194C74.24 60.1925 74.2457 60.1882 74.2527 60.1877L76.9084 60.0042C76.9897 59.9984 77.0746 60.0868 77.0793 60.2031C77.0816 60.2589 77.0667 60.3135 77.0379 60.355C77.009 60.3965 76.9687 60.4215 76.9256 60.4245L74.2699 60.608H74.2676C74.3816 62.1818 74.3209 63.7686 74.0875 65.3201C74.0836 65.3464 74.0757 65.3713 74.0643 65.3937C74.0529 65.416 74.0382 65.4351 74.0211 65.4501C74.0039 65.4651 73.9847 65.4755 73.9644 65.4809C73.9442 65.4862 73.9233 65.4863 73.903 65.4812C73.8827 65.4761 73.8634 65.4659 73.8462 65.4512C73.829 65.4364 73.8141 65.4174 73.8026 65.3952C73.791 65.3731 73.7829 65.3482 73.7788 65.322C73.7747 65.2958 73.7746 65.2687 73.7785 65.2425C74.3701 61.2862 73.8221 57.3077 72.2346 54.0402C71.1678 51.8444 69.6955 50.1254 67.9565 48.995L56.6366 74.1709C52.852 70.9653 50.9803 65.2764 51.6295 59.7575Z" fill="black"/>
<path d="M27.09 66.3317C27.09 66.3317 27.1288 66.3671 27.9165 67.1221C32.9165 71.9143 40.0634 70.1133 43.6792 63.4585C47.2102 56.9599 46.2864 47.7191 40.6458 42.6898C40.6458 42.6898 31.0261 46.4886 27.304 47.9724L27.09 66.3317Z" fill="white"/>
<path d="M21.5026 47.8165C21.519 47.7649 21.5506 47.7239 21.5904 47.7023C21.6301 47.6808 21.6749 47.6806 21.7147 47.7017L23.8644 48.8455C24.1979 47.9189 24.6022 47.0377 25.0712 46.2152L23.0997 44.6385C23.0815 44.624 23.0657 44.605 23.0532 44.5826C23.0407 44.5602 23.0317 44.5348 23.0268 44.5078C23.0219 44.4809 23.0211 44.453 23.0246 44.4257C23.0281 44.3984 23.0357 44.3723 23.047 44.3488C23.0582 44.3253 23.0728 44.3048 23.0901 44.2887C23.1074 44.2725 23.1271 44.2609 23.1478 44.2546C23.1686 44.2482 23.1902 44.2473 23.2112 44.2517C23.2323 44.2562 23.2525 44.266 23.2706 44.2806L25.269 45.8791C25.7353 45.1073 26.258 44.3955 26.8298 43.7536L25.1569 41.3247C25.1427 41.3041 25.1318 41.2801 25.1248 41.254C25.1178 41.2279 25.1148 41.2003 25.116 41.1728C25.1172 41.1452 25.1226 41.1182 25.1319 41.0934C25.1412 41.0685 25.1542 41.0462 25.1701 41.0279C25.186 41.0095 25.2046 40.9954 25.2248 40.9863C25.2449 40.9772 25.2662 40.9733 25.2875 40.9749C25.3088 40.9765 25.3297 40.9835 25.3489 40.9955C25.3681 41.0075 25.3853 41.0243 25.3995 41.0449L27.0778 43.4818C27.1909 43.3602 27.3058 43.2413 27.4224 43.1252C29.9204 40.6668 33.0241 39.6398 36.1591 40.2333C39.2737 40.8227 41.9721 42.9814 43.7567 46.312C45.51 49.5838 46.2182 53.648 45.7508 57.7562C45.7477 57.7836 45.7405 57.8098 45.7295 57.8335C45.7186 57.8572 45.7041 57.8779 45.687 57.8943C45.6698 57.9108 45.6504 57.9227 45.6297 57.9295C45.609 57.9362 45.5875 57.9376 45.5664 57.9336C45.5452 57.9295 45.525 57.9201 45.5067 57.906C45.4883 57.8918 45.4724 57.8731 45.4596 57.8509C45.4469 57.8287 45.4377 57.8035 45.4325 57.7768C45.4273 57.75 45.4262 57.7221 45.4293 57.6948C45.8844 53.6928 45.1958 49.7355 43.4897 46.5517C42.7054 45.0835 41.7117 43.8226 40.562 42.8368L27.0891 66.3305C24.0702 63.0997 22.6323 58.2281 23.0153 53.4752C23.0065 53.4754 22.9981 53.4787 22.9892 53.4769C22.968 53.4729 22.9477 53.4636 22.9294 53.4494C22.911 53.4352 22.895 53.4165 22.8823 53.3943C22.8695 53.3721 22.8603 53.3469 22.8551 53.3201C22.8499 53.2933 22.8489 53.2654 22.852 53.2381C23.0088 51.858 23.3052 50.5107 23.7335 49.2307L21.5913 48.091C21.5715 48.0806 21.5535 48.0652 21.5383 48.0457C21.5232 48.0263 21.5111 48.0031 21.5029 47.9776C21.4946 47.9521 21.4904 47.9247 21.4903 47.8971C21.4903 47.8694 21.4945 47.8421 21.5026 47.8165Z" fill="black"/>
</svg>
