<svg width="31" height="29" viewBox="0 0 31 29" fill="none" xmlns="http://www.w3.org/2000/svg">
<path d="M15.5001 0C0.671912 0.0730191 -5.64901 17.6763 6.13623 26.0725C8.8348 27.9724 12.1216 29 15.5001 29C18.8787 29 22.1655 27.9724 24.864 26.0725C36.6493 17.6794 30.3273 0.0704297 15.5001 0ZM25.4608 24.2335C22.9919 26.4549 19.7545 27.7779 16.3333 27.9636C12.9121 28.1494 9.53253 27.1857 6.805 25.2465C6.3628 24.9317 5.94027 24.5935 5.53948 24.2335V22.2045C5.53842 21.4112 5.80489 20.6377 6.30103 19.994C6.79718 19.3503 7.49776 18.8691 8.30322 18.6188L13.2877 17.0642C14.7245 16.6186 16.277 16.6188 17.7137 17.0647L22.6971 18.6188C23.5025 18.8691 24.2031 19.3503 24.6992 19.994C25.1954 20.6377 25.4619 21.4112 25.4608 22.2045V24.2335ZM10.5772 11.0922C10.8354 4.99171 20.166 4.99378 20.4231 11.0922C20.4231 12.3125 19.9044 13.4828 18.9812 14.3457C18.058 15.2086 16.8058 15.6934 15.5001 15.6934C14.1945 15.6934 12.9423 15.2086 12.0191 14.3457C11.0958 13.4828 10.5772 12.3125 10.5772 11.0922ZM26.5689 23.1268V22.2045C26.5702 21.1938 26.2307 20.2083 25.5986 19.3882C24.9665 18.5681 24.0739 17.9549 23.0478 17.6359L18.2024 16.1248C23.8069 13.4448 21.8809 5.53339 15.5001 5.45416C9.11882 5.53547 7.19285 13.4428 12.7979 16.1248L7.95249 17.6359C6.92623 17.9549 6.03359 18.5679 5.40139 19.3881C4.76919 20.2082 4.42957 21.1937 4.43077 22.2045V23.1263C-3.38061 14.492 3.37692 0.986534 15.5001 1.03625C27.6234 0.986534 34.3814 14.492 26.5689 23.1268Z" fill="black"/>
</svg>
