<svg width="50" height="50" viewBox="0 0 50 50" fill="none" xmlns="http://www.w3.org/2000/svg">
<path d="M19.9984 5.87848C19.7573 5.83289 19.5073 5.88155 19.3034 6.01374C19.0995 6.14594 18.9583 6.35084 18.9111 6.58337C18.8638 6.81591 18.9143 7.05703 19.0513 7.25368C19.1884 7.45034 19.4009 7.58643 19.642 7.63201C19.9409 7.66766 20.2265 7.77273 20.474 7.9382C20.7216 8.10366 20.9239 8.32459 21.0634 8.58202C21.203 8.83944 21.2757 9.12568 21.2753 9.41617C21.275 9.70666 21.2015 9.99273 21.0613 10.2498C20.98 10.3857 20.937 10.5397 20.9366 10.6966C20.9362 10.8534 20.9783 11.0076 21.0588 11.1439C21.1393 11.2802 21.2553 11.3939 21.3954 11.4735C21.5356 11.5532 21.6948 11.5961 21.8575 11.598C22.6166 11.6087 22.9055 10.765 23.0666 10.1695C23.1652 9.69277 23.1635 9.20183 23.0616 8.72577C22.9598 8.24971 22.7599 7.79821 22.4738 7.39804C22.1876 6.99787 21.8211 6.65717 21.3959 6.39615C20.9707 6.13513 20.4955 5.95909 19.9984 5.87848ZM23.1434 24.9986C23.1434 24.7617 23.0458 24.5345 22.8721 24.367C22.6984 24.1995 22.4628 24.1054 22.2172 24.1054C21.9715 24.1054 21.7359 24.1995 21.5622 24.367C21.3885 24.5345 21.2909 24.7617 21.2909 24.9986C21.2575 25.5009 21.02 25.9701 20.63 26.3044C20.2399 26.6388 19.7289 26.8112 19.2078 26.7843C18.962 26.7843 18.7263 26.8785 18.5525 27.0461C18.3787 27.2137 18.2811 27.441 18.2811 27.6781C18.2811 27.9151 18.3787 28.1424 18.5525 28.31C18.7263 28.4776 18.962 28.5718 19.2078 28.5718C20.2203 28.599 21.2027 28.2383 21.9401 27.5686C22.6775 26.899 23.1098 25.9749 23.1425 24.9986H23.1434ZM20.6937 39.9528C21.0129 40.2165 21.222 40.5829 21.2823 40.9841C21.3426 41.3852 21.2499 41.7938 21.0215 42.134C20.8629 42.3597 20.6592 42.5527 20.4223 42.7015C20.1854 42.8504 19.9202 42.9522 19.642 43.001C19.5225 43.0234 19.4087 43.0684 19.3072 43.1333C19.2058 43.1982 19.1186 43.2817 19.0506 43.3792C18.9827 43.4766 18.9354 43.5861 18.9113 43.7012C18.8873 43.8163 18.8871 43.9349 18.9106 44.0501C19.4865 45.7465 22.026 44.0286 22.575 43.1072C23.0424 42.4103 23.2349 41.5748 23.1175 40.7526C23.0001 39.9303 22.5806 39.1761 21.9352 38.627C21.7529 38.4682 21.5127 38.3858 21.2673 38.3978C21.022 38.4099 20.7917 38.5154 20.6271 38.6912C20.4624 38.8671 20.377 39.0987 20.3895 39.3353C20.402 39.5719 20.5114 39.794 20.6937 39.9528ZM15.4897 33.9815C15.1833 34.0786 14.8578 34.1065 14.5385 34.063C14.2191 34.0196 13.9143 33.9059 13.6477 33.7309C13.3811 33.5558 13.1598 33.324 13.0008 33.0534C12.8418 32.7827 12.7494 32.4805 12.7308 32.1699C12.7375 31.9331 12.6466 31.7033 12.4778 31.5311C12.3091 31.3589 12.0765 31.2582 11.8309 31.2512C10.7273 31.2744 10.7653 32.4958 11.0421 33.2476C11.3158 34.0162 11.8348 34.6815 12.5247 35.1482C13.2145 35.6149 14.0398 35.8591 14.8824 35.8458C15.6619 35.8779 16.8858 35.6145 16.6238 34.6136C16.5927 34.5002 16.5386 34.3937 16.4646 34.3005C16.3907 34.2072 16.2984 34.129 16.193 34.0703C16.0876 34.0115 15.9712 33.9734 15.8505 33.9582C15.7299 33.943 15.6072 33.9509 15.4897 33.9815ZM11.7272 18.7416C12.4568 18.8095 12.7419 18.1943 12.8095 17.5952C13.0067 17.0958 13.393 16.6871 13.8904 16.4517C14.3879 16.2162 14.9594 16.1715 15.4897 16.3265C15.727 16.3878 15.9799 16.3557 16.1927 16.2373C16.4054 16.1188 16.5607 15.9237 16.6243 15.6948C16.6879 15.4659 16.6546 15.2221 16.5318 15.0169C16.4089 14.8117 16.2066 14.662 15.9693 14.6006C14.9776 14.329 13.9159 14.4322 13.0004 14.8892C12.0849 15.3462 11.3846 16.1227 11.0421 17.0604C10.7699 17.7095 10.8384 18.6604 11.7272 18.7416Z" fill="black"/>
<path d="M48.0989 20.8211C47.9197 20.6626 47.6831 20.5784 47.4401 20.5867C47.1972 20.5951 46.9673 20.6952 46.8003 20.8656C46.6333 21.0359 46.5424 21.2628 46.5474 21.4972C46.5523 21.7316 46.6527 21.9547 46.8268 22.1184C49.769 24.6969 47.4517 29.1879 43.4994 29.1254C43.3098 29.1301 43.1262 29.1904 42.9731 29.2983C42.82 29.4063 42.7047 29.5567 42.6425 29.7294C42.5803 29.9022 42.5743 30.0892 42.6252 30.2654C42.676 30.4416 42.7814 30.5986 42.9272 30.7155C46.1704 33.2592 43.9308 37.9431 39.7758 37.8797C39.3019 37.8691 38.8301 37.8153 38.3667 37.719C38.2458 37.7192 38.1262 37.7425 38.0148 37.7877C37.9033 37.8328 37.8023 37.8988 37.7175 37.9818C37.6326 38.0648 37.5657 38.1633 37.5207 38.2714C37.4756 38.3796 37.4532 38.4953 37.4548 38.6118C37.4553 38.7614 37.495 38.9085 37.5701 39.0394C37.6451 39.1704 37.7532 39.2809 37.8843 39.3609C38.4585 39.7716 38.9108 40.3205 39.196 40.9527C39.4812 41.5848 39.5892 42.2782 39.5094 42.9633C39.4295 43.6483 39.1645 44.3012 38.7409 44.8566C38.3173 45.4119 37.7499 45.8502 37.0955 46.1277C35.98 46.6741 34.6916 46.7937 33.4886 46.4626C33.2897 46.4102 33.0785 46.4218 32.887 46.4956C32.6956 46.5693 32.5343 46.7013 32.4276 46.8715C30.4537 49.3982 26.0339 48.1991 25.9395 45.0697V4.92764C25.947 4.3061 26.1503 3.70147 26.5225 3.19403C26.8948 2.68659 27.4183 2.30035 28.0235 2.08662C28.6784 1.79462 29.408 1.69521 30.1211 1.80081C30.8342 1.90641 31.4993 2.21233 32.0332 2.68036C32.2092 2.84564 32.4462 2.93671 32.6918 2.93353C32.9375 2.93035 33.1718 2.83318 33.3432 2.66339C33.5146 2.49361 33.609 2.26512 33.6057 2.0282C33.6024 1.79127 33.5017 1.56531 33.3256 1.40003C31.1564 -0.774039 26.8125 -0.341012 25.01 2.17858C23.1565 -0.444581 18.4904 -0.794575 16.4212 1.67681C13.0568 0.956284 9.06465 3.35088 8.66933 6.67314C8.48023 7.95495 8.75522 9.26044 9.44794 10.3695C8.21952 10.476 7.04907 10.9221 6.07705 11.6542C5.10502 12.3864 4.37273 13.3735 3.96804 14.4971C3.69899 15.3029 3.62153 16.1569 3.74142 16.9955C3.8613 17.8342 4.17545 18.6361 4.66055 19.3416C3.35162 19.6681 2.18862 20.3969 1.34767 21.4178C0.506723 22.4388 0.0336185 23.6961 0 24.9996C0.0341742 26.3029 0.507615 27.56 1.34868 28.5807C2.18975 29.6014 3.35267 30.3301 4.66148 30.6566C2.09419 34.2619 4.91422 39.2502 9.45257 39.6279C6.5918 44.0921 11.356 49.3679 16.4221 48.3206C18.5867 50.8294 23.1528 50.4169 25.0109 47.8179C26.881 50.4116 31.3907 50.8321 33.5895 48.3206C35.0611 48.5874 36.5828 48.3794 37.9195 47.7286C38.6737 47.3942 39.347 46.9113 39.896 46.3109C40.445 45.7105 40.8576 45.0058 41.1072 44.2424C41.3567 43.4789 41.4378 42.6735 41.3452 41.878C41.2525 41.0825 40.9882 40.3145 40.5692 39.6234C45.1279 39.2957 47.9276 34.2208 45.3584 30.6575C49.9023 29.5245 51.6697 23.921 48.0989 20.8211ZM24.0832 45.0706C24.0658 45.7499 23.8207 46.4055 23.3846 46.9392C22.9485 47.473 22.3449 47.8561 21.6641 48.0313C20.9331 48.2825 20.1377 48.2996 19.3959 48.0802C18.654 47.8608 18.0053 47.4166 17.546 46.8134C17.4609 46.6942 17.347 46.5967 17.2141 46.5293C17.0812 46.462 16.9333 46.4268 16.7832 46.4268C12.1041 47.8536 7.95275 42.4805 12.2578 39.268C12.3466 39.1884 12.4182 39.0926 12.4685 38.9861C12.5188 38.8797 12.5468 38.7647 12.5508 38.6478C12.5549 38.5309 12.5349 38.4143 12.4921 38.3049C12.4493 38.1954 12.3844 38.0952 12.3013 38.01C11.7384 37.4342 10.9413 37.9618 10.2515 37.8841C6.12519 37.9654 3.83843 33.2191 7.0973 30.7057C7.24148 30.5879 7.34513 30.4306 7.39452 30.2547C7.44391 30.0788 7.4367 29.8926 7.37385 29.7207C7.31099 29.5488 7.19547 29.3994 7.04258 29.2923C6.88969 29.1852 6.70665 29.1254 6.51774 29.1209C5.33498 29.1611 4.18317 28.7517 3.31041 27.9808C2.43764 27.21 1.91377 26.1393 1.85163 24.9996C1.9133 23.8595 2.43697 22.7884 3.30979 22.0172C4.1826 21.2459 5.33467 20.8362 6.51774 20.8764C6.70901 20.8754 6.89525 20.8172 7.05086 20.7099C7.20646 20.6026 7.32378 20.4515 7.3867 20.2773C7.44962 20.1031 7.45504 19.9144 7.40222 19.7371C7.34941 19.5598 7.24094 19.4026 7.09174 19.2872C3.28386 16.0846 7.04082 11.0927 11.6532 12.2784C11.8504 12.2734 12.0408 12.2079 12.1968 12.0914C12.3527 11.975 12.4661 11.8136 12.5205 11.6308C12.5749 11.4479 12.5675 11.2531 12.4992 11.0746C12.431 10.8962 12.3056 10.7433 12.1411 10.6382C11.5671 10.2281 11.1147 9.67996 10.8291 9.04846C10.5435 8.41697 10.4347 7.72426 10.5136 7.03953C10.5925 6.3548 10.8564 5.70203 11.2787 5.1464C11.7011 4.59078 12.2673 4.15176 12.9207 3.87319C14.0357 3.32343 15.3258 3.2031 16.5295 3.53659C16.7287 3.58872 16.9401 3.57673 17.1316 3.50245C17.3231 3.42816 17.4842 3.29563 17.5905 3.12499C19.5717 0.598256 23.9842 1.80002 24.0832 4.92674V45.0706Z" fill="black"/>
<path d="M28.6355 38.5226C26.6653 37.7458 26.5116 41.4904 27.4439 42.469C27.9929 43.3931 30.5334 45.1091 31.1083 43.4127C31.1317 43.2976 31.1314 43.1791 31.1073 43.0641C31.0832 42.9491 31.0358 42.8397 30.9679 42.7424C30.9 42.645 30.8128 42.5616 30.7114 42.4967C30.61 42.4319 30.4963 42.387 30.3769 42.3645C30.078 42.3289 29.7925 42.2238 29.5449 42.0583C29.2973 41.8929 29.0951 41.6719 28.9555 41.4145C28.8159 41.1571 28.7432 40.8708 28.7436 40.5803C28.744 40.2899 28.8174 40.0038 28.9576 39.7467C29.0199 39.6459 29.0609 39.5343 29.0783 39.4183C29.0958 39.3022 29.0894 39.184 29.0595 39.0703C29.0296 38.9566 28.9767 38.8497 28.904 38.7558C28.8312 38.6618 28.74 38.5826 28.6355 38.5226ZM31.7379 27.6782C31.7379 27.4414 31.6403 27.2143 31.4667 27.0468C31.2931 26.8794 31.0576 26.7853 30.8121 26.7853C30.2908 26.8122 29.7796 26.6397 29.3896 26.3051C28.9995 25.9706 28.7621 25.5011 28.729 24.9988C28.729 24.7617 28.6313 24.5344 28.4575 24.3668C28.2837 24.1992 28.048 24.105 27.8022 24.105C27.5564 24.105 27.3207 24.1992 27.1469 24.3668C26.9731 24.5344 26.8755 24.7617 26.8755 24.9988C26.9084 25.9752 27.3411 26.8993 28.0789 27.5688C28.8166 28.2383 29.7994 28.5987 30.8121 28.571C31.0576 28.571 31.2931 28.477 31.4667 28.3095C31.6403 28.1421 31.7379 27.915 31.7379 27.6782ZM37.2816 32.0602C37.2299 32.3503 37.1143 32.6263 36.9425 32.8695C36.7708 33.1128 36.5469 33.3177 36.286 33.4704C36.0251 33.6231 35.7332 33.72 35.4302 33.7546C35.1271 33.7892 34.8199 33.7606 34.5292 33.6709C34.292 33.6103 34.0396 33.6427 33.8271 33.7609C33.6146 33.8792 33.4593 34.0738 33.3951 34.3022C33.1349 35.3021 34.357 35.5673 35.1356 35.5343C35.9783 35.5481 36.8038 35.3044 37.494 34.838C38.1842 34.3716 38.7036 33.7064 38.9777 32.9379C39.249 32.2888 39.1814 31.337 38.2917 31.2558C38.1703 31.2425 38.0474 31.2529 37.9303 31.2864C37.8132 31.3199 37.7043 31.3759 37.6102 31.4509C37.516 31.5259 37.4384 31.6184 37.3821 31.7229C37.3259 31.8275 37.292 31.9419 37.2826 32.0593L37.2816 32.0602ZM36.0374 12.4892H39.3675V15.6998C39.3675 15.9366 39.465 16.1637 39.6387 16.3312C39.8123 16.4986 40.0478 16.5927 40.2933 16.5927C40.5389 16.5927 40.7743 16.4986 40.948 16.3312C41.1216 16.1637 41.2191 15.9366 41.2191 15.6998V12.4892H44.5493C44.7948 12.4892 45.0303 12.3951 45.2039 12.2277C45.3776 12.0602 45.4751 11.8331 45.4751 11.5963C45.4751 11.3595 45.3776 11.1325 45.2039 10.965C45.0303 10.7976 44.7948 10.7035 44.5493 10.7035H41.2201V7.49107C41.2201 7.25415 41.1225 7.02694 40.9488 6.85942C40.775 6.69189 40.5394 6.59778 40.2938 6.59778C40.0481 6.59778 39.8125 6.69189 39.6388 6.85942C39.4651 7.02694 39.3675 7.25415 39.3675 7.49107V10.7017H36.0374C35.7917 10.7017 35.5561 10.7958 35.3824 10.9634C35.2087 11.1309 35.1111 11.3581 35.1111 11.595C35.1111 11.8319 35.2087 12.0591 35.3824 12.2267C35.5561 12.3942 35.7917 12.4883 36.0374 12.4883V12.4892Z" fill="black"/>
<path d="M30.5676 11.5963C30.5706 14.0829 31.5962 16.4669 33.4195 18.2253C35.2427 19.9836 37.7148 20.9727 40.2933 20.9755C53.1964 20.4613 53.1927 2.72947 40.2933 2.21698C37.7148 2.21982 35.2427 3.2089 33.4195 4.96724C31.5962 6.72558 30.5706 9.10959 30.5676 11.5963ZM40.2933 4.00355C42.3806 4.00615 44.3816 4.80693 45.8575 6.23028C47.3334 7.65362 48.1637 9.58335 48.1664 11.5963C47.7702 21.655 32.8146 21.6523 32.4202 11.5963C32.4226 9.58328 33.2529 7.65341 34.7289 6.23002C36.2048 4.80662 38.206 4.00592 40.2933 4.00355Z" fill="black"/>
</svg>
