<svg width="62" height="60" viewBox="0 0 62 60" fill="none" xmlns="http://www.w3.org/2000/svg">
<path d="M4.89885 38.1492C1.93559 43.4388 5.17902 48.9566 10.8652 50.4398C10.9488 51.8754 11.5092 55.5454 14.9331 58.0006C17.0833 59.5525 20.1283 60.4082 23.1694 59.8063C24.6767 59.4352 27.016 58.4165 27.7112 57.1394C27.8565 56.8765 27.7824 56.9223 27.8024 50.2594C28.9516 50.0816 29.8329 49.1444 29.8329 48.0094C29.8329 46.7479 28.7464 45.7218 27.4111 45.7218C26.9017 45.7203 26.4049 45.8743 25.9919 46.1618C25.5788 46.4493 25.2707 46.8555 25.1117 47.3223H19.5841L15.0157 41.558C14.8975 41.4237 14.7304 41.3383 14.5488 41.3194C14.3671 41.3006 14.185 41.3498 14.0399 41.4568C13.8948 41.5638 13.7978 41.7205 13.7691 41.8945C13.7404 42.0685 13.782 42.2465 13.8855 42.3917L18.6656 48.4271C18.7322 48.511 18.8179 48.5789 18.9161 48.6256C19.0142 48.6723 19.1222 48.6965 19.2317 48.6965H25.1117C25.2135 48.9971 25.3784 49.2744 25.5963 49.5108C25.8141 49.7472 26.0801 49.9378 26.3777 50.0706V56.5834C25.5771 57.5984 23.5626 58.2901 22.8493 58.4678C19.2877 59.1696 16.5429 57.4463 15.785 56.8994C12.268 54.3764 12.2652 50.3629 12.2766 49.9131C12.2806 49.7531 12.2266 49.5968 12.124 49.471C12.0214 49.3453 11.8765 49.258 11.7143 49.2242C6.2817 48.0955 3.38777 42.9148 6.43841 38.3333C6.53833 38.1831 6.57378 38.0014 6.53727 37.8265C6.50075 37.6516 6.39514 37.4972 6.24276 37.3961C2.26326 34.7531 -0.00477541 30.3145 2.38957 26.5401C3.06201 25.4792 4.54173 23.6818 6.58752 23.7166C7.20934 23.7258 7.81988 23.8781 8.36833 24.1609C8.68745 24.3982 9.02746 24.6189 9.38552 24.8223C9.53963 24.9096 9.72213 24.9378 9.89681 24.9014C10.0715 24.865 10.2256 24.7665 10.3285 24.6256C10.4315 24.4847 10.4757 24.3116 10.4525 24.1406C10.4293 23.9697 10.3403 23.8134 10.2033 23.7028C9.876 23.4379 9.52294 23.2041 9.14903 23.0047C6.05091 20.6356 5.21227 16.0175 7.59902 12.8239C9.37887 10.442 12.5644 9.40216 15.0414 9.65684C15.1408 9.66713 15.2413 9.65712 15.3364 9.62745C15.4316 9.59779 15.5191 9.54915 15.5935 9.48469C15.6679 9.42022 15.7273 9.34139 15.768 9.2533C15.8087 9.16521 15.8297 9.06985 15.8297 8.97341V8.04538C15.8297 4.36715 19.0427 1.3751 22.9928 1.3751C24.5181 1.3751 25.7946 1.81026 26.9637 3.01587V4.67955C26.9637 4.86178 27.0388 5.03654 27.1723 5.1654C27.3059 5.29425 27.4871 5.36664 27.676 5.36664C27.865 5.36664 28.0461 5.29425 28.1797 5.1654C28.3133 5.03654 28.3884 4.86178 28.3884 4.67955C28.339 2.85647 28.509 2.63293 28.2165 2.30496C26.7624 0.674266 25.0063 0.000916492 22.9928 0.000916492C18.2572 0.000916492 14.405 3.61044 14.405 8.04538V8.24418C12.0107 8.21487 8.56398 9.18229 6.44411 12.0204C4.0982 15.1582 4.38313 19.3348 6.54193 22.3424C4.49805 22.3515 2.59282 23.5865 1.17483 25.8227C-1.04192 29.3159 -0.293503 34.2822 4.89885 38.1492ZM27.4111 47.096C27.961 47.096 28.4083 47.5055 28.4083 48.0094C28.4083 48.5132 27.961 48.9227 27.4111 48.9227C26.8602 48.9227 26.4119 48.5132 26.4119 48.0094C26.4119 47.5055 26.8602 47.096 27.4111 47.096ZM34.3234 5.45826C34.5123 5.45826 34.6935 5.38587 34.8271 5.25701C34.9607 5.12816 35.0357 4.95339 35.0357 4.77116V3.01587C36.2267 1.79102 37.4918 1.37418 39.0076 1.37418C42.9568 1.37418 46.1708 4.36715 46.1708 8.0463V8.97433C46.1708 9.07103 46.192 9.16664 46.233 9.25489C46.2739 9.34315 46.3338 9.42207 46.4085 9.48649C46.4833 9.55091 46.5713 9.59939 46.6668 9.62874C46.7624 9.6581 46.8632 9.66767 46.9629 9.65684C49.4816 9.38842 52.6405 10.4676 54.4014 12.8248C56.7786 16.0056 55.9618 20.6247 52.8514 23.0057C52.4373 23.2255 52.083 23.4729 51.7971 23.7028C51.6609 23.8136 51.5727 23.9696 51.5499 24.14C51.5271 24.3105 51.5713 24.483 51.6738 24.6235C51.7764 24.7641 51.9298 24.8624 52.1038 24.8992C52.2778 24.936 52.4598 24.9086 52.6139 24.8223C52.9729 24.6199 53.312 24.3982 53.6321 24.1618C54.1801 23.8786 54.7903 23.726 55.4119 23.7166C55.5069 23.7642 57.6477 23.4463 59.6099 26.5401C60.138 27.371 60.439 28.3082 60.534 29.3159C59.0248 29.3186 56.7112 29.3104 56.4614 29.3242C56.2951 28.9418 56.0151 28.6156 55.6568 28.3867C55.2984 28.1578 54.8777 28.0364 54.4479 28.0379C53.2493 28.0379 52.273 28.9595 52.273 30.0937C52.273 31.2279 53.2493 32.1486 54.4479 32.1486C54.9091 32.1498 55.3586 32.009 55.731 31.7466C56.1034 31.4843 56.3793 31.1142 56.5184 30.6901H60.5236C60.0715 34.3353 56.5194 36.8895 55.7567 37.3961C55.6045 37.4974 55.4991 37.6518 55.4627 37.8267C55.4264 38.0016 55.462 38.1833 55.562 38.3333C58.6544 42.978 55.6323 48.1138 50.2851 49.2251C50.1231 49.2589 49.9784 49.346 49.8758 49.4716C49.7732 49.5971 49.7191 49.7532 49.7229 49.9131C49.7352 50.3629 49.7324 54.3764 46.2144 56.8994C42.3945 59.646 36.9334 58.608 35.1602 56.751V50.2585C35.9789 49.892 36.5506 49.1087 36.5506 48.1972C36.5506 46.9366 35.4631 45.9105 34.1268 45.9105C32.7915 45.9105 31.7049 46.9366 31.7049 48.1981C31.7049 49.3332 32.5873 50.2704 33.7355 50.4481V57.0103C33.7355 57.0973 33.8115 57.341 33.8875 57.4354C35.8639 59.8603 42.329 61.4086 47.0654 58.0015C50.4903 55.5454 51.0506 51.8763 51.1352 50.4398C56.8413 48.9521 60.0572 43.4269 57.1016 38.1492C62.3006 34.2703 63.0385 29.3113 60.8246 25.8218C59.4066 23.5865 57.5024 22.3515 55.4585 22.3424C57.5717 19.4768 57.9374 15.2067 55.5563 12.0214C53.4374 9.18229 49.947 8.2167 47.5954 8.24418V8.0463C47.5954 3.60952 43.7422 0 39.0076 0C37.0815 0 35.3036 0.604641 33.784 2.30405C33.4876 2.63477 33.6595 2.91968 33.6111 4.77116C33.6111 5.15044 33.9302 5.45826 34.3234 5.45826ZM54.4489 30.7744C54.0348 30.7744 53.6986 30.4693 53.6986 30.0937C53.6986 29.7181 54.0348 29.4121 54.4489 29.4121C54.863 29.4121 55.1982 29.7172 55.1982 30.0937C55.1982 30.4702 54.863 30.7744 54.4489 30.7744ZM34.1259 49.1115C33.576 49.1115 33.1286 48.702 33.1286 48.1981C33.1286 47.6942 33.576 47.2847 34.1259 47.2847C34.6767 47.2847 35.125 47.6942 35.125 48.1981C35.125 48.702 34.6767 49.1115 34.1259 49.1115Z" fill="black"/>
<path d="M27.5173 18.7979C27.5173 18.6157 27.4423 18.4409 27.3087 18.3121C27.1751 18.1832 26.9939 18.1108 26.805 18.1108C26.6161 18.1108 26.4349 18.1832 26.3013 18.3121C26.1677 18.4409 26.0927 18.6157 26.0927 18.7979V21.3667H25.6197C23.0715 21.3667 20.9944 23.2493 20.7427 25.645H18.1498C17.9609 25.645 17.7797 25.7174 17.6461 25.8462C17.5125 25.9751 17.4375 26.1499 17.4375 26.3321C17.4375 26.5143 17.5125 26.6891 17.6461 26.8179C17.7797 26.9468 17.9609 27.0192 18.1498 27.0192H20.6933V29.9599H18.1489C17.9599 29.9599 17.7788 30.0323 17.6452 30.1612C17.5116 30.29 17.4365 30.4648 17.4365 30.647C17.4365 30.8292 17.5116 31.004 17.6452 31.1329C17.7788 31.2617 17.9599 31.3341 18.1489 31.3341H20.6933V34.0999H18.1489C17.9599 34.0999 17.7788 34.1723 17.6452 34.3011C17.5116 34.43 17.4365 34.6047 17.4365 34.787C17.4365 34.9692 17.5116 35.144 17.6452 35.2728C17.7788 35.4017 17.9599 35.4741 18.1489 35.4741H20.7009C20.7427 38.0594 22.929 40.1518 25.6197 40.1518H26.0927V42.6693C26.0927 42.8515 26.1677 43.0263 26.3013 43.1551C26.4349 43.284 26.6161 43.3564 26.805 43.3564C26.9939 43.3564 27.1751 43.284 27.3087 43.1551C27.4423 43.0263 27.5173 42.8515 27.5173 42.6693V40.1518H30.5157V42.6693C30.5157 42.8515 30.5908 43.0263 30.7244 43.1551C30.8579 43.284 31.0391 43.3564 31.228 43.3564C31.417 43.3564 31.5981 43.284 31.7317 43.1551C31.8653 43.0263 31.9404 42.8515 31.9404 42.6693V40.1518H35.1259V42.6693C35.1259 42.8515 35.2009 43.0263 35.3345 43.1551C35.4681 43.284 35.6493 43.3564 35.8382 43.3564C36.0271 43.3564 36.2083 43.284 36.3419 43.1551C36.4755 43.0263 36.5505 42.8515 36.5505 42.6693V40.1518H36.8354C39.5252 40.1518 41.7115 38.0594 41.7533 35.4741H43.972C44.1609 35.4741 44.3421 35.4017 44.4756 35.2728C44.6092 35.144 44.6843 34.9692 44.6843 34.787C44.6843 34.6047 44.6092 34.43 44.4756 34.3011C44.3421 34.1723 44.1609 34.0999 43.972 34.0999H41.7619V31.3332H43.972C44.1609 31.3332 44.3421 31.2608 44.4756 31.1319C44.6092 31.0031 44.6843 30.8283 44.6843 30.6461C44.6843 30.4639 44.6092 30.2891 44.4756 30.1603C44.3421 30.0314 44.1609 29.959 43.972 29.959H41.7619V27.0183H43.972C44.1609 27.0183 44.3421 26.9459 44.4756 26.817C44.6092 26.6882 44.6843 26.5134 44.6843 26.3312C44.6843 26.1489 44.6092 25.9742 44.4756 25.8453C44.3421 25.7165 44.1609 25.6441 43.972 25.6441H41.7115C41.4608 23.2493 39.3837 21.3667 36.8354 21.3667H36.5505V18.7979C36.5505 18.6157 36.4755 18.4409 36.3419 18.3121C36.2083 18.1832 36.0271 18.1108 35.8382 18.1108C35.6493 18.1108 35.4681 18.1832 35.3345 18.3121C35.2009 18.4409 35.1259 18.6157 35.1259 18.7979V21.3667H31.9404V18.7979C31.9404 18.6157 31.8653 18.4409 31.7317 18.3121C31.5981 18.1832 31.417 18.1108 31.228 18.1108C31.0391 18.1108 30.8579 18.1832 30.7244 18.3121C30.5908 18.4409 30.5157 18.6157 30.5157 18.7979V21.3667H27.5173V18.7979ZM36.8354 22.7409C37.7639 22.7416 38.6542 23.0977 39.3107 23.731C39.9673 24.3643 40.3365 25.223 40.3372 26.1186V35.3999C40.3365 36.2955 39.9673 37.1542 39.3107 37.7875C38.6542 38.4208 37.7639 38.7769 36.8354 38.7776H25.6187C24.6905 38.7764 23.8006 38.4201 23.1443 37.7869C22.4881 37.1537 22.1189 36.2952 22.1179 35.3999V26.1186C22.1187 25.223 22.4879 24.3643 23.1444 23.731C23.801 23.0977 24.6912 22.7416 25.6197 22.7409H36.8354ZM12.343 30.0937C12.3425 29.539 12.1139 29.0072 11.7074 28.615C11.3009 28.2227 10.7497 28.002 10.1747 28.0013C9.261 28.0013 8.48124 28.5509 8.16117 29.3241C8.14788 29.3232 8.13648 29.3159 8.12318 29.3159H3.62321C3.43429 29.3159 3.25311 29.3883 3.11952 29.5171C2.98594 29.646 2.91089 29.8208 2.91089 30.003C2.91089 30.1852 2.98594 30.36 3.11952 30.4888C3.25311 30.6177 3.43429 30.6901 3.62321 30.6901H8.10609C8.23842 31.1207 8.51112 31.4987 8.88374 31.768C9.25636 32.0373 9.70905 32.1836 10.1747 32.1852C10.7495 32.1845 11.3006 31.9639 11.7071 31.5718C12.1135 31.1797 12.3422 30.6482 12.343 30.0937ZM10.1747 30.811C9.98191 30.8044 9.79935 30.7258 9.66542 30.5919C9.53149 30.4581 9.45664 30.2793 9.45664 30.0932C9.45664 29.9072 9.53149 29.7284 9.66542 29.5945C9.79935 29.4606 9.98191 29.3821 10.1747 29.3754C10.3674 29.3821 10.55 29.4606 10.6839 29.5945C10.8178 29.7284 10.8927 29.9072 10.8927 30.0932C10.8927 30.2793 10.8178 30.4581 10.6839 30.5919C10.55 30.7258 10.3674 30.8044 10.1747 30.811ZM39.094 47.511C38.9051 47.511 38.7239 47.5834 38.5903 47.7122C38.4567 47.8411 38.3816 48.0159 38.3816 48.1981C38.3816 48.3803 38.4567 48.5551 38.5903 48.6839C38.7239 48.8128 38.9051 48.8852 39.094 48.8852H42.3061C42.4156 48.8851 42.5237 48.8607 42.6218 48.8139C42.72 48.767 42.8057 48.6989 42.8721 48.6149L48.8784 41.0349C50.4807 41.4545 51.9452 40.3002 51.9452 38.839C51.9452 37.5784 50.8577 36.5514 49.5214 36.5514C47.4823 36.5514 46.3445 38.7959 47.6703 40.2965L41.9537 47.511H39.094ZM49.5224 37.9256C50.0723 37.9256 50.5196 38.336 50.5196 38.839C50.5196 39.3419 50.0723 39.7533 49.5224 39.7533C48.9715 39.7533 48.5251 39.3428 48.5251 38.839C48.5251 38.3351 48.9715 37.9256 49.5224 37.9256ZM35.6843 11.4506L40.5889 12.7616L44.0308 18.1978C44.0793 18.2754 44.1432 18.3429 44.2189 18.3966C44.2945 18.4502 44.3804 18.4889 44.4716 18.5105C44.5628 18.532 44.6575 18.5359 44.7503 18.522C44.8431 18.5081 44.9321 18.4766 45.0122 18.4294C45.0923 18.3822 45.162 18.3201 45.2172 18.2469C45.2723 18.1736 45.312 18.0905 45.3337 18.0024C45.3555 17.9143 45.359 17.8229 45.3441 17.7335C45.3291 17.6441 45.2959 17.5584 45.2465 17.4814L41.6583 11.8134C41.5639 11.6649 41.4146 11.5565 41.2404 11.5101L36.3283 10.1964C36.5486 8.75537 35.3586 7.58273 33.9396 7.58273C32.6042 7.58273 31.5177 8.60879 31.5177 9.87029C31.5177 11.927 34.1752 12.9366 35.6843 11.4506ZM33.9396 8.95692C34.4905 8.95692 34.9378 9.36734 34.9378 9.87029C34.9378 10.3742 34.4905 10.7837 33.9406 10.7837C33.3897 10.7837 32.9424 10.3742 32.9424 9.87029C32.9424 9.36642 33.3897 8.95692 33.9396 8.95692ZM48.7711 21.4785C48.7711 20.217 47.6846 19.1909 46.3492 19.1909C45.0129 19.1909 43.9264 20.217 43.9264 21.4785C43.9264 22.74 45.0129 23.766 46.3483 23.766C47.6846 23.766 48.7711 22.74 48.7711 21.4785ZM46.3492 22.3918C45.7983 22.3918 45.351 21.9823 45.351 21.4785C45.351 20.9746 45.7983 20.5651 46.3483 20.5651C46.8991 20.5651 47.3465 20.9746 47.3465 21.4785C47.3465 21.9823 46.8991 22.3918 46.3492 22.3918ZM25.1752 9.68157C25.1752 10.9431 26.2617 11.97 27.5981 11.97C28.9334 11.97 30.0199 10.944 30.0199 9.68157C30.0199 8.41915 28.9334 7.39401 27.5981 7.39401C26.2617 7.39401 25.1752 8.42007 25.1752 9.68157ZM28.5953 9.68157C28.5953 10.1854 28.1489 10.5959 27.5981 10.5959C27.0472 10.5959 26.5999 10.1864 26.5999 9.68157C26.5999 9.1777 27.0472 8.7682 27.5981 8.7682C28.1489 8.7682 28.5953 9.17862 28.5953 9.68157ZM16.6293 19.3961L20.9497 12.5728L23.3612 11.9279C23.4537 11.906 23.5408 11.8664 23.6172 11.8115C23.6937 11.7565 23.7579 11.6873 23.8061 11.608C23.8543 11.5287 23.8855 11.4408 23.8979 11.3497C23.9102 11.2585 23.9035 11.1659 23.8781 11.0773C23.8526 10.9887 23.809 10.9059 23.7498 10.8338C23.6906 10.7618 23.617 10.7019 23.5334 10.6578C23.4498 10.6136 23.3578 10.5862 23.263 10.5769C23.1681 10.5677 23.0723 10.577 22.9813 10.6041L20.2982 11.3214C20.1241 11.3677 19.9747 11.4761 19.8803 11.6247L15.292 18.8712C13.798 18.7466 12.6564 19.8588 12.6564 21.1395C12.6564 22.401 13.7429 23.4271 15.0783 23.4271C17.3207 23.4271 18.3702 20.7795 16.6293 19.3961ZM14.081 21.1395C14.081 20.6356 14.5284 20.2261 15.0783 20.2261C15.6292 20.2261 16.0765 20.6356 16.0765 21.1395C16.0765 21.6434 15.6292 22.0529 15.0792 22.0529C14.5284 22.0529 14.081 21.6425 14.081 21.1395ZM12.0163 40.9387C13.3516 40.9387 14.4381 39.9127 14.4381 38.6503C14.4381 37.3878 13.3516 36.3627 12.0163 36.3627C10.6799 36.3627 9.59246 37.3888 9.59246 38.6503C9.59246 39.9118 10.6799 40.9387 12.0163 40.9387ZM12.0163 37.7369C12.5662 37.7369 13.0135 38.1464 13.0135 38.6503C13.0135 39.1541 12.5662 39.5636 12.0163 39.5636C11.4654 39.5636 11.0171 39.1541 11.0171 38.6503C11.0171 38.1464 11.4654 37.7369 12.0163 37.7369Z" fill="black"/>
<path d="M26.2323 34.0862C26.5486 34.0862 26.7642 34.0046 27.013 33.4687L27.5857 32.1651H31.589C32.1161 33.291 32.2025 33.6922 32.4912 33.9341C32.7809 34.1787 33.5379 34.175 33.6262 33.6363C33.6832 33.2836 33.6509 33.4989 30.4473 26.595C30.2764 26.2267 30.0161 25.9886 29.5983 25.9886C29.1699 25.9886 28.9106 26.2194 28.7359 26.595L25.6624 33.1655C25.4231 33.6986 25.6881 34.0862 26.2323 34.0862ZM29.5755 27.6403H29.5992L31.0827 31.0208H28.1024L29.5755 27.6403ZM35.559 34.0862C36.0585 34.0862 36.3036 33.8058 36.3036 33.3441V26.7297C36.3036 26.2414 36.03 25.9886 35.558 25.9886C35.0774 25.9886 34.8134 26.2506 34.8134 26.7306V33.345C34.8134 33.8003 35.0679 34.0862 35.559 34.0862Z" fill="black"/>
</svg>
