<svg width="111" height="111" viewBox="0 0 111 111" fill="none" xmlns="http://www.w3.org/2000/svg">
<g clip-path="url(#clip0_24_59)">
<path d="M109.728 52.4308L109.724 52.4267L87.0682 29.8798C85.3709 28.1908 82.6256 28.1971 80.9361 29.8946C79.2468 31.5919 79.2534 34.3372 80.9507 36.0265L96.162 51.1641H4.33594C1.9412 51.1641 0 53.1053 0 55.5C0 57.8948 1.9412 59.836 4.33594 59.836H96.1618L80.9509 74.9736C79.2536 76.6629 79.2471 79.4082 80.9363 81.1055C82.6258 82.8032 85.3714 82.809 87.0684 81.1202L109.725 58.5733L109.728 58.5692C111.427 56.8743 111.421 54.1201 109.728 52.4308Z" fill="black"/>
</g>
<defs>
<clipPath id="clip0_24_59">
<rect width="111" height="111" fill="white"/>
</clipPath>
</defs>
</svg>
