<svg width="33" height="31" viewBox="0 0 33 31" fill="none" xmlns="http://www.w3.org/2000/svg">
<path d="M25.0312 23.6375C24.0538 22.4841 23.2929 21.1985 22.7781 19.8303C22.6803 19.5951 22.4834 19.4026 22.2287 19.2933C21.9741 19.184 21.6815 19.1663 21.4125 19.2441C21.1434 19.3219 20.9189 19.4889 20.786 19.7103C20.6532 19.9316 20.6223 20.1899 20.7 20.4309C21.0644 21.4126 21.5446 22.3575 22.1328 23.25H3.22188C4.7603 20.8947 5.56783 18.221 5.5625 15.5V13.0781C5.56073 11.663 6.10049 10.2892 7.0937 9.18076C8.0869 8.07234 9.47492 7.29479 11.0312 6.97497C11.5671 6.85091 12.1181 6.78584 12.6719 6.78122H12.8141C13.1011 6.81133 13.3899 6.73958 13.6174 6.58165C13.8449 6.42373 13.9926 6.19247 14.0281 5.93841C14.0481 5.81103 14.0392 5.68141 14.0019 5.55711C13.9647 5.43281 13.9 5.31632 13.8114 5.21442C13.7228 5.11253 13.6122 5.02727 13.4861 4.96363C13.3599 4.89998 13.2207 4.85922 13.0766 4.84372C12.4446 4.7852 11.8061 4.81462 11.1844 4.93091C11.0927 4.75077 11.0407 4.55677 11.0312 4.35934C11.0313 3.97395 11.2041 3.60434 11.5118 3.33183C11.8195 3.05932 12.2368 2.90622 12.6719 2.90622C12.9263 2.9077 13.1769 2.96087 13.4044 3.06164C13.632 3.16242 13.8304 3.3081 13.9844 3.48747C14.0616 3.60519 14.1659 3.70718 14.2906 3.78679C14.4153 3.8664 14.5575 3.92184 14.708 3.9495C14.8585 3.97716 15.0139 3.97642 15.164 3.94732C15.3141 3.91821 15.4557 3.86141 15.5794 3.78061C15.7031 3.69981 15.8062 3.59682 15.8819 3.47837C15.9576 3.35991 16.0044 3.22865 16.019 3.09313C16.0336 2.95762 16.0158 2.82089 15.9668 2.69187C15.9177 2.56285 15.8386 2.44444 15.7344 2.34434C15.1891 1.69424 14.3985 1.2391 13.5063 1.06172C12.6141 0.88433 11.6797 0.996487 10.873 1.37778C10.0663 1.75908 9.44099 2.38418 9.11073 3.13938C8.78046 3.89457 8.76723 4.72968 9.07344 5.49278C7.3828 6.11584 5.93889 7.16918 4.9245 8.51945C3.91011 9.86973 3.37085 11.4562 3.375 13.0781V15.5C3.38215 18.4355 2.30682 21.2928 0.312501 23.6375C0.190627 23.7814 0.116412 23.9525 0.09817 24.1317C0.0799285 24.3109 0.118382 24.491 0.209221 24.652C0.30006 24.8129 0.439696 24.9482 0.612482 25.0428C0.785268 25.1374 0.984378 25.1875 1.1875 25.1875H6.65625C6.65625 26.6006 7.29004 27.9558 8.41819 28.955C9.54633 29.9542 11.0764 30.5156 12.6719 30.5156C14.2673 30.5156 15.7974 29.9542 16.9256 28.955C18.0537 27.9558 18.6875 26.6006 18.6875 25.1875H24.1562C24.3582 25.1869 24.5561 25.1369 24.7279 25.0428C24.8997 24.9488 25.0388 24.8144 25.1297 24.6547C25.2218 24.4938 25.2614 24.3134 25.244 24.1336C25.2266 23.9539 25.1529 23.7821 25.0312 23.6375ZM12.6719 28.0937C11.754 28.0904 10.868 27.7952 10.1754 27.2617C9.48273 26.7282 9.02956 25.9921 8.89844 25.1875H16.5C16.3676 26.0004 15.9065 26.7431 15.2024 27.2776C14.4983 27.8121 13.5991 28.1021 12.6719 28.0937Z" fill="#011839"/>
<path d="M24.1563 1.9375C22.4257 1.9375 20.7339 2.39203 19.295 3.24361C17.8561 4.09519 16.7346 5.30558 16.0723 6.7217C15.41 8.13783 15.2368 9.6961 15.5744 11.1994C15.912 12.7028 16.7454 14.0837 17.9691 15.1676C19.1928 16.2514 20.7519 16.9896 22.4492 17.2886C24.1465 17.5876 25.9059 17.4341 27.5047 16.8476C29.1036 16.261 30.4702 15.2676 31.4316 13.9932C32.3931 12.7187 32.9063 11.2203 32.9063 9.6875C32.9063 7.63207 31.9844 5.66083 30.3434 4.20742C28.7025 2.75402 26.4769 1.9375 24.1563 1.9375ZM25.5234 13.5625H22.7891C22.499 13.5625 22.2208 13.4604 22.0157 13.2788C21.8105 13.0971 21.6953 12.8507 21.6953 12.5937C21.6953 12.3368 21.8105 12.0904 22.0157 11.9087C22.2208 11.7271 22.499 11.625 22.7891 11.625H23.0625V8.20531C22.7904 8.2741 22.4987 8.24679 22.2489 8.12911C21.999 8.01144 21.8103 7.81257 21.7226 7.57428C21.6348 7.33599 21.6547 7.07684 21.7781 6.85128C21.9015 6.62572 22.1188 6.45131 22.3844 6.36469L23.7516 5.88031C23.9172 5.8218 24.0964 5.80004 24.2737 5.81692C24.451 5.8338 24.621 5.88882 24.7688 5.97719C24.9172 6.06605 25.0387 6.18585 25.1226 6.32605C25.2065 6.46625 25.2503 6.62257 25.25 6.78125V11.625H25.5234C25.8135 11.625 26.0917 11.7271 26.2968 11.9087C26.502 12.0904 26.6172 12.3368 26.6172 12.5937C26.6172 12.8507 26.502 13.0971 26.2968 13.2788C26.0917 13.4604 25.8135 13.5625 25.5234 13.5625Z" fill="#B338C8"/>
</svg>
