<svg width="47" height="53" viewBox="0 0 47 53" fill="none" xmlns="http://www.w3.org/2000/svg">
<path d="M37.5941 12.5174C37.4599 12.5174 37.3283 12.4789 37.2139 12.4064C37.0994 12.3338 37.0064 12.2299 36.9451 12.1061C36.8839 11.9823 36.8568 11.8433 36.8667 11.7046C36.8767 11.5658 36.9233 11.4325 37.0016 11.3195C37.4456 10.6762 37.6826 9.90394 37.6787 9.11278C37.6774 8.19695 37.3614 7.31159 36.7875 6.6155C36.2136 5.91941 35.4194 5.45816 34.5472 5.31447C33.675 5.17078 32.782 5.35407 32.0283 5.83145C31.2747 6.30883 30.7097 7.04907 30.4347 7.91938C30.3714 8.10602 30.24 8.25951 30.0689 8.34695C29.8977 8.43439 29.7003 8.44883 29.519 8.38718C29.3377 8.32553 29.1869 8.19269 29.0989 8.01712C29.0109 7.84156 28.9927 7.63723 29.0482 7.44792C29.4311 6.2352 30.2183 5.20371 31.2684 4.53858C32.3185 3.87345 33.5629 3.61823 34.7781 3.81873C35.9933 4.01923 37.0998 4.66231 37.899 5.63257C38.6983 6.60282 39.1379 7.83672 39.1389 9.11278C39.1441 10.2203 38.8121 11.3014 38.1903 12.2019C38.1224 12.3 38.0329 12.3798 37.9291 12.4347C37.8254 12.4896 37.7105 12.518 37.5941 12.5174Z" fill="white"/>
<path d="M43.2831 21.2663C43.1631 21.2663 43.045 21.2356 42.9393 21.177C42.8335 21.1184 42.7432 21.0336 42.6766 20.9302C42.6099 20.8268 42.5688 20.7079 42.557 20.5841C42.5452 20.4604 42.563 20.3355 42.6088 20.2205C42.8639 19.5702 42.9929 18.874 42.9883 18.172C42.9966 17.4243 42.8618 16.6824 42.5917 15.9892C42.3216 15.296 41.9216 14.6653 41.4147 14.1336C40.9079 13.6018 40.3043 13.1797 39.6391 12.8916C38.9738 12.6035 38.26 12.4551 37.539 12.4551C36.8181 12.4551 36.1043 12.6035 35.439 12.8916C34.7737 13.1797 34.1702 13.6018 33.6633 14.1336C33.1565 14.6653 32.7564 15.296 32.4863 15.9892C32.2162 16.6824 32.0814 17.4243 32.0898 18.172C32.0898 18.3727 32.0129 18.5651 31.876 18.7071C31.7392 18.849 31.5536 18.9287 31.36 18.9287C31.1665 18.9287 30.9809 18.849 30.844 18.7071C30.7072 18.5651 30.6303 18.3727 30.6303 18.172C30.6209 17.2249 30.7927 16.2853 31.1357 15.4075C31.4787 14.5297 31.9861 13.7312 32.6285 13.058C33.271 12.3849 34.0358 11.8505 34.8786 11.4858C35.7215 11.1211 36.6257 10.9333 37.539 10.9333C38.4523 10.9333 39.3565 11.1211 40.1994 11.4858C41.0423 11.8505 41.8071 12.3849 42.4495 13.058C43.092 13.7312 43.5994 14.5297 43.9424 15.4075C44.2854 16.2853 44.4571 17.2249 44.4477 18.172C44.4529 19.0734 44.2865 19.967 43.9581 20.8017C43.9024 20.9396 43.8086 21.0574 43.6885 21.1401C43.5683 21.2228 43.4273 21.2667 43.2831 21.2663Z" fill="white"/>
<path d="M39.5461 32.7683C39.309 32.7683 39.074 32.7554 38.8427 32.732C38.7473 32.722 38.6548 32.6927 38.5704 32.6457C38.486 32.5987 38.4113 32.5349 38.3506 32.4579C38.29 32.381 38.2446 32.2924 38.2169 32.1972C38.1893 32.1021 38.18 32.0022 38.1896 31.9033C38.1992 31.8044 38.2274 31.7085 38.2728 31.6209C38.3181 31.5334 38.3796 31.4559 38.4538 31.3931C38.528 31.3302 38.6135 31.283 38.7052 31.2544C38.797 31.2257 38.8933 31.2161 38.9886 31.226C39.1711 31.2447 39.3562 31.2543 39.544 31.2548C40.6841 31.256 41.7959 30.886 42.7224 30.1969C43.6489 29.5078 44.3434 28.5345 44.7079 27.4141C45.0723 26.2938 45.0884 25.083 44.7539 23.9527C44.4193 22.8224 43.7509 21.8295 42.8431 21.1142C42.6882 20.9938 42.5859 20.8145 42.5585 20.6159C42.5311 20.4172 42.581 20.2153 42.6971 20.0548C42.8132 19.8942 42.9861 19.7881 43.1777 19.7597C43.3693 19.7313 43.5639 19.783 43.7187 19.9034C44.869 20.8108 45.7158 22.0695 46.14 23.5022C46.5642 24.9349 46.5444 26.4696 46.0834 27.89C45.6224 29.3104 44.7434 30.5452 43.5701 31.4203C42.3968 32.2954 40.9884 32.7669 39.5432 32.7683H39.5461ZM36.8629 48.6352C36.6796 48.6353 36.5029 48.5637 36.3681 48.4348C36.2333 48.3059 36.1502 48.1291 36.1354 47.9396C36.1206 47.75 36.1751 47.5617 36.2882 47.4119C36.4012 47.2622 36.5645 47.1621 36.7454 47.1315C38.0187 46.9179 39.1766 46.24 40.0108 45.2197C40.8449 44.1995 41.3004 42.9039 41.2953 41.5663C41.2954 41.0121 41.2182 40.4608 41.0662 39.9295C41.039 39.8342 41.0302 39.7343 41.0403 39.6354C41.0503 39.5366 41.0791 39.4408 41.1249 39.3535C41.1706 39.2662 41.2325 39.1891 41.307 39.1266C41.3816 39.0641 41.4672 39.0174 41.5591 38.9892C41.651 38.961 41.7474 38.9519 41.8427 38.9624C41.938 38.9728 42.0303 39.0026 42.1145 39.0501C42.1987 39.0975 42.2731 39.1617 42.3334 39.239C42.3936 39.3163 42.4386 39.4051 42.4658 39.5004C42.6584 40.1709 42.7567 40.8667 42.7577 41.5663C42.7639 43.2632 42.1858 44.9066 41.1274 46.2007C40.0691 47.4948 38.6001 48.3546 36.9848 48.6254C36.9445 48.6318 36.9037 48.6351 36.8629 48.6352Z" fill="white"/>
<path d="M41.7638 40.4721C41.5968 40.4722 41.4348 40.4129 41.3049 40.3042C41.1749 40.1954 41.0849 40.0437 41.0498 39.8744C41.0147 39.705 41.0366 39.5284 41.112 39.3738C41.1874 39.2193 41.3116 39.0962 41.4639 39.0252C42.416 38.5785 43.2239 37.8567 43.7908 36.9462C44.3576 36.0357 44.6594 34.9751 44.6601 33.8913C44.6649 32.6307 44.2568 31.4058 43.5027 30.417C43.3879 30.259 43.3373 30.0605 43.3618 29.8642C43.3864 29.668 43.4841 29.4895 43.6341 29.367C43.784 29.2446 43.9743 29.1879 44.164 29.2092C44.3538 29.2305 44.5279 29.3281 44.6491 29.4809C45.2945 30.3334 45.7444 31.3269 45.9648 32.3864C46.1851 33.4458 46.1701 34.5433 45.921 35.5959C45.6718 36.6484 45.1949 37.6284 44.5265 38.4615C43.8581 39.2946 43.0157 39.9592 42.063 40.4047C41.969 40.4489 41.867 40.4718 41.7638 40.4721ZM30.3661 52.9828C28.2803 52.9804 26.2806 52.12 24.8057 50.5905C23.3309 49.061 22.5013 46.9872 22.4989 44.8242V4.80537C22.4664 4.12834 22.5722 3.45181 22.8095 2.82019C23.0469 2.18857 23.4103 1.61612 23.8759 1.1404C24.3893 0.664287 25.005 0.322388 25.6717 0.143223C26.3384 -0.0359415 27.0367 -0.0471786 27.7085 0.11045C30.9396 0.904148 33.9707 2.40219 36.6002 4.50494C36.7512 4.63088 36.8477 4.81385 36.8686 5.0136C36.8895 5.21335 36.833 5.41352 36.7115 5.57007C36.5901 5.72662 36.4136 5.82673 36.221 5.84837C36.0284 5.87001 35.8354 5.81142 35.6844 5.68548C33.232 3.74209 30.4167 2.34868 27.4173 1.59369C26.9744 1.48436 26.5127 1.48623 26.0707 1.59916C25.6286 1.71209 25.2189 1.93282 24.8757 2.24299C24.5583 2.57969 24.3126 2.98175 24.1546 3.42316C23.9966 3.86456 23.9298 4.33547 23.9584 4.80537V44.8242C23.959 46.3427 24.4609 47.8152 25.3807 48.9967C26.3005 50.1782 27.5827 50.9975 29.014 51.3182C30.4452 51.6389 31.9392 51.4417 33.2473 50.7595C34.5555 50.0772 35.5989 48.951 36.204 47.5682C36.284 47.3853 36.4308 47.243 36.6121 47.1723C36.7933 47.1017 36.9942 47.1087 37.1705 47.1917C37.3468 47.2747 37.4841 47.4269 37.5522 47.6149C37.6203 47.8029 37.6136 48.0112 37.5336 48.194C36.9068 49.6204 35.898 50.83 34.6274 51.679C33.3568 52.528 31.8777 52.9805 30.3661 52.9828ZM8.8632 12.5175C8.74725 12.5175 8.63296 12.4889 8.52978 12.4341C8.42661 12.3792 8.33753 12.2996 8.26993 12.2019C7.64813 11.3014 7.31616 10.2204 7.32129 9.11283C7.32237 7.83676 7.76197 6.60287 8.5612 5.63261C9.36043 4.66236 10.4669 4.01927 11.6822 3.81877C12.8974 3.61828 14.1417 3.8735 15.1918 4.53863C16.2419 5.20376 17.0291 6.23525 17.412 7.44796C17.4442 7.543 17.4579 7.64377 17.4521 7.74434C17.4463 7.84492 17.4212 7.94329 17.3783 8.03367C17.3353 8.12405 17.2754 8.20464 17.2021 8.27069C17.1287 8.33674 17.0433 8.38694 16.951 8.41833C16.8587 8.44973 16.7613 8.46168 16.6644 8.45351C16.5676 8.44533 16.4733 8.41718 16.3871 8.37071C16.3009 8.32424 16.2245 8.26038 16.1624 8.18289C16.1003 8.10539 16.0538 8.01582 16.0255 7.91942C15.7514 7.04798 15.1865 6.30649 14.4325 5.82818C13.6785 5.34987 12.7847 5.16609 11.9117 5.30988C11.0387 5.45367 10.2438 5.91558 9.66982 6.61264C9.0958 7.30969 8.78031 8.19618 8.78002 9.11283C8.77613 9.90398 9.01312 10.6762 9.45721 11.3195C9.53543 11.4326 9.58209 11.5658 9.59204 11.7046C9.60199 11.8434 9.57486 11.9823 9.51361 12.1061C9.45237 12.2299 9.35939 12.3338 9.24491 12.4064C9.13042 12.479 8.99885 12.5174 8.86466 12.5175H8.8632Z" fill="white"/>
<path d="M3.17423 21.2663C3.02971 21.2665 2.8884 21.2221 2.76823 21.1388C2.64806 21.0556 2.55444 20.9372 2.49923 20.7987C2.17124 19.9649 2.00485 19.0724 2.00958 18.172C2.0002 17.2249 2.17196 16.2853 2.51495 15.4075C2.85794 14.5297 3.36533 13.7312 4.0078 13.058C4.65027 12.3849 5.41505 11.8505 6.25792 11.4858C7.10078 11.1211 8.00501 10.9333 8.9183 10.9333C9.83159 10.9333 10.7358 11.1211 11.5787 11.4858C12.4215 11.8505 13.1863 12.3849 13.8288 13.058C14.4713 13.7312 14.9787 14.5297 15.3216 15.4075C15.6646 16.2853 15.8364 17.2249 15.827 18.172C15.827 18.3727 15.7501 18.5651 15.6133 18.7071C15.4764 18.849 15.2908 18.9287 15.0973 18.9287C14.9037 18.9287 14.7181 18.849 14.5813 18.7071C14.4444 18.5651 14.3676 18.3727 14.3676 18.172C14.3759 17.4243 14.2411 16.6824 13.971 15.9892C13.7009 15.296 13.3008 14.6653 12.794 14.1336C12.2872 13.6018 11.6836 13.1797 11.0183 12.8916C10.3531 12.6035 9.63926 12.4551 8.9183 12.4551C8.19734 12.4551 7.48354 12.6035 6.81826 12.8916C6.15298 13.1797 5.54944 13.6018 5.0426 14.1336C4.53576 14.6653 4.1357 15.296 3.86559 15.9892C3.59549 16.6824 3.4607 17.4243 3.46904 18.172C3.46406 18.875 3.59302 19.5722 3.8485 20.2235C3.92149 20.4086 3.92086 20.6162 3.84675 20.8008C3.77264 20.9854 3.63107 21.1321 3.45299 21.2088C3.36454 21.2465 3.26986 21.2661 3.17423 21.2663Z" fill="white"/>
<path d="M6.91116 32.7683C5.46441 32.7702 4.05368 32.3006 2.87825 31.4259C1.70283 30.5512 0.822145 29.3156 0.36063 27.8936C-0.100885 26.4717 -0.1199 24.9353 0.306271 23.5015C0.732443 22.0678 1.58225 20.8091 2.73564 19.9034C2.89047 19.783 3.08509 19.7313 3.27668 19.7597C3.46827 19.7881 3.64114 19.8942 3.75726 20.0548C3.87339 20.2153 3.92325 20.4172 3.89588 20.6159C3.86851 20.8145 3.76615 20.9938 3.61132 21.1142C2.70615 21.831 2.04032 22.8238 1.70742 23.9533C1.37452 25.0827 1.39128 26.292 1.75536 27.411C2.11943 28.5301 2.81251 29.5027 3.73717 30.1921C4.66182 30.8816 5.77157 31.2532 6.91043 31.2548C7.09821 31.2548 7.28332 31.2452 7.46575 31.226C7.5611 31.2161 7.65741 31.2257 7.74917 31.2544C7.84092 31.283 7.92634 31.3302 8.00054 31.3931C8.07474 31.4559 8.13627 31.5334 8.18161 31.6209C8.22695 31.7085 8.25522 31.8044 8.2648 31.9033C8.27439 32.0022 8.2651 32.1021 8.23746 32.1972C8.20982 32.2924 8.16439 32.381 8.10374 32.4579C8.04309 32.5349 7.96843 32.5987 7.884 32.6457C7.79958 32.6927 7.70705 32.722 7.6117 32.732C7.3789 32.756 7.1451 32.7681 6.91116 32.7683ZM9.59437 48.6352C9.55455 48.6349 9.51479 48.6316 9.47543 48.6254C7.86014 48.3546 6.39111 47.4948 5.33278 46.2007C4.27445 44.9066 3.69635 43.2632 3.70253 41.5663C3.70356 40.8667 3.80187 40.1709 3.99443 39.5004C4.02159 39.4051 4.0666 39.3163 4.12687 39.239C4.18713 39.1617 4.26149 39.0975 4.34568 39.0501C4.42988 39.0026 4.52226 38.9728 4.61756 38.9624C4.71286 38.9519 4.80922 38.961 4.90112 38.9892C4.99302 39.0174 5.07867 39.0641 5.15317 39.1266C5.22768 39.1891 5.28959 39.2662 5.33536 39.3535C5.38114 39.4408 5.40988 39.5366 5.41995 39.6354C5.43002 39.7343 5.42122 39.8342 5.39405 39.9295C5.24202 40.4608 5.16484 41.0121 5.16491 41.5663C5.15983 42.9039 5.61535 44.1995 6.44947 45.2197C7.28359 46.24 8.44151 46.9179 9.71478 47.1315C9.89576 47.1621 10.059 47.2622 10.1721 47.4119C10.2851 47.5617 10.3397 47.75 10.3248 47.9396C10.31 48.1291 10.227 48.3059 10.0921 48.4348C9.95733 48.5637 9.78066 48.6353 9.59729 48.6352H9.59437Z" fill="white"/>
<path d="M4.69351 40.4721C4.59031 40.4719 4.48833 40.4489 4.39432 40.4048C3.44139 39.9595 2.59867 39.2952 1.92996 38.4622C1.26125 37.6292 0.784088 36.6493 0.534616 35.5967C0.285144 34.5442 0.269902 33.4465 0.490042 32.3869C0.710182 31.3274 1.15993 30.3336 1.80523 29.481C1.86369 29.4006 1.93705 29.333 2.021 29.2824C2.10496 29.2317 2.19781 29.1989 2.29414 29.186C2.39046 29.173 2.48831 29.1802 2.58194 29.2069C2.67558 29.2337 2.76311 29.2796 2.83943 29.3419C2.91574 29.4042 2.97929 29.4817 3.02635 29.5698C3.07341 29.6579 3.10303 29.7549 3.11348 29.855C3.12393 29.9552 3.115 30.0565 3.08721 30.153C3.05942 30.2495 3.01333 30.3393 2.95164 30.4171C2.19755 31.4058 1.7895 32.6308 1.79429 33.8914C1.79495 34.9751 2.09677 36.0358 2.66362 36.9462C3.23047 37.8567 4.03834 38.5785 4.99051 39.0252C5.14281 39.0962 5.26701 39.2193 5.34238 39.3739C5.41774 39.5284 5.43971 39.7051 5.40461 39.8744C5.36951 40.0437 5.27948 40.1954 5.14953 40.3042C5.01958 40.413 4.85759 40.4723 4.69059 40.4721H4.69351ZM16.0912 52.9828C14.58 52.9801 13.1014 52.5274 11.8312 51.6784C10.561 50.8295 9.55257 49.6201 8.92594 48.1941C8.84591 48.0112 8.8392 47.8029 8.90728 47.6149C8.97537 47.427 9.11267 47.2747 9.28898 47.1917C9.46529 47.1088 9.66617 47.1018 9.84743 47.1724C10.0287 47.243 10.1755 47.3854 10.2555 47.5682C10.8613 48.9497 11.9048 50.0745 13.2124 50.7558C14.5201 51.4371 16.0132 51.6338 17.4436 51.3132C18.874 50.9927 20.1555 50.1741 21.0751 48.9936C21.9948 47.8131 22.4972 46.3418 22.4989 44.8242V4.80542C22.5275 4.33552 22.4607 3.86462 22.3027 3.42321C22.1447 2.98181 21.899 2.57974 21.5816 2.24304C21.2386 1.93283 20.829 1.71207 20.387 1.59913C19.9451 1.48619 19.4835 1.48435 19.0407 1.59375C16.0409 2.34532 13.2251 3.73708 10.7729 5.68023C10.6215 5.79284 10.4343 5.84114 10.2497 5.81525C10.0651 5.78936 9.89706 5.69123 9.77997 5.54097C9.66288 5.39071 9.60564 5.1997 9.61997 5.00709C9.63431 4.81447 9.71914 4.63484 9.85707 4.50499C12.4868 2.40213 15.5182 0.904078 18.7496 0.110503C19.4212 -0.0470618 20.1194 -0.0357915 20.786 0.143373C21.4525 0.322538 22.0681 0.664403 22.5814 1.14045C23.047 1.61617 23.4105 2.18862 23.6478 2.82024C23.8851 3.45187 23.9909 4.12839 23.9584 4.80542V44.8242C23.9561 46.9873 23.1264 49.0611 21.6516 50.5906C20.1767 52.1201 18.177 52.9804 16.0912 52.9828Z" fill="white"/>
<path d="M23.2286 15.8752C23.1617 15.8752 23.0952 15.8656 23.0309 15.8464C22.9386 15.8194 22.8524 15.7739 22.7772 15.7124C22.7019 15.6508 22.6391 15.5745 22.5922 15.4878C22.5454 15.4011 22.5155 15.3057 22.5043 15.207C22.493 15.1083 22.5006 15.0082 22.5266 14.9126C22.9105 13.499 24.3743 10.9018 27.1378 11.1878C27.3304 11.2079 27.5074 11.3065 27.6298 11.4619C27.7523 11.6173 27.8103 11.8168 27.7909 12.0165C27.7716 12.2162 27.6765 12.3997 27.5266 12.5267C27.3768 12.6538 27.1844 12.7138 26.9919 12.6938C24.7414 12.4667 23.9379 15.2947 23.927 15.3235C23.8841 15.4816 23.7927 15.6209 23.6668 15.7204C23.5408 15.8199 23.387 15.8743 23.2286 15.8752ZM23.2286 19.6317C23.0701 19.6316 22.9158 19.5779 22.7893 19.4788C22.6628 19.3796 22.5708 19.2405 22.5274 19.0823C22.4945 18.965 21.6918 16.2119 19.4625 16.4503C19.2698 16.4704 19.0774 16.4103 18.9275 16.2832C18.7775 16.1561 18.6824 15.9724 18.6631 15.7726C18.6437 15.5728 18.7017 15.3732 18.8243 15.2178C18.9468 15.0623 19.1239 14.9637 19.3166 14.9436C22.0895 14.6583 23.5439 17.2555 23.9277 18.6691C23.9537 18.7648 23.9613 18.8648 23.9501 18.9635C23.9388 19.0622 23.9089 19.1576 23.8621 19.2444C23.8153 19.3311 23.7524 19.4074 23.6772 19.4689C23.6019 19.5304 23.5157 19.576 23.4235 19.603C23.3601 19.6218 23.2946 19.6315 23.2286 19.6317ZM33.2259 24.7481C32.2156 24.7491 31.2175 24.519 30.3026 24.0743C29.3878 23.6296 28.5788 22.9811 27.9332 22.1752C27.8691 22.0992 27.8204 22.0108 27.7897 21.915C27.7591 21.8192 27.7473 21.718 27.755 21.6174C27.7626 21.5168 27.7896 21.4188 27.8343 21.3292C27.879 21.2396 27.9405 21.1601 28.0153 21.0955C28.09 21.0309 28.1765 20.9825 28.2695 20.9531C28.3626 20.9236 28.4604 20.9138 28.5572 20.9241C28.654 20.9345 28.7478 20.9648 28.8331 21.0133C28.9185 21.0618 28.9936 21.1275 29.0541 21.2065C29.7678 22.0959 30.7286 22.7356 31.8055 23.0384C32.8824 23.3412 34.0231 23.2925 35.0724 22.8988C36.1216 22.5052 37.0284 21.7858 37.6692 20.8385C38.31 19.8913 38.6538 18.7622 38.6537 17.6051C38.6537 17.4606 38.6486 17.3168 38.6383 17.1745C38.6294 17.0745 38.6397 16.9736 38.6687 16.8778C38.6978 16.7819 38.7449 16.693 38.8074 16.6163C38.8699 16.5395 38.9465 16.4764 39.0328 16.4307C39.1191 16.385 39.2132 16.3575 39.3098 16.3499C39.4064 16.3423 39.5035 16.3548 39.5954 16.3865C39.6874 16.4182 39.7723 16.4686 39.8452 16.5348C39.9181 16.6009 39.9777 16.6814 40.0203 16.7716C40.0629 16.8618 40.0878 16.96 40.0934 17.0603C40.1066 17.2404 40.1131 17.422 40.1131 17.6051C40.1114 19.4989 39.3852 21.3146 38.094 22.6537C36.8028 23.9929 35.0521 24.7461 33.2259 24.7481Z" fill="white"/>
<path d="M37.5394 29.1449H37.5248C33.9739 29.073 32.3058 25.8356 31.9197 24.1336C31.8777 23.9393 31.9112 23.7356 32.013 23.5668C32.1148 23.3979 32.2767 23.2775 32.4636 23.2316C32.6504 23.1857 32.8472 23.218 33.0112 23.3215C33.1753 23.4251 33.2933 23.5915 33.3398 23.7848C33.3763 23.9361 34.2571 27.5648 37.5533 27.6314C37.7468 27.6333 37.9317 27.7148 38.0672 27.8581C38.2028 28.0014 38.2779 28.1946 38.2761 28.3953C38.2742 28.596 38.1956 28.7877 38.0574 28.9283C37.9193 29.0689 37.7329 29.1468 37.5394 29.1449ZM33.0902 39.3006H33.0297C32.8368 39.284 32.6582 39.1886 32.5331 39.0355C32.4081 38.8824 32.3467 38.684 32.3627 38.484C32.4681 37.6958 32.4179 36.8935 32.2152 36.126C32.0125 35.3585 31.6615 34.6417 31.1835 34.0192C30.03 32.7807 28.4911 32.0054 26.8394 31.8306C26.6463 31.8162 26.4667 31.7228 26.3401 31.571C26.2134 31.4192 26.1501 31.2215 26.164 31.0213C26.1779 30.8211 26.268 30.6348 26.4144 30.5034C26.5607 30.3721 26.7514 30.3064 26.9445 30.3209C28.9849 30.5253 30.8848 31.4894 32.2926 33.0346C32.8982 33.8069 33.3457 34.6991 33.6078 35.6567C33.8699 36.6143 33.9411 37.6173 33.817 38.6043C33.8024 38.7939 33.7195 38.9707 33.5848 39.0997C33.4501 39.2287 33.2736 39.3004 33.0902 39.3006Z" fill="white"/>
<path d="M28.4338 45.8534H28.3995C28.3038 45.8489 28.2098 45.8248 28.1231 45.7826C28.0363 45.7403 27.9584 45.6808 27.8938 45.6074C27.8293 45.534 27.7793 45.448 27.7467 45.3546C27.7141 45.2611 27.6997 45.1619 27.7041 45.0626C27.823 42.3973 29.4992 37.4254 34.9744 37.626C35.0702 37.6296 35.1644 37.6529 35.2516 37.6943C35.3387 37.7357 35.4172 37.7945 35.4825 37.8674C35.5477 37.9403 35.5985 38.0258 35.6319 38.119C35.6653 38.2122 35.6806 38.3113 35.6771 38.4107C35.6736 38.5101 35.6512 38.6078 35.6112 38.6982C35.5713 38.7886 35.5145 38.87 35.4443 38.9376C35.374 39.0053 35.2916 39.058 35.2017 39.0926C35.1118 39.1272 35.0162 39.1432 34.9204 39.1395C29.516 38.9374 29.1737 44.8795 29.1621 45.133C29.1531 45.3271 29.0724 45.5101 28.9369 45.6442C28.8013 45.7784 28.6212 45.8533 28.4338 45.8534ZM15.0112 25.6526C13.1852 25.6506 11.4346 24.8975 10.1433 23.5587C8.85203 22.2199 8.12555 20.4046 8.12323 18.511C8.12323 18.3271 8.1298 18.1448 8.14293 17.9654C8.1486 17.8651 8.17347 17.767 8.21608 17.6768C8.2587 17.5866 8.31821 17.506 8.39115 17.4399C8.46409 17.3738 8.54899 17.3234 8.64091 17.2917C8.73283 17.2599 8.82992 17.2475 8.92652 17.2551C9.02312 17.2627 9.11729 17.2901 9.20355 17.3359C9.28981 17.3816 9.36643 17.4447 9.42893 17.5214C9.49144 17.5982 9.53858 17.6871 9.56761 17.7829C9.59664 17.8788 9.60698 17.9797 9.59801 18.0797C9.5878 18.222 9.58269 18.3657 9.58269 18.511C9.58289 19.6679 9.92682 20.7966 10.5677 21.7436C11.2085 22.6905 12.1152 23.4097 13.1642 23.8032C14.2132 24.1967 15.3537 24.2454 16.4304 23.9428C17.5071 23.6401 18.4677 23.0007 19.1816 22.1117C19.2429 22.0353 19.3181 21.9722 19.403 21.926C19.4878 21.8798 19.5806 21.8513 19.676 21.8423C19.7715 21.8333 19.8677 21.8438 19.9592 21.8734C20.0507 21.9029 20.1357 21.9508 20.2094 22.0144C20.283 22.078 20.3439 22.1561 20.3884 22.2441C20.433 22.332 20.4604 22.4283 20.4691 22.5273C20.4778 22.6262 20.4677 22.726 20.4392 22.8209C20.4107 22.9158 20.3645 23.004 20.3032 23.0803C19.6576 23.8861 18.8486 24.5343 17.9339 24.9789C17.0193 25.4235 16.0213 25.6535 15.0112 25.6526Z" fill="white"/>
<path d="M10.6941 30.0531C10.5006 30.055 10.3142 29.9771 10.1761 29.8365C10.0379 29.6959 9.95927 29.5042 9.95743 29.3035C9.95559 29.1028 10.0307 28.9096 10.1663 28.7663C10.3018 28.623 10.4867 28.5415 10.6802 28.5396C13.9757 28.473 14.8572 24.8474 14.8937 24.693C14.9402 24.4997 15.0582 24.3333 15.2223 24.2298C15.3863 24.1262 15.5831 24.0939 15.7699 24.1398C15.9568 24.1857 16.1187 24.3061 16.2205 24.475C16.3223 24.6439 16.3558 24.8475 16.3137 25.0418C15.9314 26.74 14.2588 29.9774 10.7087 30.0531H10.6941ZM10.8451 41.2198C10.6617 41.2204 10.4847 41.1494 10.3494 41.0208C10.2142 40.8922 10.1306 40.7155 10.1154 40.5258C9.99011 39.5375 10.0607 38.5331 10.3228 37.5741C10.5849 36.6151 11.0331 35.7217 11.6398 34.9485C13.0473 33.4032 14.947 32.4391 16.9873 32.2348C17.1798 32.223 17.3692 32.2897 17.515 32.4206C17.6609 32.5515 17.7517 32.7363 17.7681 32.9356C17.7751 33.0347 17.7631 33.1343 17.733 33.2286C17.7028 33.323 17.655 33.4102 17.5923 33.4854C17.5297 33.5606 17.4533 33.6223 17.3676 33.6669C17.282 33.7115 17.1887 33.7381 17.0931 33.7453C15.439 33.9244 13.8983 34.7013 12.741 35.9399C12.2655 36.5627 11.9166 37.2789 11.7153 38.0454C11.514 38.8118 11.4645 39.6126 11.5698 40.3995C11.5857 40.5995 11.5244 40.7978 11.3993 40.951C11.2743 41.1041 11.0956 41.1994 10.9028 41.216L10.8451 41.2198Z" fill="white"/>
<path d="M15.5015 47.7717C15.3139 47.7719 15.1334 47.6972 14.9975 47.5631C14.8617 47.4289 14.7808 47.2456 14.7718 47.0513C14.7594 46.7978 14.4069 40.8391 9.01352 41.0563C8.81998 41.0637 8.63153 40.9911 8.48961 40.8544C8.3477 40.7177 8.26395 40.5282 8.25679 40.3275C8.24963 40.1268 8.31964 39.9314 8.45143 39.7842C8.58322 39.637 8.76598 39.5502 8.95952 39.5427C14.4274 39.3361 16.1109 44.3141 16.2298 46.9794C16.2342 47.0787 16.2197 47.1779 16.1872 47.2714C16.1546 47.3648 16.1046 47.4507 16.04 47.5242C15.9755 47.5976 15.8976 47.6571 15.8108 47.6993C15.724 47.7416 15.6301 47.7656 15.5344 47.7702L15.5015 47.7717ZM23.2287 45.5809H23.2243C23.1284 45.5803 23.0335 45.5601 22.9452 45.5215C22.8568 45.4829 22.7767 45.4266 22.7093 45.3558C22.6419 45.285 22.5887 45.2012 22.5526 45.109C22.5165 45.0169 22.4982 44.9183 22.4989 44.8188C22.5469 43.3347 22.0872 41.8808 21.2011 40.7143C20.315 39.5478 19.0597 38.7439 17.6572 38.4447C17.4671 38.4067 17.2994 38.2919 17.191 38.1256C17.0825 37.9594 17.0422 37.7552 17.0789 37.5581C17.1155 37.3611 17.2262 37.1871 17.3865 37.0747C17.5468 36.9622 17.7437 36.9204 17.9337 36.9584C17.9943 36.9705 23.9985 38.2449 23.9584 44.8287C23.9572 45.0286 23.8798 45.2199 23.7431 45.3609C23.6064 45.5018 23.4214 45.5809 23.2287 45.5809Z" fill="white"/>
</svg>
