<svg width="40" height="50" viewBox="0 0 40 50" fill="none" xmlns="http://www.w3.org/2000/svg">
<path fill-rule="evenodd" clip-rule="evenodd" d="M22.1767 35.2459H22.0987C20.3807 35.2459 18.7409 34.3237 17.4915 32.6844C16.2421 31.045 15.5393 28.8934 15.5393 26.6393C15.4612 24.2828 16.164 22.1311 17.4915 20.3893C18.7409 18.75 20.3807 17.9303 22.1767 17.9303C23.8947 17.9303 25.5345 18.75 26.862 20.3893C28.1114 22.1311 28.7361 24.2828 28.7361 26.6393C28.7361 28.8934 28.1114 31.045 26.862 32.6844C25.6126 34.3237 23.8947 35.2459 22.1767 35.2459ZM22.1767 19.3647C20.6931 19.3647 19.2875 20.0819 18.2724 21.4139C17.1792 22.8483 16.5545 24.6926 16.6325 26.6393C16.6325 28.586 17.1792 30.3278 18.2724 31.6598C19.2875 33.0942 20.615 33.8114 22.0987 33.8114C23.5823 33.8114 24.9879 33.0942 26.0811 31.6598C28.1895 28.8934 28.1895 24.2828 26.0811 21.4139C24.9879 20.0819 23.5823 19.3647 22.1767 19.3647Z" fill="black"/>
<path fill-rule="evenodd" clip-rule="evenodd" d="M37.7161 50H37.638C37.0914 50 36.5448 49.5902 36.1544 49.0779L26.6277 36.5779C23.1919 39.2418 18.7409 38.5246 15.9298 34.7336C14.29 32.582 13.3529 29.7131 13.3529 26.6394C13.2748 23.5656 14.2119 20.5943 15.9298 18.3402C17.5696 16.1886 19.7561 14.959 22.1768 14.959C24.5194 14.959 26.7058 16.1886 28.4237 18.3402C31.313 22.2336 31.8596 27.8689 29.8293 32.3771L39.356 44.9795C40.2149 46.1066 40.2149 47.9508 39.356 49.0779C38.8874 49.6926 38.3408 50 37.7161 50ZM26.7058 34.9385C26.862 34.9385 27.0182 35.041 27.0963 35.1435L36.9353 48.0533C37.1695 48.3607 37.4038 48.5656 37.7161 48.5656C38.0285 48.5656 38.3408 48.3607 38.5751 48.0533C38.9655 47.541 38.9655 46.5164 38.5751 46.0041L28.7361 32.9918C28.5799 32.7869 28.5018 32.3771 28.658 32.0697C30.6883 28.0738 30.2198 22.8484 27.6429 19.3648C24.5975 15.4713 19.678 15.4713 16.7107 19.3648C15.227 21.3115 14.368 23.873 14.4461 26.6394C14.4461 29.3033 15.227 31.8648 16.7107 33.709C19.2875 37.1926 23.3481 37.7049 26.3935 35.041C26.4716 34.9385 26.6277 34.9385 26.7058 34.9385Z" fill="black"/>
<path fill-rule="evenodd" clip-rule="evenodd" d="M24.2068 45.4918C21.708 45.4918 19.7559 42.9303 19.7559 39.6516V37.1926C19.7559 36.7828 19.9901 36.4754 20.3025 36.4754C20.6148 36.4754 20.8491 36.7828 20.8491 37.1926V39.6516C20.8491 42.1106 22.3327 44.0574 24.2068 44.0574C25.8467 44.0574 27.2522 42.6229 27.5646 40.5738C27.6427 40.1639 27.8769 39.959 28.1112 39.959C28.2674 39.959 28.4235 40.0615 28.5016 40.0615H28.5797C29.1263 40.2664 29.6729 40.1639 30.2976 39.959C30.61 39.8565 30.9223 40.0615 31.0004 40.4713C31.0785 40.8811 30.8442 41.291 30.61 41.3934C30.0634 41.4959 29.3606 41.7008 28.5016 41.4959C27.8769 43.8524 26.159 45.4918 24.2068 45.4918ZM33.1088 38.5246C33.0307 38.5246 32.8745 38.5246 32.7964 38.4221C32.5622 38.2172 32.4841 37.7049 32.6403 37.3975C32.9526 36.8852 33.1869 36.168 33.343 35.1434C33.4992 33.9139 33.4992 32.8893 33.265 32.0697C33.265 31.8647 33.265 31.6598 33.343 31.4549C33.4992 31.25 33.6554 31.1475 33.8116 31.1475H33.9677C35.5295 31.1475 36.857 29.4057 36.857 27.3566C36.857 26.4344 36.2323 24.4877 35.6857 23.0533C35.6076 22.9508 35.6076 22.7459 35.6076 22.541C35.7637 21.9262 35.998 21.4139 36.2323 20.9016C36.5446 20.082 36.857 19.3647 36.857 18.3402C36.857 16.291 35.5295 14.6516 33.9677 14.6516H33.8116C33.6554 14.6516 33.4992 14.5492 33.343 14.3443C33.265 14.2418 33.265 13.9344 33.265 13.7295C33.4992 12.6025 33.5773 11.4754 33.343 10.5533V10.4508C33.1088 8.70901 32.3279 7.06967 31.2347 6.14754C30.4538 5.53279 29.5168 5.22541 28.6578 5.53279H28.3455C28.1893 5.63524 28.0331 5.63524 27.8769 5.53279C27.7208 5.43033 27.6427 5.32787 27.5646 5.12295C27.2522 2.97131 25.8467 1.43443 24.2068 1.43443C22.3327 1.43443 20.8491 3.48361 20.8491 5.94262V15.9836C20.8491 16.3934 20.6148 16.7008 20.3025 16.7008C19.9901 16.7008 19.7559 16.3934 19.7559 15.9836V5.94262C19.7559 2.66393 21.7861 0 24.2068 0C26.159 0 27.8769 1.63934 28.5016 4.09836C29.5949 3.79098 30.8442 4.09836 31.8594 5.02049C33.1869 6.14754 34.1239 7.9918 34.4363 10.1434C34.5924 11.168 34.5924 12.1926 34.5143 13.2172C36.4665 13.627 37.9502 15.7787 37.9502 18.3402C37.9502 19.6721 37.5598 20.6967 37.1693 21.5164C37.0131 21.9262 36.857 22.3361 36.7789 22.6434C37.0912 23.5656 37.9502 25.9221 37.9502 27.3566C37.9502 28.6885 37.5598 30.0205 36.7789 31.0451C36.1542 31.8647 35.3733 32.377 34.5143 32.4795C34.5924 33.4016 34.5924 34.3238 34.4363 35.3484C34.202 36.5779 33.9677 37.5 33.5773 38.2172C33.4211 38.4221 33.265 38.5246 33.1088 38.5246Z" fill="black"/>
<path fill-rule="evenodd" clip-rule="evenodd" d="M30.6103 18.75C30.298 18.75 30.0637 18.4426 30.0637 18.0328C30.0637 17.6229 30.298 17.3156 30.6103 17.3156C32.094 17.3156 33.2653 15.8811 33.2653 13.9344C33.2653 13.5246 33.4996 13.2172 33.8119 13.2172C34.1243 13.2172 34.3585 13.5246 34.3585 13.9344C34.3585 16.5983 32.6406 18.75 30.6103 18.75Z" fill="black"/>
<path fill-rule="evenodd" clip-rule="evenodd" d="M31.0005 21.9262H30.8443C30.6101 21.8238 30.3758 21.414 30.4539 21.1066C30.6101 20.1844 30.532 19.1599 30.1415 18.4426C29.7511 17.623 29.2045 17.1107 28.5017 16.9058C28.2674 16.8033 28.0332 16.3935 28.1113 16.0861C28.1894 15.6763 28.5017 15.3689 28.736 15.4713C30.7662 16.0861 32.0156 18.75 31.5471 21.414C31.469 21.7213 31.2348 21.9262 31.0005 21.9262ZM33.8116 32.582C33.4993 32.582 33.265 32.2746 33.265 31.8648C33.265 29.918 32.0937 28.3812 30.6881 28.3812C30.3758 28.3812 30.1415 28.0738 30.1415 27.664C30.1415 27.2541 30.3758 26.9467 30.6881 26.9467C32.7184 26.9467 34.3582 29.2008 34.3582 31.8648C34.3582 32.2746 34.124 32.582 33.8116 32.582Z" fill="black"/>
<path fill-rule="evenodd" clip-rule="evenodd" d="M30.3759 28.9959C30.2198 28.9959 30.1417 28.9959 30.0636 28.8934C29.8293 28.5861 29.7512 28.1762 29.9074 27.8688C30.5321 26.9467 30.6883 25.8197 30.5321 24.6926C30.454 24.2828 30.6883 23.8729 30.9226 23.7705C31.2349 23.668 31.5472 23.9754 31.6253 24.3852C31.8596 25.9221 31.5472 27.459 30.7664 28.6885C30.6883 28.8934 30.5321 28.9959 30.3759 28.9959ZM24.7537 16.9057C24.5975 16.9057 24.3632 16.8033 24.2851 16.5984C24.129 16.291 24.207 15.7787 24.4413 15.5738C25.2222 14.959 25.6907 13.832 25.6907 12.7049C25.6907 12.2951 25.925 11.9877 26.2373 11.9877C26.5497 11.9877 26.7839 12.2951 26.7839 12.7049C26.7839 14.3443 26.0811 15.8811 25.066 16.8033C24.9879 16.9057 24.8317 16.9057 24.7537 16.9057ZM13.6653 45.4918C11.7131 45.4918 9.99517 43.8524 9.44856 41.4959C6.79359 42.1106 4.13862 39.4467 3.43584 35.4508V35.3484C3.27966 34.3238 3.27966 33.4016 3.35775 32.4795C2.57688 32.377 1.79601 31.8647 1.17131 31.0451C0.390436 30.0205 0 28.791 0 27.3566C0 25.9221 0.85896 23.5656 1.17131 22.7459C1.09322 22.3361 0.937047 21.9262 0.780872 21.6188C0.390436 20.6967 0 19.6721 0 18.3402C0 15.7787 1.48366 13.627 3.43584 13.2172C3.35775 12.1926 3.27966 11.168 3.43584 10.2459V10.1434C3.82628 7.9918 4.76332 6.04508 6.09081 4.91803C7.18403 4.09836 8.27725 3.79098 9.44856 4.09836C9.99517 1.7418 11.7131 0 13.6653 0C16.1641 0 18.1943 2.66393 18.1943 5.94262V17.418C18.1943 17.8279 17.9601 18.1352 17.6477 18.1352C17.3354 18.1352 17.1011 17.8279 17.1011 17.418V5.94262C17.1011 3.48361 15.5394 1.43443 13.6653 1.43443C12.1035 1.43443 10.6199 3.07377 10.3856 5.02049C10.3856 5.32787 10.2294 5.43033 10.0733 5.53279C9.91708 5.63524 9.76091 5.63524 9.60473 5.53279H9.29238C8.43342 5.22541 7.49638 5.43033 6.7155 6.14754C5.62228 7.06967 4.84141 8.60656 4.52906 10.4508C4.37289 11.4754 4.45097 12.7049 4.68523 13.7295C4.68523 13.9344 4.68523 14.1393 4.60715 14.3443C4.45097 14.5492 4.2948 14.6516 4.13862 14.6516H3.98245C2.4207 14.6516 1.09322 16.291 1.09322 18.3402C1.09322 19.3647 1.40557 20.082 1.71792 20.9016C1.95218 21.4139 2.18644 21.9262 2.34262 22.541C2.34262 22.7459 2.34262 22.9508 2.26453 23.0533C1.71792 24.4877 1.09322 26.4344 1.09322 27.3566C1.09322 29.4057 2.4207 31.1475 3.98245 31.1475H4.06054C4.21671 31.1475 4.37289 31.25 4.52906 31.4549C4.60715 31.6598 4.60715 31.8647 4.60715 32.0697C4.37289 32.8893 4.37289 33.9139 4.52906 35.1434C5.07567 38.4221 7.18403 40.5738 9.29238 40.0615H9.44856C9.60473 40.0615 9.68282 39.959 9.83899 39.959C10.0733 39.959 10.3075 40.2664 10.3856 40.5738C10.6199 42.5205 12.0254 44.0574 13.6653 44.0574C15.5394 44.0574 17.1011 42.1106 17.1011 39.6516V35.6557C17.1011 35.2459 17.3354 34.9385 17.6477 34.9385C17.9601 34.9385 18.1943 35.2459 18.1943 35.6557V39.6516C18.1943 42.8279 16.1641 45.4918 13.6653 45.4918Z" fill="black"/>
<path fill-rule="evenodd" clip-rule="evenodd" d="M7.26239 18.75C5.23212 18.75 3.59229 16.5983 3.59229 13.9344C3.59229 13.5246 3.82655 13.2172 4.1389 13.2172C4.45124 13.2172 4.68551 13.5246 4.68551 13.9344C4.68551 15.7787 5.85682 17.3156 7.26239 17.3156C7.57473 17.3156 7.809 17.6229 7.809 18.0328C7.809 18.4426 7.57473 18.75 7.26239 18.75Z" fill="black"/>
<path fill-rule="evenodd" clip-rule="evenodd" d="M6.87191 21.9262C6.63765 21.9262 6.40339 21.7213 6.3253 21.4139C6.09104 20.0819 6.3253 18.75 6.79382 17.6229C7.34044 16.5983 8.1994 15.7786 9.13644 15.4713C9.44879 15.3688 9.76114 15.6762 9.83923 15.9836C9.91731 16.3934 9.68305 16.8032 9.44879 16.9057C8.74601 17.1106 8.12131 17.6229 7.73087 18.4426C7.34044 19.2623 7.26235 20.1844 7.41852 21.0041C7.49661 21.4139 7.26235 21.8237 6.95 21.9262H6.87191ZM4.06077 32.5819C3.74842 32.5819 3.51416 32.2745 3.51416 31.8647C3.51416 29.0983 5.15399 26.9467 7.26235 26.9467C7.5747 26.9467 7.80896 27.2541 7.80896 27.6639C7.80896 28.0737 7.5747 28.3811 7.26235 28.3811C5.77869 28.3811 4.60738 29.918 4.60738 31.8647C4.60738 32.2745 4.37312 32.5819 4.06077 32.5819Z" fill="black"/>
<path fill-rule="evenodd" clip-rule="evenodd" d="M9.21437 30.2254H9.05819C7.10601 29.6106 5.85662 26.9467 6.32514 24.3852C6.40323 23.9754 6.71558 23.668 6.94984 23.7705C7.26219 23.8729 7.49645 24.2828 7.41836 24.6926C7.26219 25.5123 7.34027 26.5369 7.73071 27.2541C8.04306 28.0738 8.66776 28.5861 9.29246 28.791C9.6048 28.8934 9.83907 29.3033 9.76098 29.7131C9.68289 30.0205 9.44863 30.2254 9.21437 30.2254ZM15.4613 20.9016H15.3052C14.9928 20.7992 14.7586 20.6967 14.4462 20.6967C14.1339 20.6967 13.8996 20.3893 13.8996 19.9795C13.8996 19.5697 14.1339 19.2623 14.4462 19.2623C14.9147 19.2623 15.3052 19.3647 15.6175 19.4672C15.8518 19.5697 16.086 19.9795 16.008 20.3893C15.9299 20.6967 15.6956 20.9016 15.4613 20.9016ZM14.8367 17.6229C12.8064 17.6229 11.1666 15.3688 11.1666 12.7049C11.1666 12.2951 11.4008 11.9877 11.7132 11.9877C12.0255 11.9877 12.2598 12.2951 12.2598 12.7049C12.2598 14.6516 13.4311 16.1885 14.8367 16.1885C15.149 16.1885 15.3833 16.4959 15.3833 16.9057C15.3833 17.3156 15.149 17.6229 14.8367 17.6229ZM13.2749 33.4016C13.1187 33.4016 12.8845 33.2992 12.8064 33.0943C12.6502 32.6844 12.7283 32.2746 12.9626 32.0697C13.5873 31.6598 14.29 31.3524 14.9928 31.3524C15.3052 31.3524 15.5394 31.6598 15.5394 32.0697C15.5394 32.4795 15.3052 32.7869 14.9928 32.7869C14.5243 32.7869 13.9777 32.9918 13.5092 33.2992C13.4311 33.4016 13.353 33.4016 13.2749 33.4016ZM28.3457 9.83606C26.5497 9.83606 24.9099 8.09426 24.5976 5.7377C24.5195 5.43032 24.7537 5.02049 25.0661 4.91803C25.3003 4.91803 25.6127 5.12295 25.6908 5.53278C25.925 7.37705 27.3306 8.70901 28.8143 8.29918C29.0485 8.29918 29.3609 8.50409 29.439 8.91393C29.439 9.32377 29.2828 9.63114 28.9704 9.7336C28.7362 9.7336 28.58 9.83606 28.3457 9.83606ZM9.6048 9.83606C9.37054 9.83606 9.13628 9.7336 8.98011 9.7336C8.66776 9.63114 8.4335 9.32377 8.51158 8.91393C8.58967 8.50409 8.82393 8.29918 9.13628 8.29918C10.5419 8.70901 11.9474 7.37705 12.1817 5.53278C12.2598 5.12295 12.494 4.91803 12.8064 4.91803C13.1187 5.02049 13.2749 5.43032 13.2749 5.7377C12.9626 8.19672 11.4008 9.83606 9.6048 9.83606Z" fill="black"/>
</svg>
