<svg width="30" height="20" viewBox="0 0 30 20" fill="none" xmlns="http://www.w3.org/2000/svg">
<path d="M27.5 0H2.50002C1.12119 0 0 0.996615 0 2.22224V17.7778C0 19.0034 1.12119 20 2.50002 20H27.5C28.8788 20 30 19.0034 30 17.7778V2.22224C30 0.996615 28.8788 0 27.5 0ZM2.50002 1.11109H27.5C27.5921 1.11109 27.6733 1.14094 27.7597 1.15781C25.5953 2.91859 18.4185 8.75464 15.907 10.766C15.7105 10.9234 15.3938 11.1111 15.0001 11.1111C14.6064 11.1111 14.2896 10.9234 14.0924 10.7655C11.5812 8.75443 4.40396 2.91807 2.23992 1.15792C2.32652 1.14104 2.40785 1.11109 2.50002 1.11109ZM1.24998 17.7778V2.22224C1.24998 2.11339 1.28689 2.01464 1.31994 1.91516C2.9765 3.26286 7.98416 7.33495 11.2312 9.95958C7.99471 12.4308 2.98576 16.652 1.31602 18.0673C1.28654 17.9729 1.24998 17.8805 1.24998 17.7778ZM27.5 18.8889H2.50002C2.40018 18.8889 2.31141 18.858 2.21818 18.8382C3.94359 17.3761 8.98441 13.1306 12.164 10.7127C12.5274 11.0059 12.8912 11.2986 13.2556 11.5907C13.7708 12.0042 14.3737 12.2222 15 12.2222C15.6263 12.2222 16.2292 12.0041 16.7438 11.5912C17.1083 11.2989 17.4724 11.0061 17.836 10.7127C21.0158 13.1303 26.0559 17.3755 27.7818 18.8382C27.6886 18.858 27.5999 18.8889 27.5 18.8889ZM28.75 17.7778C28.75 17.8804 28.7135 17.9729 28.684 18.0673C27.0137 16.6513 22.0053 12.4305 18.7689 9.95964C22.016 7.335 27.0229 3.26328 28.6801 1.91505C28.7131 2.01453 28.75 2.11333 28.75 2.22219V17.7778Z" fill="black"/>
</svg>
