<svg width="115" height="115" viewBox="0 0 115 115" fill="none" xmlns="http://www.w3.org/2000/svg">
<path d="M72.9659 27.1714L43.7708 27.3359L40.5716 28.4145C39.1133 28.8947 37.8439 29.8231 36.9445 31.0673C36.045 32.3114 35.5613 33.8079 35.5625 35.3431V35.7453C33.4053 36.1841 31.5223 37.3723 30.2061 39.0542C28.9264 35.9098 28.25 32.5278 28.25 29.0727V27.7381C28.25 20.2063 32.6558 13.5336 39.237 10.4441C39.2188 10.2795 39.2188 10.1333 39.2188 9.96875C39.2188 5.92859 42.4911 2.65625 46.5312 2.65625H61.1562C75.2877 2.65625 86.75 14.1186 86.75 28.25V29.0727C86.75 32.5278 86.0736 35.9098 84.7939 39.0542C83.4594 37.3486 81.56 36.1752 79.4375 35.7453V31.9062C75.9641 31.9062 73.9531 29.7125 72.9659 27.1714Z" fill="#656D78"/>
<path d="M70.9002 84.9219C77.5911 84.9219 77.5911 88.5781 84.3003 88.5781C85.9456 88.5781 87.1705 88.3588 88.1942 88.0297C92.4903 93.4409 95.1777 100.132 95.5981 107.39L95.8906 112.344H19.1094L19.4019 107.39C19.8223 100.15 22.4914 93.4592 26.7875 88.048C27.8295 88.3587 29.0544 88.5781 30.6814 88.5781C37.3906 88.5781 37.3906 84.9219 44.0816 84.9219C50.7908 84.9219 50.7908 88.5781 57.4817 88.5781C64.1909 88.5781 64.1909 84.9219 70.9002 84.9219Z" fill="#AFF469"/>
<path d="M73.9531 97.7188C75.9724 97.7188 77.6094 96.0818 77.6094 94.0625C77.6094 92.0432 75.9724 90.4062 73.9531 90.4062C71.9338 90.4062 70.2969 92.0432 70.2969 94.0625C70.2969 96.0818 71.9338 97.7188 73.9531 97.7188Z" fill="#4FC1E9"/>
<path d="M57.5 105.031C59.5193 105.031 61.1562 103.394 61.1562 101.375C61.1562 99.3557 59.5193 97.7188 57.5 97.7188C55.4807 97.7188 53.8438 99.3557 53.8438 101.375C53.8438 103.394 55.4807 105.031 57.5 105.031Z" fill="#4FC1E9"/>
<path d="M39.2188 101.375C41.238 101.375 42.875 99.738 42.875 97.7188C42.875 95.6995 41.238 94.0625 39.2188 94.0625C37.1995 94.0625 35.5625 95.6995 35.5625 97.7188C35.5625 99.738 37.1995 101.375 39.2188 101.375Z" fill="#4FC1E9"/>
<path d="M68.4688 75.7812C76.476 77.4997 83.3681 81.942 88.1943 88.0297C87.1706 88.3587 85.9457 88.5781 84.3004 88.5781C77.5912 88.5781 77.5912 84.9219 70.9003 84.9219C64.191 84.9219 64.191 88.5781 57.4818 88.5781C50.7909 88.5781 50.7909 84.9219 44.0817 84.9219C37.3907 84.9219 37.3907 88.5781 30.6815 88.5781C29.0545 88.5781 27.8296 88.3587 26.7876 88.0479C27.0618 87.7006 27.3543 87.3533 27.6468 87.0059C32.4182 81.4484 38.9629 77.39 46.5313 75.7812L50.1876 70.2969H64.8126L68.4688 75.7812ZM84.794 39.0542C85.7579 40.2797 86.3923 41.7315 86.6368 43.2714C86.8814 44.8113 86.7279 46.3881 86.1911 47.852C85.6543 49.3159 84.752 50.6181 83.5699 51.6348C82.3878 52.6516 80.9653 53.3491 79.4376 53.6609V35.7453C81.5948 36.184 83.4778 37.3723 84.794 39.0542ZM79.4376 53.6609V55.6719C79.4376 63.7522 72.8929 70.2969 64.8126 70.2969H50.1876C42.1073 70.2969 35.5626 63.7522 35.5626 55.6719V35.3431C35.5626 32.1987 37.5735 29.4017 40.5717 28.4145L43.7709 27.3359L72.966 27.1714C73.9532 29.7125 75.9642 31.9062 79.4376 31.9062V35.7453V53.6609ZM35.5626 35.7453V53.6609C33.4963 53.2413 31.6386 52.1203 30.3042 50.4878C28.9699 48.8552 28.2409 46.8116 28.2409 44.7031C28.2409 42.5946 28.9699 40.551 30.3042 38.9184C31.6386 37.2859 33.4963 36.1649 35.5626 35.7453Z" fill="#F0D0B4"/>
<path d="M57.5 62.9844C59.5193 62.9844 61.1562 61.3474 61.1562 59.3281C61.1562 57.3088 59.5193 55.6719 57.5 55.6719C55.4807 55.6719 53.8438 57.3088 53.8438 59.3281C53.8438 61.3474 55.4807 62.9844 57.5 62.9844Z" fill="#FCD770"/>
<path d="M97.4244 107.287C96.4848 91.3349 85.0828 77.816 69.5839 74.1579L68.0154 71.8069C75.56 70.3115 81.2656 63.648 81.2656 55.6719V55.0174C85.5727 53.4873 88.5781 49.3813 88.5781 44.7031C88.5781 42.5514 87.9182 40.535 86.8158 38.8147C87.9747 35.6997 88.5714 32.4036 88.5781 29.08V28.25C88.5781 13.1296 76.2767 0.828125 61.1562 0.828125H46.5312C41.7178 0.828125 37.8038 4.57944 37.4583 9.30697C30.7216 12.9285 26.4219 20.0417 26.4219 27.7454V29.0781C26.4219 32.4218 27.0343 35.6868 28.1842 38.8147C27.0437 40.5677 26.4319 42.6119 26.4219 44.7031C26.4219 49.3813 29.4273 53.4873 33.7344 55.0174V55.6719C33.7344 63.648 39.44 70.3115 46.9828 71.8069L45.4143 74.1579C29.9154 77.816 18.5134 91.3349 17.5737 107.287L17.3855 110.516H8.14062V114.172H106.859V110.516H97.6145L97.4244 107.287ZM81.2656 51.0211V38.3851C83.4685 39.6666 84.9219 42.0469 84.9219 44.7031C84.9219 47.3594 83.4685 49.7396 81.2656 51.0211ZM30.0781 44.7031C30.0826 43.4224 30.4224 42.1652 31.0639 41.0567C31.7054 39.9482 32.6261 39.0271 33.7344 38.3851V51.0211C32.6261 50.3792 31.7054 49.4581 31.0639 48.3496C30.4224 47.2411 30.0826 45.9839 30.0781 44.7031ZM37.3906 55.6719V35.3486C37.3906 32.9848 38.897 30.8935 41.1419 30.1458L44.354 29.0745L43.1968 25.6065L39.9847 26.6778C38.3266 27.2321 36.863 28.2518 35.7687 29.6152C34.6743 30.9786 33.9954 32.6282 33.813 34.3669C32.8206 34.7132 31.8839 35.2021 31.0324 35.8184C30.4019 33.6277 30.0807 31.3596 30.0781 29.08V27.7473C30.087 24.8567 30.8176 22.0142 32.2038 19.4777C33.59 16.9413 35.5878 14.7912 38.0158 13.2228C39.3321 16.6542 42.641 19.1094 46.5312 19.1094V15.4531C43.5075 15.4531 41.0469 12.9925 41.0469 9.96875C41.0469 6.94503 43.5075 4.48438 46.5312 4.48438H61.1562C74.2603 4.48438 84.9219 15.146 84.9219 28.25V29.08C84.9219 31.3779 84.5928 33.632 83.9694 35.8184C83.1399 35.2172 82.2296 34.7359 81.2656 34.3888V30.0781H79.4375C75.0994 30.0781 73.9531 25.2939 73.9531 22.7656H70.2969C70.2969 27.6339 72.8014 32.5534 77.6094 33.5516V55.6719C77.6094 62.7284 71.8672 68.4688 64.8125 68.4688H50.1875C43.1328 68.4688 37.3906 62.7284 37.3906 55.6719ZM46.9152 77.5692L47.6391 77.4138L51.1655 72.125H63.8345L67.3609 77.4138L68.0848 77.5692C74.3682 78.9237 80.1079 82.1132 84.5764 86.7335C84.4813 86.7354 84.4027 86.75 84.3058 86.75C81.4192 86.75 80.0554 86.006 78.4759 85.1449C76.7118 84.1833 74.7136 83.0938 70.8928 83.0938C67.0757 83.0938 65.0794 84.1833 63.3171 85.1449C61.7376 86.006 60.3756 86.75 57.4909 86.75C54.6061 86.75 53.2423 86.006 51.6628 85.1449C49.9005 84.1833 47.9023 83.0938 44.0834 83.0938C40.2663 83.0938 38.2681 84.1833 36.5058 85.1449C34.9263 86.006 33.5644 86.75 30.6796 86.75C30.5863 86.75 30.5132 86.7354 30.4218 86.7335C34.8913 82.1136 40.6315 78.9241 46.9152 77.5692ZM21.2245 107.503C21.6002 101.201 23.8054 95.1463 27.5699 90.079C28.5388 90.2746 29.5498 90.4081 30.6796 90.4081C34.4967 90.4081 36.4948 89.3185 38.2572 88.3569C39.8367 87.494 41.1986 86.75 44.0834 86.75C46.9682 86.75 48.332 87.494 49.9115 88.3551C51.6738 89.3167 53.6719 90.4062 57.4909 90.4062C61.308 90.4062 63.3061 89.3167 65.0703 88.3551C66.6461 87.494 68.0099 86.75 70.8928 86.75C73.7813 86.75 75.1451 87.494 76.7246 88.3551C78.4887 89.3167 80.4868 90.4062 84.3058 90.4062C85.4447 90.4062 86.4593 90.2728 87.4282 90.0754C91.1009 95.0369 93.3952 101.044 93.7737 107.501L93.9528 110.516H21.0472L21.2245 107.503Z" fill="black"/>
<path d="M57.5 53.8437C54.4763 53.8437 52.0156 56.3044 52.0156 59.3281C52.0156 62.3518 54.4763 64.8125 57.5 64.8125C60.5237 64.8125 62.9844 62.3518 62.9844 59.3281C62.9844 56.3044 60.5237 53.8437 57.5 53.8437ZM57.5 61.1562C57.0293 61.1352 56.5848 60.9334 56.2592 60.5928C55.9336 60.2523 55.7518 59.7993 55.7518 59.3281C55.7518 58.8569 55.9336 58.4039 56.2592 58.0634C56.5848 57.7228 57.0293 57.521 57.5 57.5C57.9707 57.521 58.4151 57.7228 58.7408 58.0634C59.0664 58.4039 59.2482 58.8569 59.2482 59.3281C59.2482 59.7993 59.0664 60.2523 58.7408 60.5928C58.4151 60.9334 57.9707 61.1352 57.5 61.1562ZM52.0156 31.9062C52.0156 28.8825 54.4763 26.4219 57.5 26.4219C60.5237 26.4219 62.9844 28.8825 62.9844 31.9062V32.5333C62.9844 33.9775 62.3994 35.3906 61.3775 36.4107L55.6719 42.1181V50.1875H59.3281V43.6318L63.9624 38.9957C64.8139 38.149 65.489 37.142 65.9487 36.0327C66.4084 34.9234 66.6436 33.734 66.6406 32.5333V31.9062C66.6406 26.8661 62.5401 22.7656 57.5 22.7656C52.4599 22.7656 48.3594 26.8661 48.3594 31.9062V33.7344H52.0156V31.9062ZM39.2188 92.2344C36.195 92.2344 33.7344 94.695 33.7344 97.7187H37.3906C37.3903 97.3566 37.4973 97.0026 37.6983 96.7014C37.8992 96.4002 38.185 96.1653 38.5194 96.0266C38.8539 95.8879 39.222 95.8515 39.5771 95.922C39.9323 95.9926 40.2585 96.1669 40.5145 96.4229C40.7706 96.679 40.9449 97.0052 41.0155 97.3603C41.086 97.7155 41.0496 98.0836 40.9109 98.418C40.7722 98.7525 40.5373 99.0383 40.2361 99.2392C39.9349 99.4402 39.5808 99.5472 39.2188 99.5469V103.203C42.2425 103.203 44.7031 100.742 44.7031 97.7187C44.7031 94.695 42.2425 92.2344 39.2188 92.2344ZM57.5 95.8906C54.4763 95.8906 52.0156 98.3513 52.0156 101.375C52.0156 104.399 54.4763 106.859 57.5 106.859V103.203C57.0293 103.182 56.5848 102.98 56.2592 102.64C55.9336 102.299 55.7518 101.846 55.7518 101.375C55.7518 100.904 55.9336 100.451 56.2592 100.11C56.5848 99.7697 57.0293 99.5679 57.5 99.5469C58.5091 99.5469 59.3281 100.368 59.3281 101.375H62.9844C62.9844 98.3513 60.5237 95.8906 57.5 95.8906ZM73.9531 95.8906C73.4824 95.8696 73.038 95.6677 72.7123 95.3272C72.3867 94.9867 72.2049 94.5337 72.2049 94.0625C72.2049 93.5913 72.3867 93.1383 72.7123 92.7978C73.038 92.4572 73.4824 92.2554 73.9531 92.2344V88.5781C70.9294 88.5781 68.4688 91.0388 68.4688 94.0625C68.4688 97.0862 70.9294 99.5469 73.9531 99.5469C76.9768 99.5469 79.4375 97.0862 79.4375 94.0625H75.7812C75.7812 95.0698 74.9622 95.8906 73.9531 95.8906ZM95.8906 28.25H114.172V31.9062H95.8906V28.25ZM92.2874 13.6835L109.179 6.68176L110.58 10.0601L93.6877 17.0619L92.2874 13.6835ZM4.44781 10.0784L5.84633 6.70187L22.74 13.7036L21.3397 17.082L4.44781 10.0784ZM0.828125 28.25H19.1094V31.9062H0.828125V28.25ZM4.45695 50.0814L21.3507 43.0797L22.751 46.4563L5.85913 53.458L4.45695 50.0814ZM92.2947 46.4471L93.695 43.0688L110.587 50.0705L109.188 53.4489L92.2947 46.4471ZM110.516 110.516H114.172V114.172H110.516V110.516ZM0.828125 110.516H4.48438V114.172H0.828125V110.516Z" fill="black"/>
</svg>
