<svg width="20" height="21" viewBox="0 0 20 21" fill="none" xmlns="http://www.w3.org/2000/svg">
<path d="M4.43242 12.6906L3.73625 15.4194L1.19176 15.4759C0.431328 13.995 0 12.3006 0 10.5C0 8.75884 0.403281 7.1169 1.11812 5.67114H1.11867L3.38398 6.10722L4.37633 8.47153C4.16863 9.10731 4.05543 9.78981 4.05543 10.5C4.05551 11.2708 4.18848 12.0092 4.43242 12.6906Z" fill="#FBBB00"/>
<path d="M19.8253 8.53845C19.9401 9.17362 20 9.82958 20 10.5C20 11.2517 19.9247 11.985 19.7813 12.6923C19.2945 15.0992 18.0225 17.201 16.2605 18.6883L16.2599 18.6877L13.4066 18.5348L13.0028 15.8879C14.172 15.1679 15.0858 14.0411 15.5671 12.6923H10.2198V8.53845H19.8253Z" fill="#518EF8"/>
<path d="M16.2599 18.6877L16.2604 18.6883C14.5467 20.1346 12.3698 21 10 21C6.19177 21 2.8808 18.765 1.19177 15.476L4.43244 12.6906C5.27693 15.0571 7.45111 16.7418 10 16.7418C11.0956 16.7418 12.122 16.4308 13.0027 15.8879L16.2599 18.6877Z" fill="#28B446"/>
<path d="M16.383 2.4173L13.1434 5.20209C12.2319 4.60384 11.1544 4.25824 10 4.25824C7.39341 4.25824 5.17856 6.02015 4.37638 8.47153L1.11868 5.67115H1.11813C2.78243 2.30192 6.13517 0 10 0C12.4264 0 14.6511 0.907512 16.383 2.4173Z" fill="#F14336"/>
</svg>
