<svg width="24" height="22" viewBox="0 0 24 22" fill="none" xmlns="http://www.w3.org/2000/svg">
<path d="M12.0001 7.67805C12.075 7.67272 12.1502 7.67272 12.2251 7.67805L12.3698 6.1111C12.2471 6.09185 12.1236 6.08313 12.0001 6.08498C11.5046 6.08567 11.014 6.21345 10.5566 6.46102C10.0991 6.70858 9.68377 7.07106 9.33432 7.52766C8.98487 7.98427 8.7082 8.52603 8.52016 9.12188C8.33212 9.71774 8.23642 10.356 8.23853 11C8.2371 11.1623 8.24381 11.3246 8.25863 11.4857L9.46425 11.2873C9.46014 11.1916 9.46014 11.0957 9.46425 11C9.46423 10.1235 9.73076 9.28245 10.2057 8.66021C10.6807 8.03797 11.3257 7.68494 12.0001 7.67805Z" fill="black"/>
<path d="M5.34092 15.8001C3.92202 14.4055 2.63748 12.7938 1.51507 11C2.63228 9.21368 6.9645 2.86752 12 2.86752C13.0821 2.88244 14.1533 3.14958 15.1628 3.65622L15.5847 2.18851C14.4405 1.61529 13.2262 1.31452 12 1.30057C5.56999 1.30057 0.474213 10.18 0.261219 10.5351L0 11L0.261219 11.4649C1.51529 13.5717 2.98036 15.4513 4.61755 17.0537L5.34092 15.8001ZM23.7388 10.5351C22.4847 8.4283 21.0196 6.54873 19.3825 4.94634C19.0208 4.59639 18.647 4.27255 18.2693 3.95916L20.4635 1.10731L19.6115 0L3.5365 20.8927L4.38848 22L6.79973 18.8661C7.3199 19.2274 7.85676 19.5467 8.40723 19.8219C9.55499 20.3905 10.7717 20.6877 12 20.6994C18.43 20.6994 23.5258 11.82 23.7388 11.4649L24 11L23.7388 10.5351ZM14.5439 10.7127C14.548 10.8084 14.548 10.9043 14.5439 11C14.5439 11.8783 14.2762 12.7209 13.7995 13.3434C13.3228 13.966 12.6758 14.3178 12 14.3219H11.7589C11.3745 14.2703 11.0038 14.1079 10.6738 13.8466L14.1782 9.29725C14.38 9.72758 14.505 10.2113 14.5439 10.7127ZM12 19.1325C10.9196 19.1173 9.85001 18.852 8.84126 18.349C8.4635 18.161 8.08171 17.9416 7.69993 17.6961L9.80174 14.9644C10.3385 15.471 10.9699 15.7812 11.6303 15.8628C11.7534 15.8733 11.8769 15.8733 12 15.8628C12.9938 15.8614 13.947 15.3495 14.6516 14.4386C15.3562 13.5277 15.7552 12.2917 15.7616 11C15.7704 10.8487 15.7704 10.6968 15.7616 10.5456C15.7009 9.67867 15.4622 8.84885 15.0703 8.14293L17.4133 5.09782C17.8433 5.44255 18.2693 5.80294 18.6792 6.1999C20.091 7.59616 21.3688 9.20773 22.4849 11C21.3677 12.7863 17.0355 19.1325 12 19.1325Z" fill="black"/>
</svg>
