<svg width="45" height="45" viewBox="0 0 45 45" fill="none" xmlns="http://www.w3.org/2000/svg">
<path d="M43.7916 19.5728C43.7901 19.5718 43.7891 19.5704 43.788 19.5694L25.4298 1.21377C24.6472 0.43084 23.6068 0 22.5003 0C21.3936 0 20.3532 0.43084 19.5704 1.21368L1.22165 19.5601C1.2155 19.5662 1.20899 19.5727 1.20319 19.579C-0.403785 21.1949 -0.400972 23.8169 1.2111 25.4288C1.94753 26.1656 2.91987 26.592 3.95999 26.6369C4.00253 26.6411 4.04516 26.6431 4.08806 26.6431H4.81938V40.1515C4.81938 42.825 6.99489 44.9999 9.66862 44.9999H16.851C17.5792 44.9999 18.1695 44.4094 18.1695 43.6816V33.0908C18.1695 31.871 19.1621 30.8788 20.3821 30.8788H24.6184C25.8384 30.8788 26.8306 31.8711 26.8306 33.0908V43.6816C26.8306 44.4095 27.4209 45 28.1491 45H35.3315C38.0056 45 40.1807 42.8251 40.1807 40.1516V26.6432H40.8592C41.9655 26.6432 43.0059 26.2122 43.7891 25.4291C45.4029 23.8148 45.4035 21.1881 43.7915 19.5727L43.7916 19.5728ZM41.9243 23.565C41.7848 23.7053 41.6188 23.8166 41.436 23.8924C41.2532 23.9682 41.0571 24.007 40.8592 24.0065H38.8622C38.1339 24.0065 37.5437 24.5966 37.5437 25.3249V40.1516C37.5437 41.3711 36.5514 42.3633 35.3314 42.3633H29.4676V33.0908C29.4676 30.4174 27.2924 28.2421 24.6183 28.2421H20.3822C17.7081 28.2421 15.5326 30.4174 15.5326 33.0908V42.3633H9.66879C8.4491 42.3633 7.45645 41.371 7.45645 40.1516V25.3248C7.45645 24.5965 6.86621 24.0064 6.13796 24.0064H4.17525C4.15468 24.005 4.13408 24.004 4.11346 24.0036C3.72064 23.9968 3.35225 23.8409 3.07624 23.5645C2.48908 22.9774 2.48908 22.0221 3.07624 21.4346C3.07651 21.4346 3.07651 21.4342 3.07686 21.4339L3.07791 21.4328L21.4355 3.07793C21.5749 2.93757 21.7408 2.82629 21.9236 2.75056C22.1064 2.67482 22.3024 2.63612 22.5003 2.63672C22.9023 2.63672 23.2804 2.79325 23.565 3.07793L41.9184 21.4291L41.927 21.4374C42.5111 22.0256 42.5101 22.979 41.9243 23.565Z" fill="white"/>
</svg>
