<svg width="60" height="68" viewBox="0 0 60 68" fill="none" xmlns="http://www.w3.org/2000/svg">
<g clip-path="url(#clip0_104_62)">
<path d="M30 5.00554C30.1231 5.00557 30.245 4.97812 30.3587 4.92475C30.4724 4.87138 30.5758 4.79314 30.6628 4.6945C30.7498 4.59585 30.8189 4.47874 30.866 4.34985C30.9131 4.22095 30.9373 4.08281 30.9372 3.94331V1.07163C30.9372 0.485001 30.5181 0.00939941 30 0.00939941C29.4819 0.00939941 29.0627 0.485001 29.0627 1.07163V3.94344C29.0627 4.08294 29.0869 4.22107 29.134 4.34996C29.1811 4.47884 29.2501 4.59595 29.3372 4.69458C29.4242 4.79322 29.5275 4.87145 29.6413 4.9248C29.755 4.97816 29.8769 5.00559 30 5.00554ZM48.646 27.3304C50.7275 24.5768 50.6796 20.3758 48.3365 17.6794C46.6823 15.7737 44.1967 14.9871 41.7154 15.9667C41.451 12.034 38.227 9.37852 35.0388 9.44759C33.1337 9.48889 31.2412 10.5032 30.0008 12.7991C28.114 9.30747 24.6438 9.38583 24.5468 9.35502C21.2296 9.38556 18.5363 12.2825 18.2849 15.9567C15.8838 14.9982 13.3519 15.734 11.6634 17.6794C9.31369 20.3836 9.27877 24.5845 11.354 27.3304C8.80475 28.4042 6.87654 31.2409 6.89846 34.3309C6.92143 37.4564 8.68803 40.0945 11.1807 41.0495C8.23158 45.7184 11.16 52.3659 16.3487 52.3651C16.9876 52.3651 17.6451 52.246 18.2899 52.0093C18.5331 55.7185 21.2709 58.6445 24.599 58.6445C24.6968 58.6157 28.0612 58.7841 30.0001 55.2174C31.1805 57.39 33.1937 58.6247 35.3489 58.6445C35.4426 58.5996 41.2817 58.5318 41.7101 52.0092C45.8291 53.5205 49.9636 50.0254 49.9913 45.2595C50.0056 43.7197 49.586 42.266 48.8224 41.0547C51.3062 40.104 53.0784 37.4617 53.1014 34.3309C53.1234 31.2409 51.1952 28.4043 48.646 27.3304ZM31.7225 33.9978H34.9543L29.0279 43.2237L29.7007 35.7358C29.7561 35.1124 29.3254 34.5663 28.768 34.5663H25.0117L31.2008 24.6185L30.7871 32.8754C30.7565 33.4836 31.184 33.9978 31.7225 33.9978ZM20.1397 51.5202C20.137 51.1649 20.1654 50.8268 20.223 50.5156C20.2235 50.5132 20.2227 50.5111 20.223 50.5087C20.3933 49.5721 19.4629 48.8995 18.7878 49.4087C18.0638 49.9516 17.2149 50.2409 16.3468 50.2407C12.1288 50.2407 10.2446 44.1397 13.6166 41.2046C14.316 40.5968 13.8883 39.3331 13.0711 39.3053C10.6803 39.2198 8.79221 37.0274 8.77299 34.3133C8.75377 31.6007 10.9769 29.067 13.4381 28.9971C14.3915 28.9714 14.6451 27.5288 13.8885 27.0204C11.3706 25.3292 11.0104 21.4599 12.9997 19.1695C14.5408 17.3931 16.9837 17.164 18.7642 18.5932C19.4835 19.1697 20.418 18.3444 20.2103 17.4531C19.7041 14.3372 21.7998 11.5045 24.5614 11.4792C24.6552 11.526 29.0231 11.6768 29.0581 16.4712L29.0587 24.3745L22.4379 35.0164C22.0012 35.7192 22.4453 36.6906 23.2039 36.6906H27.7309L26.8119 46.919C26.715 47.994 27.9418 48.5254 28.5024 47.6514L29.0604 46.7826L29.0607 51.4371C29.0863 54.8539 26.7683 56.5583 24.489 56.5094C22.3087 56.4627 20.1637 54.8114 20.1397 51.5202ZM46.9517 39.3048L46.952 39.3175C46.0372 39.3215 45.6854 40.5962 46.3834 41.2045C47.5001 42.1764 48.1316 43.6464 48.1169 45.2418C48.0944 49.237 44.1124 51.5879 41.2121 49.4086C40.521 48.8894 39.6096 49.5882 39.7769 50.5086C39.7773 50.511 39.7766 50.5131 39.7769 50.5155C40.3318 53.5103 38.2509 56.5486 35.3635 56.5199C32.9088 56.4975 30.9183 54.2371 30.9391 51.4283L30.9397 43.8574L37.5538 33.5606C38.0033 32.8615 37.5626 31.8734 36.7959 31.8734H32.7147L33.2576 21.033C33.311 19.9702 32.098 19.4907 31.5561 20.3608L30.9416 21.3485L30.9419 16.4803C30.9655 13.2511 32.9749 11.684 35.0825 11.5779C37.6762 11.4473 40.4184 13.5292 39.7908 17.4486C39.5758 18.3895 40.5435 19.1471 41.236 18.5933C42.963 17.2065 45.4183 17.3461 47.0005 19.1696C48.9817 21.4506 48.6383 25.3235 46.1117 27.0205C45.3534 27.5293 45.6008 28.9713 46.5621 28.9972C49.0233 29.0672 51.2464 31.6008 51.2272 34.3134C51.2078 37.0273 49.3196 39.2198 46.9517 39.3048ZM3.47986 32.9377H0.945566C0.42748 32.9377 0.00830078 33.4133 0.00830078 34C0.00830078 34.5866 0.42748 35.0622 0.945566 35.0622H3.47998C3.99807 35.0622 4.41725 34.5866 4.41725 34C4.41725 33.4133 3.99795 32.9377 3.47986 32.9377ZM59.0544 32.9377H56.52C56.0019 32.9377 55.5827 33.4133 55.5827 34C55.5827 34.5866 56.0019 35.0622 56.52 35.0622H59.0544C59.5725 35.0622 59.9917 34.5866 59.9917 34C59.9917 33.4133 59.5725 32.9377 59.0544 32.9377ZM10.5842 13.4976C10.6712 13.5962 10.7745 13.6745 10.8882 13.7279C11.0019 13.7813 11.1238 13.8087 11.2469 13.8087C11.3699 13.8087 11.4918 13.7813 11.6055 13.7279C11.7192 13.6745 11.8225 13.5962 11.9095 13.4976C12.2756 13.0832 12.2756 12.4105 11.9095 11.9956L10.1184 9.96489C10.0314 9.86624 9.92811 9.78799 9.81441 9.7346C9.70072 9.68121 9.57885 9.65373 9.45578 9.65373C9.33271 9.65373 9.21085 9.68121 9.09715 9.7346C8.98345 9.78799 8.88015 9.86624 8.79315 9.96489C8.42705 10.3793 8.42705 11.052 8.79315 11.4669L10.5842 13.4976ZM49.4157 54.5018C49.0496 54.0869 48.4565 54.0869 48.0904 54.5018C47.7244 54.9167 47.7244 55.5889 48.0904 56.0038L49.8826 58.0349C50.2487 58.4498 50.8418 58.4498 51.2079 58.0349C51.574 57.62 51.574 56.9478 51.2079 56.5329L49.4157 54.5018ZM30 62.9944C29.8769 62.9944 29.755 63.0218 29.6413 63.0752C29.5275 63.1286 29.4242 63.2068 29.3372 63.3054C29.2501 63.4041 29.1811 63.5212 29.134 63.6501C29.0869 63.779 29.0627 63.9171 29.0627 64.0566V66.9284C29.0627 67.5151 29.4819 67.9907 30 67.9907C30.5181 67.9907 30.9372 67.5151 30.9372 66.9284V64.0566C30.9373 63.9171 30.9131 63.779 30.866 63.6501C30.8189 63.5212 30.7498 63.4041 30.6628 63.3054C30.5758 63.2068 30.4724 63.1286 30.3587 63.0752C30.245 63.0218 30.1231 62.9944 30 62.9944ZM49.4157 13.4981L51.2069 11.467C51.3827 11.2677 51.4815 10.9975 51.4815 10.7157C51.4815 10.434 51.3827 10.1637 51.2069 9.96449C50.8408 9.55065 50.2478 9.55012 49.8817 9.96502L48.0904 11.9961C47.9147 12.1954 47.8159 12.4656 47.8159 12.7474C47.8159 13.0291 47.9147 13.2994 48.0904 13.4986C48.2663 13.6976 48.5047 13.8094 48.7532 13.8093C49.0017 13.8092 49.24 13.6972 49.4157 13.4981ZM10.5842 54.5024L8.79221 56.5329C8.42611 56.9473 8.42611 57.62 8.79221 58.0349C9.1583 58.4498 9.75139 58.4498 10.1175 58.0349L11.9096 56.0043C12.2757 55.59 12.2757 54.9173 11.9096 54.5024C11.5435 54.0875 10.9503 54.0875 10.5842 54.5024Z" fill="black"/>
</g>
<defs>
<clipPath id="clip0_104_62">
<rect width="60" height="68" fill="white"/>
</clipPath>
</defs>
</svg>
