<svg width="22" height="28" viewBox="0 0 22 28" fill="none" xmlns="http://www.w3.org/2000/svg">
<path d="M10.7055 0C8.94637 0.0433817 7.27381 0.772463 6.04467 2.0317C4.81553 3.29094 4.12712 4.98064 4.1263 6.74032V8.24221H2.75433C1.24205 8.24221 0 9.47906 0 10.9965V24.7474C0 26.2545 1.24205 27.4965 2.75433 27.4965H19.2543C20.7614 27.4965 22.0035 26.2545 22.0035 24.7422V10.9965C22.0035 9.48945 20.7614 8.2474 19.2491 8.2474H17.8772V6.74032C17.8772 3.01417 14.8526 0 11.1213 0H10.7055ZM10.8822 1.36677H11.1213C11.8286 1.36265 12.5297 1.49874 13.1841 1.7672C13.8385 2.03566 14.4332 2.43115 14.9338 2.93081C15.4344 3.43048 15.8311 4.02441 16.1008 4.67828C16.3705 5.33216 16.508 6.033 16.5052 6.74032V8.24221H5.49827V6.73512C5.49827 3.74693 7.88882 1.36677 10.8822 1.36677ZM2.75433 9.62457H19.2543C19.4344 9.62248 19.6131 9.6564 19.7798 9.72435C19.9466 9.7923 20.0981 9.89289 20.2254 10.0202C20.3528 10.1476 20.4534 10.2991 20.5213 10.4658C20.5893 10.6326 20.6232 10.8113 20.6211 10.9913V24.7474C20.6232 24.9275 20.5893 25.1061 20.5213 25.2729C20.4534 25.4397 20.3528 25.5912 20.2254 25.7185C20.0981 25.8458 19.9466 25.9464 19.7798 26.0144C19.6131 26.0823 19.4344 26.1163 19.2543 26.1142H2.75433C2.57383 26.117 2.3946 26.0836 2.22723 26.0159C2.05985 25.9483 1.90773 25.8478 1.77984 25.7204C1.65195 25.593 1.55088 25.4412 1.48261 25.2741C1.41435 25.107 1.38026 24.9279 1.38236 24.7474V10.9913C1.38026 10.8108 1.41435 10.6317 1.48261 10.4646C1.55088 10.2975 1.65195 10.1458 1.77984 10.0183C1.90773 9.89094 2.05985 9.79045 2.22723 9.72282C2.3946 9.65519 2.57383 9.62178 2.75433 9.62457ZM10.9498 14.4317C10.4134 14.4504 9.90485 14.6753 9.53019 15.0597C9.15553 15.444 8.94361 15.9581 8.93858 16.4948C8.93858 17.3783 9.51543 18.1474 10.3106 18.4332V20.6315C10.3112 20.7216 10.3296 20.8107 10.3648 20.8936C10.3999 20.9766 10.451 21.0518 10.5151 21.115C10.5793 21.1783 10.6553 21.2282 10.7388 21.2621C10.8223 21.2959 10.9116 21.313 11.0017 21.3123C11.1828 21.3137 11.357 21.2434 11.4865 21.1169C11.616 20.9903 11.6902 20.8177 11.6929 20.6367V18.4384C12.0914 18.2928 12.436 18.0294 12.6811 17.6831C12.9262 17.3369 13.06 16.9242 13.0649 16.5C13.0608 15.9541 12.8421 15.4317 12.4561 15.0456C12.0701 14.6596 11.5477 14.4409 11.0017 14.4369H10.9498V14.4317ZM11.0017 15.7984C11.3655 15.7984 11.6929 16.131 11.6929 16.4948C11.6929 16.8586 11.3655 17.186 11.0017 17.186C10.8201 17.1808 10.6473 17.1063 10.5188 16.9777C10.3903 16.8492 10.3158 16.6765 10.3106 16.4948C10.3106 16.131 10.638 15.7984 11.0017 15.7984Z" fill="black"/>
</svg>
