<svg width="38" height="38" viewBox="0 0 38 38" fill="none" xmlns="http://www.w3.org/2000/svg">
<path d="M19 38C29.4934 38 38 29.4934 38 19C38 8.50659 29.4934 0 19 0C8.50659 0 0 8.50659 0 19C0 29.4934 8.50659 38 19 38Z" fill="#EBE3E3" fill-opacity="0.83"/>
<path d="M34.2472 30.3234C32.4752 27.951 30.1743 26.0246 27.5273 24.6974C24.8803 23.3701 21.9602 22.6785 18.9991 22.6776C16.038 22.6766 13.1175 23.3663 10.4696 24.6919C7.82181 26.0174 5.51964 27.9423 3.74609 30.3136C5.51057 32.6969 7.80894 34.6336 10.4569 35.9684C13.1049 37.3032 16.0288 37.999 18.9942 37.9999C21.9596 38.0009 24.8839 37.307 27.5328 35.9739C30.1816 34.6408 32.4812 32.7055 34.2472 30.3234Z" fill="#D077CF"/>
<path d="M19 20.2258C23.0619 20.2258 26.3548 16.9329 26.3548 12.871C26.3548 8.80899 23.0619 5.51611 19 5.51611C14.938 5.51611 11.6451 8.80899 11.6451 12.871C11.6451 16.9329 14.938 20.2258 19 20.2258Z" fill="#D077CF"/>
</svg>
