<svg width="45" height="45" viewBox="0 0 45 45" fill="none" xmlns="http://www.w3.org/2000/svg">
<path d="M24.6 45H20.4C19.7133 44.9994 19.0507 44.7472 18.5373 44.2912C18.0239 43.8351 17.6953 43.2068 17.6138 42.525L17.1656 39.0075C16.2802 38.7201 15.4188 38.3634 14.5894 37.9406L11.7881 40.1175C11.2472 40.5427 10.5687 40.7536 9.88208 40.71C9.19548 40.6664 8.54903 40.3714 8.06625 39.8813L5.11312 36.9281C4.62565 36.4458 4.33287 35.8009 4.29068 35.1165C4.24849 34.432 4.45983 33.756 4.88437 33.2175L7.06125 30.4144C6.63692 29.5857 6.28014 28.7242 5.99437 27.8381L2.46937 27.39C1.78842 27.3059 1.16165 26.9759 0.706903 26.4621C0.252158 25.9483 0.000767775 25.2861 0 24.6L0 20.4C0 18.9806 1.06312 17.7825 2.475 17.6138L5.9925 17.1656C6.2799 16.2802 6.63663 15.4188 7.05938 14.5894L4.88437 11.7881C4.45813 11.2472 4.24669 10.5679 4.29064 9.88067C4.33458 9.1934 4.63083 8.54658 5.1225 8.06438L8.07563 5.11125C8.55813 4.62415 9.203 4.33163 9.88733 4.28944C10.5716 4.24726 11.2476 4.45835 11.7862 4.8825L14.5875 7.06125C15.4174 6.63817 16.2794 6.28143 17.1656 5.99438L17.6138 2.46938C17.7825 1.06313 18.9806 0 20.4 0H24.6C26.0194 0 27.2175 1.06313 27.3863 2.475L27.8344 5.9925C28.7306 6.28313 29.5931 6.64125 30.4125 7.05938L33.2138 4.8825C33.7545 4.45678 34.4334 4.24566 35.1202 4.2896C35.8071 4.33354 36.4535 4.62946 36.9356 5.12063L39.8887 8.07375C40.8956 9.05063 40.9969 10.65 40.1175 11.7844L37.9406 14.5875C38.3606 15.4069 38.7188 16.2694 39.0075 17.1638L42.5325 17.6119C43.213 17.696 43.8393 18.0258 44.2936 18.5392C44.748 19.0526 44.9992 19.7144 45 20.4V24.6C45 26.0194 43.9369 27.2175 42.525 27.3863L39.0075 27.8344C38.7201 28.7198 38.3634 29.5812 37.9406 30.4106L40.1175 33.2119C40.5432 33.7526 40.7543 34.4315 40.7104 35.1184C40.6665 35.8052 40.3705 36.4516 39.8794 36.9338L36.9262 39.8869C36.4442 40.3747 35.7992 40.6678 35.1146 40.71C34.4301 40.7522 33.754 40.5406 33.2156 40.1156L30.4125 37.9388C29.5838 38.3631 28.7223 38.7199 27.8362 39.0056L27.3881 42.5306C27.3044 43.2114 26.9749 43.8382 26.4614 44.2929C25.9479 44.7477 25.2859 44.9992 24.6 45ZM14.4937 35.8875C14.6494 35.8875 14.8087 35.9269 14.9512 36.0056C16.0035 36.5914 17.1196 37.0544 18.2775 37.3856C18.4535 37.4361 18.6109 37.5371 18.7302 37.6761C18.8495 37.815 18.9255 37.9859 18.9487 38.1675L19.4737 42.2925C19.53 42.7631 19.9369 43.125 20.4 43.125H24.6C24.8273 43.1219 25.0459 43.037 25.2157 42.8858C25.3855 42.7347 25.4951 42.5273 25.5244 42.3019L26.0513 38.1694C26.0745 37.9877 26.1505 37.8169 26.2698 37.6779C26.3891 37.539 26.5465 37.438 26.7225 37.3875C27.8804 37.0563 28.9965 36.5933 30.0487 36.0075C30.2093 35.9178 30.3928 35.8774 30.5762 35.8914C30.7597 35.9054 30.9349 35.9732 31.08 36.0863L34.3612 38.6363C34.538 38.7785 34.7609 38.8506 34.9875 38.8389C35.214 38.8271 35.4283 38.7323 35.5894 38.5725L38.5612 35.6006C38.7238 35.4396 38.8212 35.2243 38.8347 34.9959C38.8482 34.7675 38.7769 34.5421 38.6344 34.3631L36.0844 31.0819C35.9716 30.9367 35.9039 30.7615 35.8899 30.5781C35.8759 30.3947 35.9162 30.2113 36.0056 30.0506C36.5914 28.9983 37.0544 27.8823 37.3856 26.7244C37.4361 26.5484 37.5371 26.391 37.6761 26.2717C37.815 26.1524 37.9859 26.0764 38.1675 26.0531L42.2925 25.5281C42.5198 25.4997 42.7292 25.3901 42.8822 25.2196C43.0351 25.0491 43.1213 24.829 43.125 24.6V20.4C43.1219 20.1727 43.037 19.9541 42.8858 19.7843C42.7346 19.6145 42.5273 19.5049 42.3019 19.4756L38.1694 18.9488C37.9877 18.9255 37.8169 18.8495 37.6779 18.7302C37.539 18.6109 37.438 18.4535 37.3875 18.2775C37.0563 17.1196 36.5933 16.0035 36.0075 14.9513C35.9173 14.7908 35.8767 14.6072 35.8907 14.4237C35.9047 14.2402 35.9727 14.0649 36.0863 13.92L38.6363 10.6388C38.779 10.4627 38.8516 10.2401 38.8402 10.0138C38.8288 9.78742 38.7341 9.57327 38.5744 9.4125L35.6025 6.44063C35.4422 6.27691 35.2266 6.17874 34.9979 6.16522C34.7691 6.1517 34.5435 6.22381 34.365 6.3675L31.0837 8.9175C30.9383 9.03071 30.7628 9.09856 30.5791 9.11257C30.3953 9.12657 30.2115 9.08611 30.0506 8.99625C28.9986 8.40998 27.8825 7.94692 26.7244 7.61625C26.5484 7.56573 26.391 7.46476 26.2717 7.32581C26.1524 7.18686 26.0764 7.01602 26.0531 6.83438L25.5281 2.70938C25.5001 2.48173 25.3907 2.27189 25.2202 2.11855C25.0496 1.96521 24.8293 1.87871 24.6 1.875H20.4C20.1727 1.87807 19.9541 1.96298 19.7843 2.11417C19.6145 2.26535 19.5049 2.47268 19.4756 2.69813L18.9487 6.83063C18.9253 7.01244 18.8493 7.18346 18.7301 7.32269C18.6109 7.46191 18.4536 7.56329 18.2775 7.61438C17.1195 7.9444 16.0034 8.40683 14.9512 8.9925C14.7905 9.08263 14.6068 9.1234 14.4231 9.10973C14.2394 9.09606 14.0637 9.02854 13.9181 8.91563L10.6369 6.36563C10.4608 6.22287 10.2383 6.15023 10.0119 6.16165C9.78554 6.17307 9.5714 6.26775 9.41063 6.4275L6.43875 9.40125C6.27617 9.56224 6.17879 9.7776 6.16529 10.006C6.1518 10.2344 6.22314 10.4597 6.36562 10.6388L8.91563 13.92C9.02845 14.0652 9.09607 14.2404 9.11007 14.4238C9.12407 14.6071 9.08384 14.7906 8.99438 14.9513C8.40783 16.0032 7.94476 17.1193 7.61437 18.2775C7.56385 18.4535 7.46288 18.6109 7.32394 18.7302C7.18499 18.8495 7.01414 18.9255 6.8325 18.9488L2.7075 19.4738C2.4802 19.5014 2.27061 19.6105 2.11754 19.7808C1.96448 19.9511 1.87831 20.171 1.875 20.4V24.6C1.875 25.0631 2.23688 25.47 2.69813 25.5244L6.83062 26.0513C7.01227 26.0745 7.18311 26.1505 7.32206 26.2698C7.46101 26.3891 7.56198 26.5465 7.6125 26.7225C7.95 27.8963 8.415 29.0156 8.9925 30.0488C9.08269 30.2092 9.12334 30.3928 9.10932 30.5763C9.09531 30.7598 9.02726 30.9351 8.91375 31.08L6.36375 34.3613C6.221 34.5373 6.14835 34.7599 6.15977 34.9862C6.17119 35.2126 6.26588 35.4267 6.42562 35.5875L9.3975 38.5594C9.55827 38.7223 9.7737 38.82 10.0022 38.8335C10.2307 38.847 10.4562 38.7754 10.635 38.6325L13.9162 36.0825C14.0826 35.9569 14.2852 35.8884 14.4937 35.8875Z" fill="white"/>
<path d="M22.4999 31.9355C17.2791 31.9355 13.0316 27.7028 13.0316 22.5001C13.0316 17.2973 17.2791 13.0646 22.4999 13.0646C27.7208 13.0646 31.9683 17.2973 31.9683 22.5001C31.9683 27.7028 27.7208 31.9355 22.4999 31.9355ZM22.4999 14.9517C18.3225 14.9517 14.9253 18.3371 14.9253 22.5001C14.9253 26.663 18.3225 30.0484 22.4999 30.0484C26.6774 30.0484 30.0746 26.663 30.0746 22.5001C30.0746 18.3371 26.6774 14.9517 22.4999 14.9517Z" fill="white"/>
</svg>
