<svg width="24" height="22" viewBox="0 0 24 22" fill="none" xmlns="http://www.w3.org/2000/svg">
<path d="M12 22C4.1488 22 0.256292 11.9614 0.0944789 11.5343C0.0325173 11.3708 0 11.1869 0 10.9999C0 10.8128 0.0325173 10.6289 0.0944789 10.4654C0.256292 10.0386 4.1488 0 12 0C19.8512 0 23.7437 10.0386 23.9055 10.4657C23.9675 10.6292 24 10.8131 24 11.0001C24 11.1872 23.9675 11.3711 23.9055 11.5346C23.7437 11.9614 19.8512 22 12 22ZM1.63254 10.9984C2.52467 12.9814 6.02736 19.8 12 19.8C17.9916 19.8 21.4787 12.9869 22.3675 11.0016C21.4753 9.01862 17.9726 2.2 12 2.2C6.00843 2.2 2.5213 9.01313 1.63254 10.9984ZM12 17.6C9.51862 17.6 7.49999 14.6394 7.49999 11C7.49999 7.36065 9.51862 4.4 12 4.4C14.4814 4.4 16.5 7.36065 16.5 11C16.5 14.6394 14.4814 17.6 12 17.6ZM12 6.6C10.3459 6.6 8.99999 8.57395 8.99999 11C8.99999 13.4261 10.3459 15.4 12 15.4C13.6541 15.4 15 13.4261 15 11C15 8.57395 13.6541 6.6 12 6.6Z" fill="black"/>
</svg>
