<svg width="80" height="80" viewBox="0 0 80 80" fill="none" xmlns="http://www.w3.org/2000/svg">
<g clip-path="url(#clip0_7_2)">
<path d="M59.1876 64.9815C57.1477 63.2763 55.2402 60.7302 55.2402 57.1708L43.2625 53.4301L37.3316 57.1708C40.4371 66.4488 49.6078 71.2041 54.3649 73.1044C56.0891 73.793 58.055 73.4188 59.4084 72.148C61.5058 70.1788 61.3947 66.8266 59.1876 64.9815Z" fill="url(#paint0_linear_7_2)"/>
<path d="M55.2402 57.1708L43.2625 53.4301L37.3316 57.1708C37.9683 59.0728 38.8626 60.7817 39.9187 62.3179H56.7822C55.8653 60.9123 55.2402 59.2078 55.2402 57.1708Z" fill="#8959C3"/>
<path d="M73.9543 35.521C74.5588 33.9264 74.8681 32.2351 74.8669 30.5297C74.8669 23.1589 69.2064 17.1138 61.9957 16.4951C60.2239 10.7391 54.8647 6.55522 48.5275 6.55522C45.3218 6.55522 42.3677 7.62757 40 9.4306C37.6324 7.62757 34.6783 6.55522 31.4725 6.55522C25.1353 6.55522 19.7761 10.7391 18.0043 16.4951C10.7938 17.1138 5.13307 23.1589 5.13307 30.5297C5.13197 32.2351 5.44123 33.9264 6.04574 35.521C2.44829 37.4716 0 41.2822 0 45.6534C0 52.0049 5.16606 57.171 11.5176 57.171H68.4826C74.8341 57.171 80.0002 52.0049 80.0002 45.6534C80 41.2822 77.5517 37.4716 73.9543 35.521Z" fill="url(#paint1_linear_7_2)"/>
<path d="M53.7227 15.6485C52.7826 14.6794 51.567 13.967 50.2996 13.6429C49.3817 13.4081 48.8279 12.4735 49.0626 11.5555C49.2975 10.6376 50.2311 10.0834 51.1501 10.3186C53.0496 10.8045 54.7909 11.8214 56.1857 13.2594C56.8454 13.9396 56.8289 15.0258 56.1487 15.6856C55.4687 16.345 54.3825 16.3289 53.7227 15.6485ZM41.0524 15.0751C40.4873 14.3144 40.6459 13.2397 41.4067 12.6746C42.0316 12.2105 42.8701 11.6151 43.8159 11.1267C44.6575 10.6921 45.6928 11.022 46.1277 11.8642C46.5622 12.7061 46.2322 13.741 45.3903 14.1758C44.6639 14.5506 43.9735 15.0426 43.4529 15.4292C42.6918 15.9943 41.6172 15.8357 41.0524 15.0751Z" fill="#FDC6E3"/>
<path d="M20.1262 34.5034C18.8924 33.5482 17.5081 32.8051 16.0301 32.3047C17.1524 31.4728 18.1412 30.3579 18.6016 28.876C18.6517 28.7146 18.6696 28.545 18.6541 28.3767C18.6387 28.2084 18.5903 28.0448 18.5116 27.8952C18.4329 27.7457 18.3256 27.6131 18.1957 27.505C18.0657 27.3969 17.9158 27.3155 17.7544 27.2653C17.593 27.2152 17.4234 27.1974 17.2551 27.2128C17.0868 27.2282 16.9232 27.2767 16.7736 27.3553C16.6241 27.434 16.4915 27.5414 16.3834 27.6713C16.2753 27.8012 16.1939 27.9511 16.1437 28.1125C15.6864 29.585 14.2128 30.5466 13.0572 31.094C12.6755 31.2737 12.2845 31.4329 11.8859 31.5708C11.7632 31.5677 11.641 31.563 11.5173 31.563C9.30534 31.563 7.21307 32.074 5.35028 32.9823C5.50182 33.8485 5.73472 34.6985 6.0459 35.521C7.72557 34.6097 9.60667 34.1335 11.5176 34.1358C14.1641 34.1358 16.604 35.0346 18.549 36.5418C19.058 36.9363 19.7831 36.8821 20.2386 36.4268C20.7839 35.8813 20.7363 34.9758 20.1262 34.5034ZM38.4231 20.8368C36.9353 20.8292 36.0069 20.4959 35.4282 20.0975C34.8204 19.6792 34.5222 18.9283 34.6494 18.2014C35.2732 14.6379 37.236 11.5355 40.0002 9.43044C39.2775 8.87994 38.5033 8.40063 37.6883 7.99921C34.6902 10.5726 32.614 14.1909 32.0308 18.2838C31.9163 19.0865 31.4459 19.8061 30.7439 20.2118C30.1482 20.556 29.2714 20.8293 27.9869 20.8367C27.2873 20.8406 26.6754 21.3731 26.6481 22.072C26.6412 22.2452 26.6693 22.418 26.7308 22.5801C26.7922 22.7421 26.8858 22.8901 27.0059 23.0151C27.126 23.1401 27.2701 23.2395 27.4295 23.3074C27.589 23.3754 27.7605 23.4104 27.9339 23.4104C30.7543 23.4104 32.3412 22.4513 33.2046 21.5699C34.068 22.4513 35.6551 23.4104 38.4754 23.4104C38.6486 23.4104 38.8201 23.3754 38.9795 23.3075C39.1389 23.2397 39.2829 23.1403 39.403 23.0154C39.523 22.8905 39.6167 22.7427 39.6782 22.5807C39.7397 22.4188 39.7679 22.2461 39.7611 22.073C39.7343 21.3742 39.1226 20.8403 38.4231 20.8368ZM68.4827 31.563C67.924 31.563 67.3737 31.5978 66.832 31.6612C65.3708 29.9383 62.8784 28.1992 58.6913 27.8657C57.9783 27.8064 57.363 28.3379 57.3063 29.0461C57.2792 29.3863 57.3884 29.7233 57.6098 29.983C57.8312 30.2427 58.1467 30.4038 58.4869 30.4309C60.9374 30.6263 62.6507 31.3914 63.8486 32.3444C62.4157 32.8448 61.0733 33.5739 59.8735 34.5034C59.2634 34.9756 59.2158 35.8811 59.7613 36.4266C60.2166 36.8819 60.9418 36.9361 61.4508 36.5417C63.3959 35.0344 65.8359 34.1356 68.4822 34.1356C70.3932 34.1333 72.2743 34.6095 73.9539 35.5208C74.2651 34.6983 74.498 33.8484 74.6496 32.9822C72.7869 32.0739 70.6948 31.563 68.4827 31.563ZM64.0222 46.2682C62.8794 49.8818 60.651 51.4046 58.9109 52.0462C57.9111 50.5536 57.2483 48.8171 57.0386 46.9442C56.9594 46.2362 56.3328 45.7202 55.6242 45.7949C54.9133 45.87 54.4006 46.5103 54.4797 47.2209C54.9366 51.3259 57.1657 54.9022 60.3804 57.1708H68.4826C65.4644 57.1708 62.7155 56.0019 60.6599 54.0951C62.6212 53.1684 65.1619 51.1992 66.4762 47.0441C66.5736 46.7203 66.5397 46.371 66.3817 46.072C66.2236 45.7729 65.9543 45.5481 65.6318 45.4462C65.3093 45.3442 64.9596 45.3733 64.6584 45.5271C64.3572 45.6809 64.1286 45.9472 64.0222 46.2682Z" fill="#FD75BE"/>
<path d="M12.9034 53.429C14.5386 53.429 15.8642 52.3637 15.8642 51.0496C15.8642 49.7354 14.5386 48.6701 12.9034 48.6701C11.2682 48.6701 9.94263 49.7354 9.94263 51.0496C9.94263 52.3637 11.2682 53.429 12.9034 53.429Z" fill="#FD75BE"/>
<path d="M47.7468 53.429C49.382 53.429 50.7076 52.3637 50.7076 51.0496C50.7076 49.7354 49.382 48.6701 47.7468 48.6701C46.1116 48.6701 44.786 49.7354 44.786 51.0496C44.786 52.3637 46.1116 53.429 47.7468 53.429Z" fill="#FD75BE"/>
<path d="M17.9796 51.0496C21.2222 51.0496 23.8508 48.4209 23.8508 45.1783C23.8508 41.9357 21.2222 39.3071 17.9796 39.3071C14.737 39.3071 12.1084 41.9357 12.1084 45.1783C12.1084 48.4209 14.737 51.0496 17.9796 51.0496Z" fill="white"/>
<path d="M42.6706 51.0496C45.9132 51.0496 48.5418 48.4209 48.5418 45.1783C48.5418 41.9357 45.9132 39.3071 42.6706 39.3071C39.428 39.3071 36.7994 41.9357 36.7994 45.1783C36.7994 48.4209 39.428 51.0496 42.6706 51.0496Z" fill="white"/>
<path d="M17.9796 48.6776C19.9122 48.6776 21.4789 47.1109 21.4789 45.1783C21.4789 43.2457 19.9122 41.679 17.9796 41.679C16.047 41.679 14.4803 43.2457 14.4803 45.1783C14.4803 47.1109 16.047 48.6776 17.9796 48.6776Z" fill="#383842"/>
<path d="M42.6706 48.6776C44.6032 48.6776 46.1699 47.1109 46.1699 45.1783C46.1699 43.2457 44.6032 41.679 42.6706 41.679C40.738 41.679 39.1713 43.2457 39.1713 45.1783C39.1713 47.1109 40.738 48.6776 42.6706 48.6776Z" fill="#383842"/>
<path d="M30.3251 51.0405C29.3318 51.0405 28.3385 50.6649 27.5283 49.9136C27.4512 49.8426 27.389 49.757 27.345 49.6618C27.3011 49.5667 27.2764 49.4638 27.2723 49.359C27.2682 49.2543 27.2848 49.1498 27.3212 49.0515C27.3575 48.9532 27.4129 48.863 27.4842 48.7861C27.5554 48.7093 27.6412 48.6472 27.7365 48.6035C27.8317 48.5599 27.9347 48.5354 28.0395 48.5316C28.1442 48.5278 28.2487 48.5447 28.3469 48.5813C28.4451 48.6179 28.5351 48.6735 28.6118 48.745C29.6206 49.6803 31.0298 49.6803 32.0386 48.745C32.1937 48.602 32.3991 48.5263 32.6099 48.5346C32.8207 48.5428 33.0196 48.6343 33.1631 48.789C33.3065 48.9437 33.3827 49.149 33.3751 49.3598C33.3674 49.5706 33.2764 49.7698 33.1221 49.9136C32.3117 50.6649 31.3184 51.0405 30.3251 51.0405Z" fill="#383842"/>
</g>
<defs>
<linearGradient id="paint0_linear_7_2" x1="49.123" y1="53.4301" x2="49.123" y2="73.4448" gradientUnits="userSpaceOnUse">
<stop offset="0.022" stop-color="#8959C3"/>
<stop offset="1" stop-color="#A27CCF"/>
</linearGradient>
<linearGradient id="paint1_linear_7_2" x1="40" y1="6.55522" x2="40" y2="57.1708" gradientUnits="userSpaceOnUse">
<stop offset="0.021" stop-color="#FFB1DB"/>
<stop offset="1" stop-color="#FD86C8"/>
</linearGradient>
<clipPath id="clip0_7_2">
<rect width="80" height="80" fill="white"/>
</clipPath>
</defs>
</svg>
