<svg width="264" height="264" viewBox="0 0 264 264" fill="none" xmlns="http://www.w3.org/2000/svg">
<path d="M263.497 98.2573C263.092 97.1002 262.454 96.0446 261.624 95.1599C260.795 94.2751 259.793 93.5813 258.685 93.124L254.468 91.3826C253.556 91.0061 252.587 90.7962 251.605 90.7624C250.517 90.1756 249.321 89.8312 248.095 89.7517L246.291 88.9131C245.182 88.0134 243.876 87.4062 242.487 87.1441L238.121 85.1147C237.029 84.6049 235.845 84.3409 234.646 84.3404C233.245 84.3412 231.865 84.7005 230.632 85.3861C229.398 86.0717 228.349 87.0621 227.579 88.2685C227.3 88.0559 227.016 87.8495 226.729 87.6495C228.645 86.8306 230.291 85.4723 231.424 83.6708C232.777 81.524 233.241 79.0843 232.904 76.7733C233.704 75.9322 234.42 75.0106 235.041 74.0222C237.609 69.9479 238.15 65.3587 236.563 61.0985C235.341 57.8192 232.935 54.9613 229.305 52.5323C228.853 52.2434 228.392 51.9691 227.924 51.7097C227.795 51.6374 227.668 51.5699 227.568 51.5072C227.426 51.4116 227.31 51.3085 227.198 51.2192C226.775 50.8746 226.338 50.5484 225.888 50.2414C224.521 49.3253 222.97 48.8093 221.37 48.6823C220.379 47.1684 219.014 45.9541 217.417 45.1644C216 44.455 214.521 44.0952 213.021 44.0952C212.701 44.0952 212.383 44.1117 212.071 44.1425C211.092 42.5871 209.689 41.3091 207.976 40.454C206.634 39.7829 205.217 39.4428 203.764 39.4428C202.744 39.4446 201.73 39.6143 200.762 39.9455C200.295 39.353 199.799 38.7854 199.25 38.2663C203.722 35.6284 206.677 31.0535 207.854 26.4899C210.446 16.4001 205.385 7.76166 195.262 4.99359C194.512 4.78846 193.759 4.63861 193.009 4.49885C192.858 4.47069 192.707 4.44465 192.559 4.41648C192.018 4.16293 191.458 3.95569 190.885 3.79687C190.036 3.56239 189.161 3.44288 188.282 3.44136C187.196 3.44136 186.15 3.62629 185.175 3.97276C184.014 3.08319 182.45 2.30628 180.329 2.0002C179.891 1.94317 179.449 1.91512 179.007 1.91624L173.598 1.14039C173.03 1.05232 172.457 1.0065 171.883 1.00329C170.655 1.00027 169.437 1.24244 168.298 1.71643C167.026 0.881596 165.308 0.203527 163.044 0.130193C162.954 0.127452 162.865 0.126035 162.775 0.125942C162.555 0.125942 162.182 0.142416 161.69 0.191305L156.203 0.0100967C156.028 0.0038195 155.852 0.000453494 155.676 0C154.086 0 152.618 0.36401 151.323 1.00966C150.049 0.474554 148.686 0.201425 147.31 0.205653C146.987 0.205653 146.641 0.218406 146.264 0.24657L140.207 0.714736C140.057 0.709953 139.895 0.706234 139.713 0.706234C139.37 0.706234 138.945 0.717393 138.337 0.763625C132.957 1.193 129.22 5.94108 129.645 11.8078C129.649 11.8667 130.887 25.2878 130.887 25.2878C130.89 25.392 130.89 25.4956 130.892 25.5966C130.895 25.7501 130.902 25.9473 130.907 26.1312C126.514 26.9224 122.438 29.01 119.174 32.1408C118.89 30.7728 118.489 29.4338 117.973 28.1399C117.819 27.744 117.651 27.3507 117.491 27.0021C113.733 18.7829 105.607 13.4721 96.7892 13.4721C95.2057 13.4721 93.6124 13.6437 92.0547 13.9817C86.0441 15.2852 80.9182 18.9068 77.5878 24.1931C77.5543 24.2442 77.5203 24.2952 77.4878 24.3472C77.2108 24.7812 76.9524 25.2275 76.7133 25.6848C73.8993 30.9297 73.1292 37.0824 74.5595 42.8916C72.8105 42.4599 71.0182 42.2424 69.2197 42.2438C66.6122 42.2438 64.0361 42.7029 61.5647 43.6079C55.8717 45.6915 51.1516 50.0836 48.5632 55.6883C48.3087 56.2188 48.0795 56.7619 47.8764 57.3154C45.8844 62.5897 45.8 68.4266 47.6387 73.7597C47.9182 74.5723 48.2401 75.3688 48.6029 76.1457C48.1301 76.1791 47.6562 76.2264 47.186 76.2881C45.9839 76.4444 44.8284 76.865 43.7976 77.5214C42.7669 78.1778 41.8849 79.0547 41.2114 80.0927C40.538 81.1308 40.0887 82.3058 39.8939 83.5382C39.6992 84.7707 39.7636 86.0319 40.0827 87.2365C40.1642 87.5448 41.0211 90.5929 43.3492 94.6268C39.648 95.0482 36.4357 97.473 34.9837 101.076L34.1741 103.084L32.37 103.857C28.4656 105.528 25.9767 109.425 26.0278 113.781C26.0788 118.138 28.6585 121.971 32.6035 123.546L34.1747 124.173L34.9687 126.198C35.3286 127.116 35.8133 127.948 36.3779 128.703C33.9447 130.022 31.4733 131.298 29.2205 132.46C13.9606 140.31 8.20049 152.302 6.69538 156.112C-7.33017 180.365 4.18686 207.898 9.6329 218.376C3.16695 236.013 2.97875 254.167 2.97307 254.991C2.96614 256.141 3.17987 257.281 3.60195 258.345C4.02404 259.409 4.64616 260.377 5.43251 261.192C6.21887 262.008 7.15393 262.655 8.1839 263.097C9.21387 263.538 10.3184 263.766 11.434 263.766H154.77C155.4 263.834 156.036 263.834 156.667 263.766H166.22C166.858 263.921 167.511 264 168.166 264H224.602C225.767 264 226.918 263.752 227.986 263.272C229.053 262.793 230.012 262.091 230.805 261.211C231.597 260.332 232.204 259.293 232.588 258.16C232.973 257.028 233.127 255.825 233.04 254.629C232.554 247.946 228.761 242.336 225.928 239.02V235.726C225.928 233.781 225.31 231.984 224.265 230.534L230.596 191.35L250.523 129.495C251.027 128.701 251.405 127.831 251.645 126.916L262.978 105.373C263.546 104.292 263.887 103.099 263.976 101.873C264.066 100.646 263.903 99.4141 263.497 98.2573Z" fill="#CCF17B"/>
<path d="M104.187 121.091C104.288 121.133 104.399 121.147 104.508 121.131C104.617 121.115 104.719 121.069 104.804 121C104.89 120.93 104.954 120.839 104.992 120.736C105.029 120.632 105.038 120.521 105.017 120.413C100.287 95.9254 97.8164 71.055 97.6368 46.1153C97.6366 46.0352 97.6205 45.956 97.5895 45.8821C97.5585 45.8083 97.5132 45.7414 97.4562 45.6851C97.3992 45.6289 97.3316 45.5845 97.2574 45.5546C97.1831 45.5246 97.1037 45.5096 97.0236 45.5105C96.9436 45.511 96.8645 45.5273 96.7908 45.5584C96.7171 45.5894 96.6503 45.6348 96.5941 45.6917C96.538 45.7487 96.4936 45.8161 96.4635 45.8902C96.4334 45.9644 96.4183 46.0437 96.4189 46.1237C96.5923 71.074 99.0826 96.1462 103.821 120.644C103.862 120.853 104.005 121.016 104.187 121.091Z" fill="black"/>
<path d="M99.8008 91.3063C99.8008 91.3063 122.49 78.5135 118.418 62.0215C118.418 62.0215 102.183 68.5542 99.8008 91.3063ZM98.0638 76.8412C98.0638 76.8412 91.2915 51.6896 74.3046 51.5488C74.3046 51.5488 76.611 68.8957 98.0638 76.8412Z" fill="black"/>
<path d="M83.6035 38.7356C84.2652 41.9029 85.9567 44.7621 88.414 46.8671C88.611 47.0436 88.8122 47.2049 89.0345 47.362C90.7168 48.6663 92.6632 49.5883 94.7382 50.0635C96.8132 50.5388 98.9668 50.556 101.049 50.114C109.004 48.4396 114.097 40.6312 112.421 32.6694C112.234 31.7838 111.967 30.9172 111.621 30.0808C111.53 29.8536 111.432 29.6293 111.327 29.4083C108.487 23.3795 101.789 19.8641 94.983 21.2968C93.0581 21.6989 91.2338 22.4845 89.6191 23.6067C88.0043 24.729 86.6321 26.165 85.5842 27.829L85.5774 27.8306C85.4235 28.0665 85.2779 28.3082 85.1476 28.554C83.4172 31.649 82.8685 35.2667 83.6035 38.7356Z" fill="#FFBEFF"/>
<path d="M88.414 46.867C88.611 47.0436 88.8122 47.2049 89.0345 47.362C89.6282 44.6184 91.2889 42.0718 93.6217 40.504C96.6422 38.4718 100.751 38.0867 104.095 39.5289C104.255 39.5972 104.488 39.7007 104.762 39.6214C105.127 39.5226 105.324 39.1832 105.344 38.6184C105.456 36.1433 105.991 34.2629 106.983 32.8611C108.053 31.3412 109.787 30.3508 111.621 30.0808C111.53 29.8535 111.432 29.6293 111.327 29.4083C109.376 29.7461 107.545 30.83 106.403 32.4524C105.865 33.2131 105.448 34.1011 105.148 35.1319C105.053 35.4693 104.974 35.8112 104.913 36.1564L104.914 36.1632C104.766 36.9631 104.673 37.7724 104.639 38.5853C104.621 38.88 104.561 38.9436 104.561 38.9436C104.532 38.9426 104.428 38.8989 104.372 38.8742C100.812 37.3396 96.4394 37.751 93.2208 39.9124C90.8382 41.5191 89.1149 44.0788 88.414 46.867Z" fill="black"/>
<path d="M85.1481 28.5535C86.3224 28.5261 87.4871 28.7714 88.5506 29.2701C90.7714 30.3157 92.6828 32.4157 93.9421 35.1845C93.9847 35.2843 94.0735 35.3605 94.1801 35.3815C94.2327 35.3956 94.2878 35.3971 94.341 35.3858C94.3943 35.3746 94.4441 35.351 94.4864 35.3169C96.2859 33.9125 98.2819 33.1649 100.117 33.2079C102.238 33.2631 104.154 34.4531 104.912 36.1559L104.914 36.1627C104.917 36.1769 104.925 36.1822 104.928 36.1958C104.991 36.3571 105.161 36.4381 105.328 36.4029C105.352 36.3987 105.374 36.3915 105.396 36.3813C105.577 36.3067 105.656 36.0939 105.582 35.9132C105.466 35.6376 105.321 35.3755 105.148 35.1314C104.125 33.5862 102.213 32.5559 100.135 32.4987C97.7859 32.433 95.7679 33.4906 94.4003 34.4915C93.0773 31.7657 91.1197 29.6899 88.86 28.6307C87.8329 28.1476 86.7194 27.875 85.5853 27.829L85.5784 27.8306C85.424 28.0665 85.2784 28.3081 85.1481 28.5535ZM130.62 133.243C130.518 133.285 130.407 133.299 130.298 133.282C130.19 133.266 130.087 133.221 130.002 133.152C129.917 133.082 129.852 132.991 129.815 132.888C129.777 132.784 129.768 132.673 129.789 132.565C134.52 108.077 136.99 83.2067 137.17 58.267C137.17 58.187 137.186 58.1077 137.217 58.0339C137.248 57.9601 137.293 57.8931 137.35 57.8369C137.407 57.7807 137.475 57.7363 137.549 57.7063C137.623 57.6764 137.703 57.6614 137.783 57.6623C138.119 57.6644 138.39 57.9387 138.388 58.2754C138.208 83.2899 135.73 108.235 130.985 132.796C130.966 132.895 130.923 132.988 130.859 133.066C130.795 133.144 130.713 133.205 130.62 133.243Z" fill="black"/>
<path d="M135.006 103.459C135.006 103.459 112.317 90.6659 116.389 74.1738C116.389 74.1738 132.624 80.7066 135.006 103.459ZM136.743 88.9931C136.743 88.9931 143.516 63.8415 160.502 63.7007C160.502 63.7007 158.195 81.0481 136.743 88.9931Z" fill="black"/>
<path d="M151.203 50.8879C150.541 54.0551 148.85 56.9143 146.393 59.0194C146.196 59.1959 145.994 59.3572 145.772 59.5143C144.09 60.8186 142.143 61.7405 140.068 62.2158C137.993 62.6911 135.84 62.7083 133.757 62.2663C125.802 60.5918 120.71 52.7835 122.386 44.8217C122.572 43.936 122.84 43.0695 123.185 42.2331C123.277 42.0051 123.376 41.7786 123.48 41.5606C126.32 35.5312 133.018 32.0163 139.824 33.449C141.748 33.851 143.573 34.6365 145.187 35.7588C146.802 36.8811 148.174 38.3171 149.222 39.9812L149.229 39.9828C149.383 40.2187 149.528 40.4604 149.658 40.7063C151.39 43.801 151.938 47.4189 151.203 50.8879Z" fill="#FFBEFF"/>
<path d="M146.393 59.0194C146.196 59.1959 145.994 59.3572 145.772 59.5143C145.178 56.7707 143.518 54.2241 141.185 52.6564C138.165 50.6241 134.056 50.239 130.712 51.6812C130.552 51.7495 130.319 51.853 130.045 51.7737C129.68 51.6749 129.483 51.3355 129.463 50.7707C129.352 48.2956 128.816 46.4152 127.824 45.0135C126.754 43.4935 125.021 42.5032 123.186 42.2331C123.277 42.0051 123.376 41.7786 123.48 41.5606C125.432 41.8984 127.262 42.9823 128.404 44.6047C128.942 45.3655 129.359 46.2534 129.659 47.2842C129.751 47.6089 129.831 47.953 129.894 48.3087L129.893 48.3156C130.035 49.0585 130.127 49.8634 130.168 50.7376C130.186 51.0324 130.246 51.0959 130.246 51.0959C130.275 51.0949 130.379 51.0513 130.435 51.0266C133.995 49.4919 138.368 49.9033 141.586 52.0648C143.968 53.6714 145.692 56.2311 146.393 59.0194Z" fill="black"/>
<path d="M149.658 40.7058C148.484 40.6783 147.319 40.9236 146.256 41.4224C144.035 42.4679 142.124 44.5679 140.864 47.3362C140.844 47.3859 140.811 47.4298 140.77 47.4641C140.728 47.4984 140.679 47.5221 140.626 47.5332C140.574 47.5473 140.519 47.5488 140.465 47.5376C140.412 47.5263 140.362 47.5027 140.32 47.4686C138.521 46.0642 136.525 45.3166 134.69 45.3597C132.569 45.4148 130.652 46.6049 129.894 48.3077L129.892 48.3145C129.889 48.3287 129.881 48.3339 129.878 48.3476C129.847 48.4242 129.79 48.4871 129.716 48.5251C129.643 48.5631 129.558 48.5735 129.478 48.5546C129.454 48.5505 129.431 48.5432 129.41 48.533C129.229 48.4584 129.15 48.2457 129.225 48.0649C129.34 47.7894 129.486 47.5272 129.658 47.2831C130.682 45.738 132.594 44.7077 134.672 44.6504C137.021 44.5847 139.039 45.6423 140.406 46.6432C141.729 43.9175 143.687 41.8417 145.946 40.7825C146.974 40.2992 148.087 40.0266 149.221 39.9807L149.228 39.9823C149.383 40.2187 149.528 40.4604 149.658 40.7058ZM87.4609 147.949C87.5673 147.978 87.6794 147.977 87.7852 147.946C87.8911 147.916 87.9867 147.858 88.0619 147.777C88.1372 147.697 88.1892 147.597 88.2124 147.49C88.2356 147.382 88.2292 147.27 88.1938 147.166C80.239 123.528 74.4728 99.2096 70.9678 74.5168C70.9569 74.4375 70.9304 74.3611 70.8899 74.2921C70.8493 74.2231 70.7955 74.1628 70.7315 74.1147C70.6675 74.0665 70.5946 74.0316 70.517 74.0118C70.4395 73.992 70.3587 73.9878 70.2795 73.9993C70.2003 74.0105 70.1241 74.0371 70.0552 74.0778C69.9863 74.1184 69.9261 74.1722 69.878 74.2361C69.83 74.3001 69.795 74.3728 69.7751 74.4503C69.7552 74.5278 69.7507 74.6084 69.762 74.6876C73.2771 99.4546 79.0606 123.846 87.0395 147.555C87.1068 147.756 87.2702 147.898 87.4609 147.949Z" fill="black"/>
<path d="M79.1403 119.016C79.1403 119.016 99.9201 103.311 93.6842 87.5093C93.6842 87.5093 78.4663 96.1493 79.1403 119.016ZM75.4894 104.911C75.4894 104.911 65.4223 80.8883 48.5683 83.0145C48.5683 83.0145 53.1686 99.8991 75.4894 104.911Z" fill="black"/>
<path d="M56.075 69.0759C57.1533 72.1266 59.2111 74.7346 61.9274 76.4928C62.1465 76.6415 62.3677 76.7744 62.6088 76.9005C64.4502 77.9687 66.5022 78.6227 68.6221 78.817C70.742 79.0112 72.8787 78.7411 74.8835 78.0254C82.5438 75.3044 86.5493 66.8866 83.8262 59.2195C83.5236 58.3665 83.1427 57.5434 82.6882 56.7607C82.5677 56.5476 82.4405 56.3384 82.3068 56.1334C78.6874 50.5369 71.5809 47.9472 65.0272 50.2747C63.1731 50.9299 61.47 51.9518 60.0194 53.2794C58.5689 54.6071 57.4005 56.2132 56.5841 58.0022L56.5773 58.0048C56.4559 58.2591 56.344 58.5181 56.2479 58.7792C54.9451 62.0772 54.8836 65.736 56.075 69.0759Z" fill="#FFBEFF"/>
<path d="M61.9274 76.4929C62.1465 76.6416 62.3676 76.7745 62.6088 76.9006C62.831 74.1023 64.1377 71.3567 66.2398 69.492C68.9618 67.0747 72.9827 66.1453 76.4897 67.1283C76.6573 67.1745 76.9016 67.2465 77.1627 67.1309C77.511 66.9843 77.6618 66.6213 77.6056 66.0596C77.3865 63.5919 77.666 61.6569 78.4625 60.1348C79.3194 58.4856 80.9056 57.273 82.6877 56.7607C82.5672 56.5477 82.44 56.3385 82.3063 56.1334C80.4175 56.7287 78.7478 58.0469 77.832 59.8075C77.4002 60.6334 77.1054 61.5691 76.9462 62.6299C76.8989 62.964 76.8648 63.3161 76.8496 63.6765L76.8522 63.6833C76.8114 64.4959 76.828 65.3104 76.9021 66.1206C76.9236 66.4153 76.8732 66.4857 76.8732 66.4857C76.8438 66.4884 76.735 66.459 76.6762 66.4421C72.9433 65.3961 68.6645 66.387 65.7627 68.9588C63.6165 70.8691 62.25 73.6358 61.9274 76.4929Z" fill="black"/>
<path d="M56.2479 58.7788C57.4081 58.5949 58.595 58.6826 59.7155 59.0352C62.0556 59.7754 64.2302 61.6017 65.8479 64.1772C65.8751 64.2236 65.9132 64.2628 65.9588 64.2913C66.0045 64.3199 66.0564 64.337 66.1101 64.3411C66.164 64.3481 66.2189 64.3423 66.2702 64.3241C66.3215 64.306 66.3678 64.276 66.4053 64.2365C68.0015 62.6047 69.8797 61.5975 71.7039 61.3952C73.8134 61.1672 75.8713 62.0908 76.8501 63.677L76.8527 63.6838C76.8575 63.6975 76.8664 63.7017 76.8711 63.7148C76.9552 63.8661 77.1344 63.9234 77.2951 63.8661C77.318 63.859 77.3397 63.8488 77.3597 63.8357C77.5289 63.738 77.5788 63.5162 77.4806 63.3471C77.3294 63.0893 77.1502 62.8489 76.9463 62.6304C75.7258 61.236 73.6936 60.4695 71.6261 60.6901C69.2892 60.9387 67.4309 62.2558 66.2083 63.4301C64.5334 60.905 62.3167 59.1087 59.9357 58.3606C58.8532 58.0187 57.7133 57.8971 56.5831 58.0028L56.5763 58.0054C56.456 58.2592 56.3441 58.5177 56.2479 58.7788Z" fill="black"/>
<path d="M159.613 152.047C158.508 159.074 156.352 165.901 153.757 172.529C151.548 178.226 148.966 183.868 145.053 188.566C139.902 194.755 132.729 198.961 125.249 201.942C120.618 203.778 115.707 205.216 110.716 205.003C106.63 204.83 102.637 203.539 98.9644 201.729C89.2488 196.978 81.6763 188.673 76.7786 178.971C74.7716 174.991 73.2137 170.799 72.1337 166.474C68.447 151.688 70.0442 135.97 74.2499 121.318C75.9801 115.302 78.3091 109.14 82.994 104.974L79.5606 106.465C82.3187 104.517 85.0737 102.565 87.8255 100.609L147.303 89.3229L148.287 89.2031C156.312 109.246 162.927 130.753 159.613 152.047Z" fill="#131314"/>
<path d="M116.852 158.102V184.6H76.9788V134.985L89.6224 142.318L116.852 158.102Z" fill="#FF9D9D"/>
<path d="M116.852 158.102V184.6H76.9788V134.985L89.6224 142.318L116.852 158.102Z" fill="black"/>
<path d="M116.852 158.103V174.073C114.203 174.685 111.382 174.685 108.72 174.113C103.41 172.955 98.7253 169.747 94.9325 165.862C91.1529 161.962 88.1718 157.371 85.217 152.806L87.6926 146.337C88.1916 144.933 88.8385 143.586 89.6224 142.318L116.852 158.103Z" fill="black"/>
<path d="M145.16 145.179C138.24 157.13 127.353 164.57 122.602 167.418C121.113 168.319 119.327 168.592 117.637 168.177C108.747 166.047 80.0266 157.357 78.1105 133.627L78.0706 133.148C71.6556 125.336 95.5583 110.057 96.3169 98.9975L147.303 89.3218C149.427 93.7799 150.721 98.5873 151.123 103.509H151.282C151.282 103.51 154.223 129.555 145.16 145.179Z" fill="#FF9D9D"/>
<path d="M145.16 145.179C138.24 157.13 127.353 164.57 122.602 167.418C121.113 168.319 119.327 168.592 117.637 168.177C108.747 166.047 80.0266 157.357 78.1105 133.627L78.0706 133.148C71.6556 125.336 95.5583 110.057 96.3169 98.9975L147.303 89.3218C149.427 93.7799 150.721 98.5873 151.123 103.509H151.282C151.282 103.51 154.223 129.555 145.16 145.179Z" fill="#F6DFDF" fill-opacity="0.37"/>
<path d="M141.385 126.178C144.966 126.178 146.48 121.391 146.544 121.184C146.599 121.008 146.581 120.817 146.495 120.654C146.409 120.491 146.261 120.368 146.085 120.314C145.909 120.259 145.718 120.277 145.555 120.363C145.391 120.45 145.269 120.597 145.215 120.773C145.202 120.814 143.942 124.898 141.286 124.784C138.493 124.681 135.949 120.762 135.924 120.722C135.823 120.57 135.666 120.463 135.487 120.425C135.308 120.387 135.122 120.421 134.968 120.52C134.813 120.618 134.704 120.773 134.664 120.952C134.623 121.13 134.655 121.317 134.751 121.473C134.871 121.659 137.712 126.045 141.234 126.176C141.285 126.177 141.335 126.178 141.385 126.178ZM112.14 127.363C112.218 127.363 112.298 127.362 112.378 127.36C117.048 127.23 118.968 122.502 119.047 122.301C119.115 122.129 119.113 121.938 119.039 121.768C118.966 121.599 118.828 121.465 118.657 121.397C118.485 121.329 118.294 121.332 118.124 121.406C117.955 121.479 117.821 121.616 117.753 121.788C117.737 121.829 116.082 125.865 112.339 125.968C108.437 126.117 106.193 122.971 106.171 122.939C106.061 122.794 105.899 122.698 105.719 122.671C105.539 122.644 105.355 122.689 105.208 122.796C105.061 122.903 104.961 123.063 104.931 123.242C104.9 123.422 104.941 123.606 105.044 123.756C105.152 123.905 107.708 127.363 112.14 127.363ZM130.482 136.481C130.667 136.481 130.853 136.407 130.99 136.26L134.425 132.588C134.543 132.462 134.61 132.296 134.613 132.123C134.616 131.95 134.554 131.783 134.439 131.653L132.773 129.764L129.972 118.793C129.921 118.62 129.805 118.473 129.649 118.383C129.492 118.294 129.306 118.269 129.131 118.314C128.956 118.358 128.805 118.469 128.711 118.623C128.616 118.777 128.585 118.961 128.624 119.138L131.467 130.272C131.494 130.379 131.546 130.477 131.619 130.56L132.978 132.1L129.975 135.309C129.882 135.408 129.82 135.532 129.796 135.666C129.773 135.8 129.789 135.937 129.843 136.062C129.897 136.186 129.986 136.292 130.1 136.367C130.213 136.441 130.346 136.481 130.482 136.481ZM127.855 142.31C129.755 142.31 131.659 141.556 133.014 140.222C133.082 140.159 133.136 140.083 133.173 139.998C133.21 139.913 133.23 139.822 133.232 139.73C133.234 139.637 133.217 139.545 133.183 139.459C133.148 139.373 133.097 139.295 133.033 139.229C132.968 139.163 132.89 139.111 132.805 139.075C132.72 139.04 132.628 139.021 132.536 139.021C132.443 139.021 132.352 139.04 132.266 139.076C132.181 139.112 132.104 139.164 132.039 139.23C130.729 140.519 128.787 141.139 126.97 140.849C125.157 140.56 123.504 139.365 122.659 137.731C122.617 137.65 122.56 137.578 122.49 137.519C122.42 137.459 122.339 137.415 122.252 137.387C122.165 137.359 122.073 137.349 121.982 137.357C121.891 137.365 121.802 137.391 121.721 137.434C121.557 137.519 121.434 137.665 121.378 137.841C121.322 138.017 121.339 138.208 121.423 138.371C122.467 140.389 124.509 141.865 126.751 142.224C127.116 142.282 127.485 142.31 127.855 142.31ZM146.516 111.789C146.635 111.789 146.751 111.758 146.855 111.7C146.958 111.643 147.045 111.559 147.107 111.458C147.17 111.357 147.205 111.242 147.21 111.123C147.216 111.005 147.191 110.887 147.138 110.781C146.425 109.363 145.094 108.265 143.488 107.768C142.029 107.317 140.372 107.376 138.823 107.929C138.649 107.991 138.507 108.12 138.428 108.287C138.349 108.454 138.34 108.645 138.402 108.819C138.532 109.182 138.927 109.369 139.292 109.24C140.56 108.787 141.903 108.737 143.078 109.098C144.305 109.477 145.358 110.34 145.893 111.406C146.016 111.649 146.261 111.789 146.516 111.789ZM106.1 111.566C106.272 111.566 106.445 111.503 106.579 111.375C108.474 109.568 111.491 108.998 113.915 109.98C114.086 110.05 114.278 110.048 114.448 109.976C114.618 109.905 114.752 109.768 114.821 109.597C114.891 109.426 114.889 109.235 114.817 109.065C114.745 108.895 114.609 108.761 114.438 108.691C111.524 107.507 107.897 108.197 105.62 110.366C105.519 110.462 105.449 110.586 105.42 110.722C105.39 110.858 105.402 111 105.453 111.129C105.505 111.258 105.594 111.369 105.709 111.447C105.825 111.525 105.961 111.567 106.1 111.566Z" fill="black"/>
<path d="M172.802 251.197H11.0605C11.0605 251.197 11.287 211.564 32.807 195.7C54.3271 179.849 74.7165 177.799 74.7165 177.799L76.7529 169.654H124.997V180.301C124.997 180.301 149.698 191.401 160.345 206.347C168.051 217.18 171.139 235.839 172.243 245.301V245.314C172.589 248.256 172.735 250.318 172.789 250.971C172.802 251.117 172.802 251.197 172.802 251.197Z" fill="#F674ED"/>
<path d="M85.7896 251.197H84.7383L73.3326 216.022C73.2922 215.895 73.3029 215.757 73.3626 215.638C73.4222 215.519 73.5261 215.427 73.652 215.383C73.7149 215.364 73.781 215.357 73.8465 215.363C73.9121 215.37 73.9757 215.389 74.0338 215.42C74.0919 215.45 74.1434 215.493 74.1851 215.543C74.2269 215.594 74.2582 215.653 74.2772 215.716L85.7896 251.197ZM34.8965 251.197H33.8583L31.1967 242.054C31.1168 241.787 31.2634 241.508 31.5293 241.442C31.5922 241.422 31.6583 241.416 31.7239 241.422C31.7894 241.428 31.8531 241.447 31.9113 241.478C31.9694 241.509 32.0209 241.551 32.0627 241.602C32.1046 241.653 32.1359 241.711 32.155 241.774L34.8965 251.197ZM158.076 251.249C157.945 251.249 157.819 251.197 157.726 251.106C157.632 251.014 157.579 250.889 157.577 250.758C157.355 237.677 143.29 213.64 143.147 213.398C143.087 213.285 143.072 213.152 143.107 213.028C143.142 212.904 143.223 212.798 143.334 212.733C143.445 212.668 143.577 212.647 143.703 212.677C143.828 212.707 143.937 212.783 144.007 212.891C144.593 213.885 158.348 237.397 158.574 250.741C158.575 250.807 158.563 250.873 158.539 250.934C158.514 250.996 158.478 251.052 158.431 251.099C158.385 251.146 158.33 251.184 158.269 251.21C158.207 251.235 158.142 251.249 158.076 251.249Z" fill="black"/>
<path d="M242.346 124.571C241.667 123.891 231.699 105.316 238.495 91.0441L257.071 99.4256L245.291 126.383L242.346 124.571Z" fill="#FBEEE5"/>
<path d="M247.21 122.198L215.961 216.318L165.667 229.227L158.982 222.66L196.36 123.665C229.18 119.353 245.932 121.799 247.17 122.185L247.21 122.198Z" fill="#7F44B6"/>
<path d="M246.537 123.552L259.789 99.1084L255.491 97.3872L246.537 123.552Z" fill="#7F44B6"/>
<path d="M247.21 122.198C246.199 122.531 205.421 127.289 200.325 132.386L165.668 229.227L153.091 225.833L187.747 118.459C220.566 114.147 245.933 121.799 247.171 122.185L247.21 122.198Z" fill="#FBEEE5"/>
<path d="M200.325 132.719C200.278 132.719 200.232 132.709 200.189 132.69C200.147 132.671 200.109 132.643 200.078 132.609L187.5 118.681C187.444 118.615 187.416 118.53 187.422 118.444C187.427 118.357 187.466 118.277 187.531 118.219C187.595 118.161 187.679 118.13 187.766 118.133C187.852 118.136 187.934 118.173 187.994 118.235L200.418 131.992C202.603 131.147 220.985 124.278 247.14 121.854C247.225 121.85 247.309 121.879 247.373 121.936C247.437 121.992 247.478 122.071 247.485 122.156C247.493 122.241 247.468 122.326 247.415 122.393C247.362 122.46 247.286 122.504 247.201 122.516C219.554 125.079 200.637 132.619 200.449 132.695C200.409 132.711 200.367 132.719 200.325 132.719Z" fill="black"/>
<path d="M165.667 229.56C165.614 229.56 165.561 229.547 165.514 229.523C165.466 229.498 165.426 229.463 165.395 229.419C165.364 229.375 165.345 229.325 165.337 229.272C165.33 229.219 165.336 229.165 165.354 229.115L200.011 132.274C200.043 132.194 200.105 132.129 200.183 132.094C200.262 132.059 200.351 132.055 200.432 132.084C200.514 132.113 200.58 132.172 200.619 132.25C200.657 132.327 200.664 132.416 200.638 132.498L165.98 229.339C165.957 229.404 165.915 229.46 165.859 229.499C165.803 229.539 165.736 229.56 165.667 229.56Z" fill="black"/>
<path d="M162.607 229.335C162.553 229.335 162.501 229.322 162.454 229.298C162.406 229.273 162.366 229.238 162.335 229.194C162.304 229.151 162.284 229.1 162.277 229.047C162.27 228.995 162.276 228.941 162.294 228.891L197.632 129.669C197.647 129.628 197.67 129.59 197.7 129.557C197.729 129.525 197.765 129.498 197.805 129.48C198.021 129.378 216.215 120.969 235.766 120.691C230.049 120.238 224.306 120.207 218.584 120.599C203.563 121.641 195.207 125.43 194.138 125.942L158.39 227.753C158.361 227.836 158.299 227.904 158.22 227.942C158.141 227.98 158.049 227.986 157.966 227.957C157.883 227.928 157.814 227.867 157.776 227.787C157.738 227.707 157.733 227.616 157.762 227.533L193.554 125.593C193.583 125.513 193.641 125.446 193.717 125.407C193.801 125.364 202.346 121.059 218.537 119.934C234.71 118.813 246.83 121.5 246.95 121.527C247.037 121.545 247.113 121.596 247.162 121.669C247.211 121.743 247.229 121.833 247.211 121.919C247.194 122.006 247.143 122.082 247.07 122.131C246.996 122.18 246.906 122.197 246.82 122.18C224.69 118.311 200.18 129.132 198.212 130.025L162.92 229.113C162.897 229.178 162.855 229.234 162.799 229.274C162.742 229.314 162.675 229.335 162.607 229.335Z" fill="black"/>
<path d="M154.904 227.296C154.852 227.296 154.8 227.284 154.753 227.259C154.706 227.235 154.665 227.2 154.634 227.158C154.604 227.115 154.583 227.065 154.576 227.013C154.568 226.961 154.572 226.907 154.589 226.857L190.155 121.294C190.171 121.245 190.199 121.2 190.236 121.164C190.272 121.127 190.317 121.1 190.366 121.083C190.629 120.997 216.824 112.631 246.522 121.4C246.401 118.387 246.029 102.472 251.386 96.4861C251.446 96.4245 251.527 96.3883 251.613 96.3853C251.699 96.3823 251.783 96.4127 251.847 96.47C251.911 96.5274 251.95 96.6073 251.957 96.6931C251.963 96.7788 251.937 96.8637 251.882 96.9301C246.263 103.21 247.198 121.649 247.208 121.835C247.211 121.888 247.201 121.941 247.179 121.99C247.157 122.039 247.124 122.081 247.082 122.114C247.04 122.147 246.99 122.17 246.938 122.18C246.886 122.19 246.831 122.187 246.78 122.172C218.305 113.607 192.963 120.98 190.731 121.667L155.22 227.07C155.198 227.136 155.155 227.194 155.099 227.234C155.042 227.275 154.974 227.296 154.904 227.296Z" fill="black"/>
<path d="M246.537 121.336C246.492 121.336 246.447 121.326 246.405 121.308C246.363 121.29 246.326 121.264 246.295 121.231C237.925 112.349 244.252 94.6252 244.525 93.8749C244.558 93.7958 244.62 93.7325 244.699 93.6981C244.777 93.6638 244.866 93.661 244.947 93.6903C245.027 93.7197 245.093 93.779 245.131 93.8558C245.169 93.9327 245.176 94.0212 245.15 94.103C245.085 94.2826 238.691 112.192 246.779 120.775C246.824 120.822 246.853 120.882 246.865 120.946C246.876 121.009 246.868 121.075 246.842 121.135C246.817 121.195 246.774 121.245 246.72 121.281C246.665 121.317 246.602 121.336 246.537 121.336Z" fill="black"/>
<path d="M246.876 122.185C246.813 122.185 246.751 122.167 246.697 122.133C233.893 113.938 240.038 92.4127 240.101 92.1963C240.114 92.1544 240.134 92.1153 240.162 92.0813C240.189 92.0473 240.223 92.019 240.261 91.9981C240.3 91.9771 240.342 91.964 240.385 91.9593C240.429 91.9546 240.473 91.9586 240.514 91.9709C240.556 91.9832 240.595 92.0037 240.629 92.0311C240.663 92.0585 240.692 92.0923 240.713 92.1307C240.734 92.169 240.747 92.2111 240.751 92.2546C240.756 92.298 240.752 92.3419 240.74 92.3838C240.678 92.5956 234.673 113.647 247.056 121.573C247.117 121.611 247.163 121.669 247.188 121.736C247.213 121.803 247.216 121.877 247.196 121.946C247.176 122.015 247.133 122.076 247.076 122.119C247.018 122.162 246.948 122.185 246.876 122.185Z" fill="black"/>
<path d="M229.86 162.869L229.054 167.732L228.024 173.858L217.86 234.902L187.62 234.076C187.62 234.076 186.124 219.533 187.95 208.632C189.765 197.72 191.91 184.342 193.726 185.498C195.551 186.653 199.348 209.787 199.348 209.787L205.792 207.641C205.792 207.641 215.724 174.022 225.199 164.198C225.53 163.855 225.877 163.528 226.237 163.217C227.043 162.528 227.839 162.042 228.626 161.771C229.306 161.539 229.976 162.161 229.86 162.869Z" fill="#FF9D9D"/>
<g opacity="0.31">
<path d="M229.86 162.869L229.054 167.732L228.024 173.858L217.86 234.902L187.62 234.076C187.62 234.076 186.124 219.533 187.95 208.632C189.765 197.72 191.91 184.342 193.726 185.498C195.551 186.653 199.348 209.787 199.348 209.787L205.792 207.641C205.792 207.641 215.724 174.022 225.199 164.198C225.53 163.855 225.877 163.528 226.237 163.217C227.043 162.528 227.839 162.042 228.626 161.771C229.306 161.539 229.976 162.161 229.86 162.869Z" fill="#B88C8C"/>
</g>
<path d="M226.238 163.219L214.075 205.099C214.051 205.174 214.005 205.239 213.942 205.286C213.88 205.333 213.804 205.36 213.725 205.361C213.692 205.359 213.659 205.353 213.628 205.342C213.582 205.33 213.538 205.309 213.5 205.279C213.462 205.25 213.43 205.214 213.407 205.172C213.383 205.13 213.368 205.084 213.363 205.037C213.358 204.989 213.362 204.941 213.376 204.895L225.2 164.199C225.531 163.857 225.878 163.53 226.238 163.219ZM229.054 167.733L228.025 173.858L219.2 204.274C219.177 204.349 219.131 204.414 219.068 204.461C219.005 204.509 218.929 204.535 218.851 204.536C218.812 204.536 218.783 204.527 218.744 204.517C218.55 204.468 218.443 204.264 218.502 204.07L229.054 167.733Z" fill="black"/>
<path d="M183.816 232.096H220.996V238.871C220.996 238.871 227.771 244.82 228.267 251.429H170.762C170.762 251.429 173.241 240.358 183.155 238.044L183.816 232.096Z" fill="#F674ED"/>
<path d="M95.1054 159.234C92.4301 168.896 85.0441 174.978 76.7792 178.971C64.1225 185.092 49.4031 186.264 46.3952 187.768C46.3952 187.768 25.5545 197.174 18.9283 214.504C18.9283 214.504 -1.86253 182.79 14.0017 157.198C14.0017 157.198 18.074 145.18 33.0329 137.714C47.9788 130.234 57.7206 125.03 59.0782 117.325C60.1027 111.535 61.8996 107.157 62.725 105.334L87.8255 100.609L96.3164 98.9985C96.4094 103.883 95.2782 113.319 86.9471 122.755C86.9471 122.755 101.893 134.759 95.1054 159.234Z" fill="#131314"/>
<path d="M179.239 107.087L183.799 108.983C185.334 109.62 185.334 111.793 183.799 112.431L179.239 114.326C178.783 114.515 178.421 114.878 178.231 115.333L176.36 119.836C175.719 121.378 173.531 121.367 172.905 119.819L171 115.104C170.905 114.868 170.762 114.653 170.58 114.474C170.398 114.295 170.182 114.155 169.944 114.063L165.615 112.387C164.045 111.779 164.018 109.567 165.573 108.922L169.986 107.088C170.442 106.899 170.804 106.536 170.993 106.08L172.889 101.52C173.526 99.9863 175.699 99.9863 176.337 101.52L178.232 106.08C178.421 106.536 178.783 106.898 179.239 107.087ZM44.9656 187.823L49.5255 189.718C51.0596 190.355 51.0596 192.528 49.5255 193.166L44.9656 195.061C44.5097 195.251 44.1474 195.613 43.9579 196.069L42.087 200.571C41.446 202.113 39.2578 202.103 38.632 200.554L36.7269 195.84C36.6313 195.603 36.4882 195.389 36.3065 195.21C36.1248 195.03 35.9083 194.89 35.6704 194.798L31.3417 193.121C29.7718 192.514 29.745 190.302 31.2997 189.656L35.7124 187.823C36.1683 187.633 36.5306 187.271 36.7201 186.815L38.6152 182.255C39.2525 180.721 41.4261 180.721 42.0634 182.255L43.9584 186.815C44.0519 187.041 44.189 187.246 44.3618 187.419C44.5346 187.592 44.7398 187.729 44.9656 187.823ZM49.3679 107.846L53.9278 109.741C55.4619 110.379 55.4619 112.552 53.9278 113.189L49.3679 115.084C48.912 115.274 48.5497 115.636 48.3602 116.092L46.4893 120.594C45.8483 122.136 43.66 122.126 43.0343 120.577L41.1292 115.863C41.0336 115.626 40.8905 115.412 40.7088 115.233C40.5271 115.054 40.3106 114.914 40.0726 114.821L35.7439 113.145C34.1741 112.537 34.1473 110.326 35.7019 109.68L40.1147 107.847C40.5707 107.657 40.933 107.295 41.1224 106.839L43.0175 102.279C43.6548 100.745 45.8278 100.745 46.4656 102.279L48.3607 106.839C48.5502 107.295 48.9123 107.657 49.3679 107.846Z" fill="#7F44B6"/>
</svg>
