<svg width="312" height="312" viewBox="0 0 312 312" fill="none" xmlns="http://www.w3.org/2000/svg">
<path d="M158 268C227.036 268 283 212.036 283 143C283 73.9644 227.036 18 158 18C88.9644 18 33 73.9644 33 143C33 212.036 88.9644 268 158 268Z" fill="#CCF17B"/>
<mask id="mask0_37_12" style="mask-type:luminance" maskUnits="userSpaceOnUse" x="151" y="109" width="27" height="48">
<path d="M177.82 156.793H151.719V109.173H177.82V156.793Z" fill="white"/>
</mask>
<g mask="url(#mask0_37_12)">
<path d="M177.82 156.793H151.719V109.173H177.82V156.793Z" fill="#E39C76"/>
<path d="M180.925 129.097C176.046 131.985 170.487 133.508 164.825 133.508C159.162 133.508 153.603 131.985 148.724 129.097V111.033H180.925V129.097Z" fill="#D48F6E"/>
</g>
<path d="M154.218 143.323C154.218 143.323 124.013 147.489 113.038 167.377C102.063 187.265 96.4241 272.637 96.4241 272.637H129.588L154.218 143.323ZM164.772 141.61C164.772 141.61 200.096 136.917 215.502 149.237C230.908 161.557 248.713 254.18 248.713 254.18L221.422 262.528L200.803 209.277L164.772 141.61Z" fill="#D48F6E"/>
<path d="M239.787 145.33C239.787 145.33 240.955 120.966 244.738 121.183C248.52 121.4 248.135 143.535 248.135 143.535L239.787 145.33ZM129.466 69.2332C129.466 69.2332 130.079 39.2427 151.217 31.6454C151.41 31.6102 151.597 31.5926 151.801 31.5633C165.736 26.1776 175.899 31.4752 176.792 31.6454C180.225 32.8856 183.366 34.8227 186.022 37.3361C198.123 48.7291 198.561 69.2332 198.561 69.2332C198.704 70.3889 198.759 71.5539 198.725 72.718C198.538 78.438 195.105 91.7377 194.364 96.2903C190.003 110.623 178.859 128.217 163.681 127.466C145.292 126.363 137.89 103.77 135.776 96.9063C133.505 89.526 131.69 82.3687 131.351 81.2833C130.642 78.7757 130.371 76.1634 130.552 73.5628C130.195 72.0433 129.822 70.5708 129.466 69.2332Z" fill="#E39C76"/>
<path d="M165.146 96.6364C167.615 96.0087 169.04 95.07 169.39 93.8615C170.201 91.0631 164.924 89.1271 165.724 79.0188C165.73 78.941 165.767 78.8688 165.826 78.8182C165.885 78.7676 165.962 78.7427 166.039 78.7489C166.117 78.7551 166.188 78.792 166.239 78.8514C166.289 78.9108 166.314 78.9879 166.308 79.0657C165.52 89.0039 170.873 90.8401 169.95 94.0257C169.542 95.4513 167.971 96.5191 165.28 97.2055C165.208 97.2168 165.133 97.2002 165.073 97.159C165.012 97.1178 164.968 97.0551 164.951 96.9833C164.934 96.9115 164.945 96.8359 164.981 96.7716C165.017 96.7073 165.076 96.659 165.146 96.6364ZM181.842 81.1484C181.842 83.5772 180.569 85.5425 179.005 85.5425C177.44 85.5425 176.179 83.5713 176.179 81.1425C176.179 78.7137 177.452 76.7484 179.016 76.7484C180.581 76.7484 181.842 78.7196 181.842 81.1484ZM186.179 70.0662C186.04 70.0662 185.906 70.0163 185.8 69.9254C185.572 69.726 180.155 65.1734 173.856 68.7873C173.722 68.8638 173.563 68.8839 173.414 68.8432C173.266 68.8026 173.139 68.7044 173.062 68.5702C173.023 68.5033 172.998 68.4293 172.988 68.3526C172.978 68.2759 172.983 68.1979 173.003 68.1232C173.024 68.0485 173.058 67.9785 173.105 67.9173C173.152 67.8561 173.211 67.8048 173.278 67.7665C180.283 63.742 186.5 68.9809 186.559 69.0337C186.649 69.1116 186.714 69.2157 186.744 69.3317C186.774 69.4478 186.768 69.5703 186.727 69.6828C186.686 69.7953 186.611 69.8924 186.513 69.9609C186.415 70.0295 186.299 70.0662 186.179 70.0662ZM148.555 81.1484C148.555 83.5772 149.828 85.5425 151.392 85.5425C152.957 85.5425 154.218 83.5713 154.218 81.1425C154.218 78.7137 152.945 76.7484 151.381 76.7484C149.816 76.7484 148.555 78.7196 148.555 81.1484ZM144.113 70.0545C144.036 70.0402 143.963 70.011 143.897 69.9683C143.832 69.9257 143.776 69.8705 143.731 69.8059C143.687 69.7414 143.656 69.6687 143.64 69.5921C143.624 69.5154 143.623 69.4363 143.637 69.3593C143.651 69.2823 143.68 69.2088 143.723 69.1431C143.765 69.0773 143.82 69.0207 143.884 68.9763C143.948 68.9319 144.021 68.9006 144.097 68.8843C144.173 68.868 144.252 68.8669 144.329 68.8812C146.467 69.3056 148.674 69.2283 150.778 68.6554C152.882 68.0826 154.826 67.0295 156.459 65.5782C156.575 65.4748 156.728 65.4219 156.883 65.4312C157.038 65.4406 157.182 65.5114 157.285 65.6281C157.388 65.7448 157.441 65.8978 157.432 66.0535C157.422 66.2092 157.352 66.3548 157.236 66.4582C155.471 68.0321 153.369 69.1754 151.093 69.7992C148.817 70.423 146.428 70.5103 144.113 70.0545Z" fill="#2D1929"/>
<path d="M158.695 142.267C158.695 142.267 125.525 148.269 118.999 162.801C112.379 177.491 122.857 272.637 122.857 272.637H213.08C213.08 272.637 223.809 177.327 212.134 156.94C200.686 136.899 158.695 142.267 158.695 142.267Z" fill="#F674ED"/>
<path d="M156.261 141.616C156.261 141.616 130.727 147.454 118.572 159.991L116.821 178.764L147.084 175.485L156.261 141.616Z" fill="#F674ED"/>
<path d="M118.572 159.997C118.572 159.997 128.275 223.943 132.624 239.865C136.973 255.788 172.776 227.211 180.587 229.564C188.398 231.916 176.343 253.265 177.82 260.07C179.297 266.876 213.08 272.637 213.08 272.637H136.483L121.947 254.567C121.947 254.567 112.828 200.969 118.572 159.997Z" fill="#F674ED"/>
<path d="M178.672 132.986H150.908C149.85 132.986 148.993 133.848 148.993 134.911V147.201C148.993 148.264 149.85 149.126 150.908 149.126H178.672C179.729 149.126 180.587 148.264 180.587 147.201V134.911C180.587 133.848 179.729 132.986 178.672 132.986Z" fill="#F674ED"/>
<path d="M146.512 272.637H51.2751C50.11 272.636 48.9854 272.207 48.114 271.43C47.2427 270.652 46.685 269.581 46.5465 268.419L37.4338 191.829C37.3537 191.158 37.4163 190.477 37.6174 189.831C37.8185 189.186 38.1536 188.591 38.6005 188.085C39.0474 187.579 39.5959 187.175 40.2099 186.898C40.8239 186.621 41.4894 186.478 42.1624 186.479H136.967C138.127 186.478 139.247 186.904 140.117 187.675C140.987 188.447 141.546 189.511 141.69 190.667L151.235 267.257C151.318 267.93 151.258 268.613 151.059 269.261C150.86 269.91 150.526 270.508 150.08 271.017C149.633 271.525 149.084 271.933 148.469 272.212C147.854 272.491 147.187 272.636 146.512 272.637Z" fill="#7F44B6"/>
<path d="M192.869 272.637H137.218C136.38 272.675 135.561 272.378 134.941 271.81C134.32 271.243 133.949 270.452 133.908 269.609V264.241C133.929 263.813 134.036 263.393 134.222 263.007C134.408 262.621 134.67 262.276 134.991 261.994C135.313 261.711 135.687 261.497 136.093 261.363C136.499 261.229 136.927 261.178 137.352 261.214L193.033 263.315C193.848 263.309 194.633 263.62 195.225 264.183C195.817 264.747 196.169 265.518 196.208 266.336V269.609C196.188 270.029 196.085 270.44 195.905 270.819C195.726 271.198 195.474 271.538 195.164 271.819C194.854 272.101 194.491 272.318 194.098 272.458C193.704 272.598 193.286 272.659 192.869 272.637Z" fill="#7F44B6"/>
<path d="M240.803 154.787C231.463 182.46 207.178 259.149 227.756 271.364C232.391 274.109 237.68 272.619 238.38 272.402C265.391 264.335 259.875 172.41 258.999 159.175L240.803 154.787Z" fill="#E39C76"/>
<path d="M177.82 140.179C177.82 140.179 198.666 139.258 212.42 147.125L216.769 177.203H183.733L177.82 140.179Z" fill="#F674ED"/>
<path d="M176.179 38.3685C174.947 37.6848 173.508 37.4762 172.134 37.7819C168.403 38.8027 167.942 44.423 165.432 50.4422C164.965 51.5744 160.131 62.8736 150.155 68.3297C147.533 69.7611 142.566 71.8966 135.023 71.6091L133.394 91.1393L128.205 86.8156C128.205 86.8156 119.547 52.5307 125.735 35.8341C131.923 19.1376 179.011 26.2949 179.011 26.2949C179.011 26.2949 202.945 26.8816 206.746 45.9718C210.546 65.0619 198.707 84.1051 198.707 84.1051L193.64 82.2337L193.938 72.7766C193.546 69.5323 192.887 64.8859 191.713 59.3595C189.168 47.3798 187.283 38.9611 182.069 37.4475C180.896 37.1307 178.987 36.9781 176.179 38.3685Z" fill="black"/>
<path d="M186.833 79.2065C189.121 73.5276 194.743 70.4476 199.402 72.3366C204.06 74.2257 205.981 80.3681 203.692 86.0529C201.404 91.7377 195.788 94.8177 191.118 92.9287C186.448 91.0396 184.545 84.903 186.833 79.2065Z" fill="#E39C76"/>
<path d="M195.531 88.91C195.472 88.9094 195.414 88.8906 195.366 88.8561C195.317 88.8216 195.28 88.773 195.26 88.7169C195.24 88.6608 195.237 88.5998 195.252 88.542C195.267 88.4843 195.299 88.4325 195.344 88.3937C195.829 87.9831 197.096 86.71 197.02 85.7596C196.962 84.6391 195.269 84.2519 195.269 84.246C195.202 84.2299 195.143 84.1914 195.102 84.1369C195.061 84.0824 195.039 84.0153 195.041 83.9468C195.181 80.1862 197.172 74.9356 200.879 75.6748C200.916 75.681 200.952 75.695 200.985 75.7157C201.017 75.7365 201.044 75.7636 201.066 75.7955C201.087 75.8274 201.102 75.8633 201.109 75.901C201.116 75.9388 201.115 75.9776 201.106 76.015C201.092 76.0912 201.049 76.1585 200.985 76.2025C200.922 76.2464 200.844 76.2634 200.768 76.2497C197.569 75.6102 195.847 80.4737 195.66 83.7415C196.214 83.9116 197.551 84.4631 197.621 85.7244C197.703 87.1617 195.817 88.7751 195.736 88.8455C195.677 88.8903 195.605 88.9131 195.531 88.91Z" fill="#2D1929"/>
<path d="M130.989 72.3366C135.66 70.4475 141.27 73.5099 143.558 79.2065C145.846 84.903 143.926 91.0337 139.267 92.9286C134.609 94.8236 128.981 91.7553 126.699 86.0529C124.416 80.3505 126.319 74.2315 130.989 72.3366Z" fill="#E39C76"/>
<path d="M134.866 88.91C134.798 88.9091 134.733 88.8865 134.679 88.8454C134.597 88.775 132.711 87.1617 132.793 85.7244C132.863 84.463 134.2 83.9116 134.755 83.7414C134.568 80.4737 132.84 75.6102 129.647 76.2497C129.569 76.2645 129.489 76.2477 129.424 76.2032C129.359 76.1586 129.314 76.0899 129.299 76.0121C129.285 75.9343 129.301 75.8538 129.346 75.7883C129.39 75.7229 129.458 75.6778 129.536 75.663C133.214 74.918 135.21 80.1686 135.373 83.935C135.375 84.0036 135.354 84.0707 135.312 84.1252C135.271 84.1796 135.212 84.2181 135.146 84.2342C135.146 84.2342 133.459 84.6273 133.394 85.7478C133.336 86.6982 134.562 87.9713 135.07 88.382C135.122 88.4202 135.159 88.4745 135.177 88.5364C135.195 88.5984 135.192 88.6645 135.169 88.7247C135.146 88.7848 135.103 88.8355 135.049 88.869C134.994 88.9025 134.929 88.9169 134.866 88.91Z" fill="#2D1929"/>
<path d="M205.952 43.2849C215.372 43.2849 223.01 35.6099 223.01 26.1424C223.01 16.6749 215.372 9 205.952 9C196.531 9 188.894 16.6749 188.894 26.1424C188.894 35.6099 196.531 43.2849 205.952 43.2849Z" fill="black"/>
<path d="M164.959 204.495C156.786 183.528 148.071 143.846 147.983 143.447C147.967 143.371 147.965 143.293 147.979 143.217C147.993 143.141 148.022 143.069 148.063 143.004C148.105 142.939 148.159 142.883 148.223 142.839C148.286 142.795 148.357 142.764 148.432 142.748C148.583 142.715 148.741 142.744 148.872 142.827C149.002 142.911 149.094 143.043 149.127 143.194C149.209 143.582 157.423 181.029 165.374 202.295L180.026 140.015C180.071 139.874 180.167 139.756 180.295 139.683C180.423 139.611 180.574 139.59 180.717 139.624C180.86 139.658 180.984 139.745 181.066 139.867C181.148 139.99 181.181 140.139 181.159 140.284L166.074 204.413C166.047 204.536 165.981 204.647 165.886 204.73C165.791 204.812 165.672 204.861 165.547 204.871C165.422 204.88 165.297 204.848 165.191 204.781C165.085 204.713 165.004 204.613 164.959 204.495Z" fill="#EFBD42"/>
<path d="M164.574 213.941C167.849 213.941 170.505 211.272 170.505 207.98C170.505 204.688 167.849 202.02 164.574 202.02C161.298 202.02 158.643 204.688 158.643 207.98C158.643 211.272 161.298 213.941 164.574 213.941Z" fill="#EFBD42"/>
<path d="M88.1696 223.756L94.6728 220.318C94.7719 220.253 94.8883 220.22 95.0064 220.223C95.1246 220.226 95.239 220.265 95.3346 220.335C95.4301 220.405 95.5023 220.503 95.5415 220.615C95.5807 220.727 95.5852 220.848 95.5543 220.963L94.3167 228.238C94.2981 228.335 94.3043 228.436 94.335 228.53C94.3656 228.625 94.4196 228.71 94.4918 228.777L99.7458 233.934C99.8364 234.009 99.9024 234.11 99.9351 234.223C99.9678 234.337 99.9657 234.457 99.9292 234.57C99.8926 234.682 99.8232 234.78 99.7301 234.852C99.637 234.924 99.5245 234.966 99.4072 234.973L92.1392 236.034C92.0404 236.046 91.9461 236.083 91.8654 236.141C91.7847 236.2 91.7202 236.278 91.678 236.369L88.4264 242.986C88.3834 243.096 88.3086 243.19 88.2118 243.256C88.115 243.322 88.0006 243.358 87.8835 243.358C87.7664 243.358 87.6521 243.322 87.5552 243.256C87.4584 243.19 87.3836 243.096 87.3406 242.986L84.089 236.369C84.0469 236.278 83.9824 236.2 83.9017 236.141C83.8209 236.083 83.7267 236.046 83.6278 236.034L76.3598 234.973C76.2426 234.966 76.13 234.924 76.0369 234.852C75.9438 234.78 75.8744 234.682 75.8379 234.57C75.8013 234.457 75.7992 234.337 75.8319 234.223C75.8647 234.11 75.9306 234.009 76.0212 233.934L81.2752 228.777C81.3475 228.71 81.4014 228.625 81.4321 228.53C81.4627 228.436 81.469 228.335 81.4503 228.238L80.2011 220.963C80.1702 220.848 80.1746 220.727 80.2139 220.615C80.2531 220.503 80.3253 220.405 80.4208 220.335C80.5163 220.265 80.6308 220.226 80.7489 220.223C80.8671 220.22 80.9834 220.253 81.0826 220.318L87.5858 223.756C87.6745 223.807 87.7752 223.834 87.8777 223.834C87.9802 223.834 88.0808 223.807 88.1696 223.756Z" fill="#C6C6C6"/>
<path d="M166.938 105.395C166.894 105.395 166.851 105.384 166.811 105.365C166.772 105.345 166.737 105.317 166.71 105.282C166.683 105.247 166.665 105.206 166.656 105.163C166.647 105.119 166.647 105.075 166.658 105.032C167.732 100.538 172.828 98.6898 176.372 101.799C176.401 101.824 176.425 101.854 176.442 101.888C176.46 101.923 176.47 101.96 176.473 101.998C176.475 102.037 176.47 102.075 176.458 102.111C176.446 102.148 176.426 102.181 176.401 102.21C176.349 102.268 176.277 102.304 176.2 102.309C176.122 102.315 176.046 102.289 175.987 102.239C172.793 99.429 168.199 101.066 167.23 105.172C167.213 105.237 167.175 105.294 167.122 105.334C167.069 105.375 167.005 105.396 166.938 105.395Z" fill="#2D1929"/>
<path d="M197.796 37.9168L173.914 46.1302C173.243 58.4502 179.133 69.3094 188.754 75.9094L214.113 62.8267C205.622 57.0066 199.759 48.0554 197.796 37.9168Z" fill="#E73F46"/>
<path d="M181.573 58.2449C181.523 58.244 181.474 58.2301 181.431 58.2046C181.387 58.179 181.351 58.1426 181.326 58.099C181.301 58.0553 181.287 58.0058 181.286 57.9553C181.286 57.9048 181.298 57.855 181.322 57.8107C181.579 57.3355 183.879 53.1702 185.134 52.7009C186.67 52.1142 187.113 56.743 188.164 56.2209C189.524 55.5169 190.89 50.3014 192.513 49.7675C194.136 49.2337 193.932 52.9707 194.965 53.4342C195.068 53.4704 195.177 53.4829 195.285 53.4707C195.394 53.4585 195.498 53.422 195.59 53.3638C197.586 52.4075 197.843 47.9899 197.849 47.9489C197.849 47.8711 197.88 47.7964 197.934 47.7414C197.989 47.6864 198.063 47.6555 198.141 47.6555C198.218 47.6555 198.292 47.6864 198.347 47.7414C198.402 47.7964 198.433 47.8711 198.433 47.9489C198.433 48.1425 198.147 52.7595 195.841 53.8625C193.401 55.0358 193.611 50.0081 192.688 50.3014C191.451 50.6886 189.956 55.8982 188.433 56.6902C187.376 57.2417 186.769 55.7691 186.325 54.7366C186.033 54.0502 185.631 53.1115 185.339 53.2289C184.545 53.5222 182.77 56.3558 181.836 58.0689C181.814 58.1209 181.778 58.1653 181.731 58.1966C181.684 58.2279 181.629 58.2447 181.573 58.2449ZM184.953 64.3697C184.903 64.3682 184.854 64.354 184.811 64.3285C184.768 64.3029 184.732 64.2668 184.706 64.2235C184.681 64.1802 184.666 64.1311 184.665 64.0808C184.663 64.0305 184.674 63.9805 184.696 63.9355C184.959 63.4603 187.259 59.295 188.514 58.8257C189.332 58.5147 189.793 59.6001 190.266 60.6502C190.563 61.3483 190.937 62.2166 191.311 62.3515C191.353 62.3647 191.399 62.3684 191.443 62.3623C191.487 62.3562 191.53 62.3405 191.567 62.3163C192.928 61.6123 194.288 56.3969 195.917 55.863C197.545 55.3291 197.335 59.0662 198.368 59.5297C198.471 59.5642 198.581 59.5758 198.688 59.5637C198.796 59.5515 198.9 59.5159 198.993 59.4593C200.99 58.503 201.246 54.0854 201.252 54.0443C201.254 54.0058 201.263 53.9679 201.279 53.9329C201.295 53.8979 201.318 53.8664 201.346 53.8403C201.374 53.8141 201.407 53.7938 201.443 53.7805C201.479 53.7672 201.518 53.7612 201.556 53.7627C201.634 53.7673 201.707 53.8024 201.759 53.8606C201.812 53.9187 201.839 53.9953 201.836 54.0737C201.836 54.2673 201.55 58.8785 199.244 59.9873C196.798 61.1606 197.02 56.1387 196.092 56.4262C194.854 56.8134 193.354 62.023 191.836 62.815C190.779 63.3665 190.172 61.8881 189.729 60.8614C189.437 60.175 189.034 59.2422 188.742 59.3478C187.948 59.647 186.168 62.4806 185.239 64.1937C185.216 64.2495 185.176 64.2966 185.125 64.3282C185.073 64.3598 185.013 64.3743 184.953 64.3697Z" fill="#2D1929"/>
<path d="M117.125 139.686L141.007 147.899C141.672 160.219 135.782 171.073 126.167 177.679L100.808 164.596C109.296 158.773 115.158 149.823 117.125 139.686Z" fill="#86EBF9"/>
<path d="M133.324 159.997C133.272 159.997 133.22 159.984 133.175 159.957C133.129 159.93 133.092 159.891 133.068 159.844C132.134 158.131 130.353 155.297 129.565 154.998C129.273 154.893 128.87 155.825 128.578 156.506C128.135 157.538 127.533 159.017 126.471 158.465C125.695 158.061 125 156.653 124.264 155.157C123.961 154.57 122.653 151.754 122.046 152.082C121.293 152.487 121.334 156.729 119.063 155.638C116.792 154.546 116.483 149.918 116.477 149.724C116.472 149.646 116.498 149.57 116.55 149.511C116.601 149.453 116.674 149.418 116.751 149.413C116.829 149.408 116.905 149.435 116.963 149.487C117.021 149.538 117.056 149.611 117.061 149.689C117.061 149.736 117.329 154.153 119.32 155.104C119.412 155.162 119.516 155.198 119.624 155.21C119.732 155.222 119.842 155.21 119.944 155.174C120.814 154.787 120.843 152.065 121.777 151.566C122.945 150.927 124.159 153.614 124.79 154.898C125.111 155.544 126.343 158.219 127.002 157.973C127.948 157.632 128.357 153.919 129.781 154.453C131.03 154.922 133.33 159.087 133.593 159.562C133.618 159.608 133.63 159.659 133.629 159.711C133.627 159.763 133.612 159.814 133.585 159.858C133.558 159.903 133.519 159.939 133.473 159.963C133.428 159.987 133.376 159.999 133.324 159.997ZM129.962 166.139C129.91 166.138 129.858 166.124 129.813 166.097C129.768 166.071 129.731 166.032 129.705 165.986C128.771 164.267 126.99 161.44 126.202 161.141C125.911 161.029 125.502 161.968 125.21 162.648C124.766 163.681 124.165 165.159 123.103 164.608C122.326 164.203 121.631 162.789 120.896 161.299C120.592 160.712 119.285 157.896 118.678 158.219C117.93 158.63 117.965 162.871 115.694 161.78C113.424 160.689 113.114 156.06 113.108 155.866C113.105 155.828 113.11 155.789 113.122 155.752C113.134 155.715 113.154 155.681 113.179 155.652C113.205 155.623 113.236 155.599 113.271 155.583C113.306 155.566 113.344 155.557 113.383 155.555C113.459 155.552 113.534 155.579 113.591 155.631C113.647 155.683 113.682 155.754 113.686 155.831C113.686 155.878 113.955 160.29 115.946 161.246C116.038 161.304 116.142 161.34 116.25 161.352C116.358 161.365 116.467 161.352 116.57 161.317C117.44 160.929 117.475 158.207 118.403 157.703C119.571 157.063 120.791 159.768 121.415 161.041C121.737 161.686 122.968 164.361 123.628 164.115C124.585 163.775 124.976 160.055 126.407 160.595C127.656 161.07 129.956 165.235 130.219 165.711C130.242 165.755 130.253 165.805 130.251 165.855C130.25 165.905 130.235 165.954 130.21 165.997C130.184 166.04 130.148 166.076 130.104 166.1C130.061 166.125 130.012 166.139 129.962 166.139Z" fill="#2D1929"/>
<path d="M215.94 138.982L191.135 134.289C184.527 144.673 184.329 157.046 189.472 167.553L217.954 168.726C213.412 159.465 212.688 148.776 215.94 138.982Z" fill="#EFBD42"/>
<path d="M206.594 151.924C203.809 151.924 206.01 148.087 205.566 147.342C205.193 146.755 202.7 148.515 202.128 148.926C200.756 149.865 199.472 150.745 198.584 150.715C197.417 150.668 197.592 149.09 197.709 147.97C197.791 147.231 197.901 146.21 197.586 146.169C196.751 146.034 193.821 147.618 192.163 148.65C192.097 148.69 192.018 148.703 191.943 148.685C191.868 148.668 191.802 148.622 191.76 148.556C191.74 148.523 191.727 148.487 191.721 148.448C191.715 148.41 191.717 148.371 191.726 148.333C191.735 148.296 191.752 148.26 191.774 148.229C191.797 148.198 191.826 148.172 191.859 148.152C192.315 147.864 196.354 145.377 197.697 145.588C199.18 145.823 197.744 149.278 198.386 150.029C198.841 150.557 201.223 148.856 201.819 148.445C202.986 147.641 205.362 145.899 206.074 147.031C206.658 147.917 205.339 150.316 205.899 151.079C205.972 151.162 206.062 151.228 206.163 151.271C206.264 151.315 206.373 151.336 206.483 151.331C208.695 151.478 211.077 147.77 211.101 147.729C211.142 147.663 211.209 147.616 211.285 147.599C211.361 147.582 211.44 147.596 211.506 147.638C211.572 147.68 211.619 147.747 211.636 147.823C211.653 147.9 211.639 147.98 211.597 148.046C211.468 148.21 209.081 151.924 206.594 151.924ZM206.535 158.923C203.751 158.923 205.952 155.092 205.508 154.347C205.14 153.76 202.642 155.52 202.075 155.931C200.908 156.717 198.719 158.401 197.872 157.415C197.446 156.917 197.545 155.972 197.656 154.975C197.732 154.23 197.843 153.215 197.528 153.168C196.699 153.033 193.762 154.623 192.105 155.649C192.073 155.67 192.037 155.685 191.999 155.692C191.962 155.698 191.923 155.697 191.886 155.688C191.849 155.68 191.814 155.663 191.783 155.64C191.752 155.618 191.727 155.589 191.708 155.555C191.686 155.523 191.672 155.487 191.665 155.448C191.658 155.41 191.659 155.371 191.668 155.333C191.677 155.295 191.693 155.259 191.716 155.228C191.739 155.197 191.768 155.17 191.801 155.151C192.256 154.869 196.296 152.382 197.639 152.587C198.503 152.728 198.374 153.901 198.252 155.033C198.17 155.79 198.071 156.729 198.328 157.028C198.789 157.562 201.165 155.855 201.76 155.444C202.928 154.64 205.304 152.892 206.016 154.03C206.6 154.916 205.28 157.315 205.841 158.084C205.914 158.166 206.004 158.23 206.105 158.273C206.206 158.316 206.315 158.335 206.425 158.33C208.631 158.483 211.013 154.769 211.042 154.734C211.062 154.7 211.088 154.669 211.12 154.645C211.152 154.621 211.188 154.604 211.226 154.595C211.265 154.585 211.305 154.584 211.344 154.59C211.383 154.597 211.42 154.611 211.454 154.633C211.487 154.654 211.516 154.682 211.538 154.715C211.56 154.748 211.575 154.786 211.582 154.825C211.59 154.864 211.589 154.904 211.581 154.943C211.572 154.982 211.556 155.019 211.533 155.051C211.41 155.209 209.022 158.923 206.535 158.923Z" fill="#2D1929"/>
<path d="M266.652 129.056L231.667 133.01C228.178 121.068 226.795 108.605 227.58 96.1847L262.566 92.2482C262.073 104.654 263.451 117.064 266.652 129.056Z" fill="#287EEF"/>
<path d="M234.767 112.083C234.712 112.083 234.658 112.067 234.612 112.038C234.566 112.009 234.529 111.967 234.505 111.917C234.481 111.868 234.472 111.812 234.478 111.758C234.484 111.703 234.505 111.651 234.539 111.608C234.907 111.127 238.182 106.915 239.641 106.627C241.393 106.264 241.066 111.479 242.397 111.039C244.025 110.493 246.483 104.949 248.339 104.68C250.196 104.41 249.303 108.458 250.388 109.168C250.502 109.227 250.627 109.262 250.755 109.269C250.883 109.276 251.011 109.255 251.13 109.209C253.529 108.493 254.592 103.624 254.603 103.571C254.62 103.493 254.666 103.425 254.732 103.381C254.798 103.338 254.879 103.323 254.957 103.339C255.034 103.355 255.102 103.402 255.145 103.469C255.188 103.535 255.203 103.616 255.187 103.694C255.14 103.911 254.02 108.974 251.305 109.766C248.439 110.623 249.554 105.073 248.439 105.26C246.968 105.472 244.411 110.986 242.601 111.596C241.358 112.007 240.955 110.271 240.657 109.08C240.435 108.205 240.167 107.126 239.781 107.202C238.836 107.396 236.413 110.136 235.024 111.966C234.994 112.005 234.955 112.037 234.91 112.057C234.865 112.078 234.816 112.087 234.767 112.083ZM237.44 119.469C237.386 119.471 237.332 119.456 237.285 119.427C237.239 119.399 237.201 119.357 237.177 119.308C237.153 119.259 237.144 119.203 237.15 119.149C237.156 119.094 237.178 119.043 237.213 119C237.58 118.519 240.855 114.307 242.315 114.019C244.095 113.656 243.739 118.865 245.07 118.425C246.699 117.885 249.157 112.336 251.013 112.066C253.132 111.761 251.597 117.258 253.804 116.595C256.203 115.885 257.271 111.01 257.277 110.963C257.293 110.885 257.34 110.817 257.406 110.773C257.472 110.73 257.553 110.715 257.63 110.731C257.708 110.747 257.775 110.794 257.819 110.861C257.862 110.927 257.877 111.008 257.861 111.086C257.814 111.297 256.693 116.366 253.979 117.158C251.112 118.009 252.227 112.5 251.112 112.647C249.641 112.864 247.084 118.378 245.275 118.983C244.025 119.399 243.623 117.657 243.325 116.466C243.103 115.597 242.829 114.512 242.449 114.594C241.503 114.788 239.087 117.528 237.691 119.358C237.662 119.396 237.624 119.426 237.58 119.445C237.536 119.465 237.488 119.473 237.44 119.469Z" fill="#2D1929"/>
<path d="M238.561 161.223C238.561 161.223 236.524 148.345 236.915 145.652C237.306 142.96 241.585 140.707 241.585 140.707L246.611 139.921C248.246 134.969 249.373 130.898 250.114 128.105C251.626 122.274 252.63 117.234 254.819 116.959C255.226 116.907 255.637 116.996 255.987 117.211C257.265 118.032 256.997 120.567 256.822 122.01C255.567 132.628 254.936 137.932 254.895 138.131C254.895 138.131 263.167 134.394 261.042 141.651C261.661 141.505 264.16 140.988 265.713 142.42C266.01 142.696 266.944 143.681 266.88 146.274C266.506 167.394 254.895 169.524 254.895 169.524C249.145 170.556 242.782 167.036 238.561 161.223Z" fill="#E39C76"/>
<path d="M250.079 158.236C250.009 158.236 249.942 158.211 249.889 158.166C249.835 158.121 249.799 158.059 249.787 157.99C249.151 153.883 242.869 151.091 242.782 151.062C242.705 151.046 242.636 151 242.593 150.934C242.549 150.868 242.533 150.787 242.548 150.71C242.564 150.632 242.61 150.563 242.675 150.519C242.741 150.475 242.821 150.459 242.899 150.475C244.65 150.475 249.454 150.24 250.26 149.178C251.258 147.858 242.006 142.96 240.534 142.209C240.465 142.174 240.412 142.112 240.387 142.038C240.362 141.964 240.368 141.883 240.403 141.813C240.438 141.743 240.499 141.689 240.573 141.665C240.647 141.64 240.727 141.646 240.797 141.681C241.772 142.179 250.318 146.585 250.896 148.668C251.439 150.651 246.139 150.962 244.101 151.015C246.01 152.047 249.822 154.494 250.342 157.849C250.356 157.892 250.361 157.938 250.355 157.983C250.348 158.028 250.332 158.071 250.307 158.109C250.281 158.146 250.247 158.177 250.208 158.2C250.168 158.222 250.124 158.234 250.079 158.236Z" fill="#2D1929"/>
<path d="M249.063 147.324C249.01 147.325 248.958 147.311 248.912 147.284C248.866 147.257 248.828 147.217 248.803 147.17C248.778 147.123 248.766 147.07 248.768 147.016C248.771 146.963 248.788 146.911 248.818 146.867L254.656 137.961C254.699 137.897 254.765 137.852 254.84 137.837C254.916 137.822 254.994 137.837 255.059 137.879C255.091 137.899 255.12 137.926 255.142 137.958C255.164 137.989 255.18 138.025 255.188 138.063C255.196 138.101 255.197 138.14 255.19 138.178C255.182 138.216 255.168 138.252 255.146 138.284L249.308 147.19C249.282 147.231 249.245 147.264 249.203 147.288C249.16 147.311 249.112 147.324 249.063 147.324ZM255.088 152.763C254.113 152.763 253.337 152.176 253.337 151.185C253.38 150.626 253.543 150.084 253.815 149.595C253.516 149.864 253.18 150.087 252.817 150.258C252.372 150.465 251.876 150.531 251.393 150.447C250.91 150.363 250.464 150.134 250.114 149.788C250.064 149.729 250.039 149.652 250.044 149.574C250.05 149.496 250.085 149.424 250.143 149.372C250.202 149.323 250.277 149.299 250.353 149.305C250.429 149.31 250.5 149.345 250.552 149.401C250.826 149.655 251.17 149.819 251.538 149.874C251.907 149.928 252.283 149.87 252.618 149.706C253.484 149.166 254.27 148.506 254.954 147.747C256.73 145.476 258.697 143.362 260.832 141.428C260.888 141.38 260.959 141.354 261.033 141.357C261.106 141.359 261.176 141.389 261.229 141.441C261.281 141.493 261.312 141.563 261.315 141.637C261.319 141.71 261.294 141.783 261.247 141.839C260.768 142.391 257.744 145.864 255.345 148.187C254.708 149.061 253.36 151.085 254.13 151.842C255.707 153.385 260.75 149.278 262.554 147.571C262.611 147.517 262.686 147.488 262.764 147.49C262.842 147.493 262.915 147.526 262.969 147.583C263.022 147.639 263.051 147.715 263.049 147.793C263.047 147.871 263.014 147.945 262.957 147.999C262.391 148.562 257.861 152.763 255.088 152.763Z" fill="#2D1929"/>
<path d="M269.513 78.526C270.868 78.9819 272.3 79.1587 273.724 79.0458C275.149 78.9329 276.536 78.5326 277.802 77.8689C281.584 75.9842 284.619 72.8679 286.413 69.0278C287.762 66.0006 287.762 63.8886 287.242 62.0347C286.866 60.872 286.195 59.8277 285.295 59.0048C284.395 58.1818 283.298 57.6086 282.111 57.3414C280.781 57 279.393 56.9506 278.042 57.1966C276.691 57.4426 275.409 57.9782 274.282 58.767C274.469 57.9398 274.708 57.2299 273.926 56.4203C273.105 55.7591 272.094 55.3825 271.042 55.3467C270.383 55.2705 269.875 55.8102 270.307 56.3206C270.47 56.5259 270.447 57.1595 270.307 58.1803C270.19 58.767 268.556 68.1537 267.972 70.8993C267.61 72.4305 267.236 74.8006 267.505 76.3494C267.576 76.8893 267.806 77.3957 268.164 77.8044C268.559 78.1368 269.018 78.3826 269.513 78.526ZM273.494 62.2107C274.545 59.4534 277.452 58.2625 280.365 58.3857C282.525 59.559 283.36 61.6123 283.156 64.0764C282.805 68.2828 280.441 72.102 277.225 74.8652C276.039 75.9003 274.645 76.6666 273.138 77.1121C272.535 77.3653 271.869 77.4287 271.229 77.294C269.816 76.8246 270.955 73.111 273.494 62.2107ZM252.811 57.8401C253.827 76.7366 253.208 67.1798 253.459 71.0284C253.495 72.2045 253.703 73.369 254.078 74.4838C254.228 74.9306 254.506 75.3226 254.878 75.6102C255.631 76.1382 255.964 75.6982 260.879 76.455C261.617 76.6384 262.396 76.5357 263.062 76.1676C263.237 76.0575 263.385 75.9089 263.494 75.7331C263.603 75.5573 263.671 75.3588 263.693 75.1526C263.85 73.6332 261.988 72.9702 261.912 74.0086C261.86 74.7126 261.556 75.0881 261.007 75.182C260.365 75.2993 260.009 75.0822 257.026 74.8652C256.851 74.5132 256.682 74.8006 256.442 73.551C256.175 71.5211 256.072 69.4729 256.133 67.4262C258.118 67.5084 260.097 67.6785 262.058 67.9425C262.438 67.9425 262.642 67.6844 262.683 67.1153C262.724 66.5462 262.566 66.2353 262.181 66.1766C260.149 66.1023 258.125 66.1199 256.109 66.2294C256.063 63.2179 256.022 60.2043 255.987 57.1889C255.979 56.8561 255.887 56.5309 255.718 56.2443C257.47 56.1035 259.256 56.0273 261.031 56.0097C262.198 56.0097 263.191 56.2619 263.103 57.4294C263.103 57.5116 263.119 57.593 263.152 57.6683C263.185 57.7436 263.234 57.8111 263.294 57.8664C263.355 57.9218 263.426 57.9637 263.504 57.9895C263.582 58.0152 263.664 58.0243 263.745 58.0161C264.088 58.0315 264.429 57.9609 264.738 57.8107C266.308 57.0305 265.969 54.8129 262.111 54.8187C259.022 54.8344 255.936 55.0303 252.87 55.4054C252.367 55.4699 252.035 55.9921 252.484 56.4027C252.704 56.8493 252.816 57.3418 252.811 57.8401ZM220.412 67.1446C219.962 67.438 219.828 67.7313 219.986 68.0188C220.018 68.0804 220.065 68.1324 220.124 68.1695C220.182 68.2066 220.249 68.2274 220.318 68.23C220.692 68.271 221.422 69.0689 221.661 69.3681C223.932 72.0844 225.461 75.1526 227.82 79.4588C226.917 78.7237 226.053 77.9403 225.234 77.1121C222.934 74.871 220.532 72.7199 218.03 70.6588C217.7 70.3829 217.291 70.2186 216.862 70.1894C216.592 70.1761 216.322 70.2175 216.069 70.3113C215.815 70.405 215.583 70.5491 215.385 70.735C214.959 71.1105 215.934 71.398 217.54 73.8033C219.735 77.1004 221.264 81.0721 223.453 82.662C224.212 83.2486 224.901 82.7852 224.58 82.2748C224.542 82.2255 224.501 82.1785 224.457 82.134C221.492 79.6406 220.137 76.326 217.516 72.542C223.909 77.7809 224.819 79.406 226.74 80.5441C227.004 80.7497 227.315 80.8846 227.645 80.9359C227.975 80.9872 228.312 80.9533 228.625 80.8374C229.011 80.6673 229.092 80.4854 228.906 80.1276C226.746 76.0835 224.59 72.0394 222.437 67.9953C222.341 67.7684 222.2 67.5635 222.022 67.3931C221.844 67.2227 221.634 67.0903 221.404 67.0038C221.238 66.9564 221.064 66.9445 220.893 66.9687C220.722 66.993 220.558 67.0529 220.412 67.1446ZM234.171 64.8097C234.018 64.0508 233.644 63.3547 233.097 62.8091C230.984 60.7323 227.125 62.4747 226.442 65.4667C226.216 66.6508 226.25 67.87 226.541 69.0396C226.805 70.2003 227.196 71.3279 227.709 72.4012C229.057 75.182 232.175 79.359 235.006 78.479C237.837 77.599 237.119 72.7649 236.174 69.9841C235.766 68.5531 235.026 67.24 234.014 66.1531C234.191 65.7291 234.245 65.2635 234.171 64.8097ZM236.028 73.1697C236.261 74.5894 236.366 76.7366 235 77.1708C233.944 77.5052 232.805 76.7366 231.702 75.4108C231.192 74.7971 230.742 74.135 230.359 73.4337C229.31 71.6385 228.601 69.6632 228.269 67.6081C227.598 62.6449 231.317 62.3281 232.204 64.8038C232.349 65.1658 232.352 65.5692 232.213 65.9336C232.075 66.2979 231.805 66.5963 231.457 66.7692C231.186 66.8497 230.898 66.8497 230.628 66.7692C230.57 66.7402 230.506 66.7251 230.441 66.7251C230.376 66.7251 230.312 66.7402 230.254 66.7692C230.126 66.822 230.108 66.9569 230.196 67.1681C230.494 67.8897 231.719 68.1068 232.455 67.8134C232.807 67.6824 233.131 67.4831 233.407 67.2268C234.837 68.6641 235.666 71.1281 236.028 73.1697ZM245.747 55.8337C245.911 56.8955 245.1 57.1302 244.58 57.2593C243.903 57.3883 241.077 57.7873 237.189 58.7905C234.031 59.5707 235.111 61.9761 236.676 61.6534C236.735 61.6359 236.79 61.6069 236.838 61.5678C236.886 61.5288 236.926 61.4807 236.955 61.4261C236.984 61.3716 237.003 61.3117 237.009 61.25C237.015 61.1884 237.009 61.1261 236.991 61.0667C236.711 60.087 237.423 59.7995 237.867 59.6529C238.007 59.6059 238.573 59.4593 239.571 59.2598C239.851 59.6939 240.032 60.6326 240.692 63.4897C242.718 72.2428 242.84 73.6742 243.716 75.182C243.849 75.4893 244.07 75.7501 244.351 75.9317C244.631 76.1133 244.959 76.2076 245.292 76.2028C245.64 76.1682 245.967 76.0222 246.226 75.7862C246.281 75.7205 246.321 75.6434 246.343 75.5604C246.365 75.4775 246.368 75.3908 246.353 75.3063C246.338 75.2218 246.305 75.1417 246.256 75.0716C246.207 75.0014 246.143 74.943 246.069 74.9004C245.216 74.4193 244.247 68.0481 242.484 59.3889C242.434 59.1493 242.341 58.9208 242.21 58.7142C244.399 58.3329 245.602 58.1862 245.712 58.1275C246.728 57.9105 247.948 57.3473 247.814 56.3206C247.645 54.983 245.607 54.9185 245.747 55.8337ZM288.532 84.2166C287.365 83.3836 286.565 83.3718 286.133 84.1286C285.549 85.1494 285.841 87.062 286.53 87.5782C287.481 88.3116 291.72 86.5457 288.532 84.2166ZM292.391 71.8497C291.749 72.9409 291.258 73.7153 290.967 74.1964C290.675 74.6774 290.383 75.1057 290.103 75.5809C288.649 78.2209 287.184 81.6646 289.962 82.8321C291.375 83.4716 291.86 82.7148 291.48 82.0342C290.99 80.5676 300.383 69.4561 301.037 68.4646C302.047 66.9862 300.955 65.2262 297.715 63.5718C296.904 63.1611 296.034 63.5718 296.448 64.2876C296.699 64.9564 295.187 67.1916 292.391 71.8497Z" fill="black"/>
</svg>
