<svg width="264" height="264" viewBox="0 0 264 264" fill="none" xmlns="http://www.w3.org/2000/svg">
<g clip-path="url(#clip0_37_74)">
<path d="M132 264C125.146 264 118.265 263.469 111.55 262.421C97.7189 260.277 84.3215 255.928 71.8683 249.54C50.5782 238.629 32.62 222.118 19.9366 201.792C6.89391 180.891 0 156.757 0 132C0 115.108 3.14841 98.654 9.35808 83.0955C21.3134 53.1357 43.7817 28.6249 72.6237 14.0786C91.1321 4.73705 111.11 0 132 0C154.746 0 177.174 5.88173 196.86 17.0094C215.944 27.7968 232.196 43.3192 243.859 61.8997C251.959 74.7966 257.71 88.8602 260.955 103.702C261.006 103.92 261.053 104.137 261.098 104.354C262.289 109.939 263.114 115.595 263.568 121.287C263.854 124.774 264 128.384 264 132C264 156.406 257.287 180.245 244.587 200.94L244.341 201.334C242.13 204.907 239.751 208.372 237.212 211.72C225.158 227.607 209.413 240.764 191.679 249.769C173.081 259.212 153.002 264 132 264Z" fill="white"/>
<path d="M253.13 168.93L253.334 169.356C251.089 176.646 248.186 183.716 244.663 190.481C242.784 194.106 235.42 188.893 233.206 192.305C231.678 194.665 190.182 228.182 189.608 228.578C169.265 242.453 88.6308 233.897 88.0017 233.628C79.4877 230.023 41.449 220.938 40.8654 220.333C39.4742 218.901 41.6563 208.528 40.3363 207.03C20.592 184.656 38.5198 156.643 38.5198 124.461C38.5198 84.0226 25.0981 56.1407 53.9194 33.0459C54.2087 32.8123 54.3819 32.2364 54.3294 31.614C75.7984 14.9768 102.742 5.07684 132 5.07684C144.565 5.07684 156.699 6.90473 168.163 10.3012C168.574 10.4228 168.98 10.545 169.392 10.6719C220.755 26.6594 227.898 76.3264 227.898 133.407C227.898 146.312 256.263 157.218 253.13 168.93Z" fill="#CCF17B"/>
<path d="M258.923 132C258.923 145.002 256.968 157.547 253.333 169.356C252.765 169.378 252.196 169.39 251.628 169.392C243.124 169.422 234.366 167.437 227.589 162.304C218.953 155.765 214.602 145.089 211.51 134.706C209.52 128.04 207.88 120.973 209.378 114.18C211.51 104.478 219.857 95.2483 216.429 85.9269C213.566 78.144 204.25 75.4581 196.563 72.3458C183.018 66.8627 170.991 56.4347 166.061 42.6762C162.309 32.2023 163.817 20.4291 168.163 10.3007C220.643 25.872 258.923 74.4681 258.923 132ZM79.4944 186.242C72.1736 198.777 58.1702 213.885 44.2236 219.82C43.6296 219.236 41.448 220.937 40.8638 220.333C39.4728 218.901 38.1168 217.435 36.7971 215.937C17.0533 193.563 5.07684 164.183 5.07684 132C5.07684 91.5575 23.9936 55.5364 53.46 32.2993C53.7468 32.0676 54.0363 31.8391 54.3283 31.614C55.9984 32.2281 57.735 33.1068 59.5727 34.2844C67.7923 39.5593 73.7627 48.4389 75.5906 58.029C78.4745 73.1533 72.2803 89.0289 61.959 100.457C56.6182 106.371 50.0945 111.463 46.5352 118.596C61.8167 118.068 76.5043 128.252 82.7491 142.204C83.3212 143.477 83.8262 144.778 84.2619 146.103C88.6225 159.217 86.5007 174.25 79.4944 186.242Z" fill="#CCF17B"/>
<path d="M232.178 202.234C227.69 208.24 210.621 231.645 209.936 232.178C208.361 233.405 206.758 234.595 205.128 235.747C204.812 235.969 203.719 232.994 203.402 233.214C203.146 233.391 203.668 236.763 203.412 236.94C183.069 250.815 158.481 258.923 132 258.923C115.17 258.923 99.1016 255.648 84.4037 249.698C84.0526 249.555 84.1088 244.831 83.7586 244.686C83.4756 244.569 82.7862 249.031 82.5046 248.911C74.0468 245.327 66.0049 240.831 58.5214 235.503C52.8672 231.483 47.5525 227.005 42.6309 222.115C42.0343 221.529 41.4454 220.935 40.8643 220.333C41.2098 218.694 41.5192 217.308 41.7832 216.241C44.7583 204.341 46.4135 174.915 68.8891 156.399C73.6158 152.505 78.8855 149.084 84.2619 146.103C96.9442 139.057 110.21 134.487 118.313 132.066C123.095 130.634 126.081 129.954 126.081 129.954C126.081 129.954 135.315 129.766 146.53 130.101L147.084 130.116C148.759 130.167 150.475 130.233 152.206 130.314C154.065 130.396 155.948 130.497 157.816 130.614C157.963 130.624 158.111 130.634 158.258 130.65H158.263C158.679 130.675 159.101 130.716 159.532 130.767C161.01 130.924 162.558 131.168 164.163 131.477C179.561 134.442 199.473 143.509 199.473 143.509C206.088 147.81 223.933 165.99 231.543 197.396C232.361 200.767 231.553 198.594 232.178 202.234Z" fill="#F674ED"/>
<path d="M86.0588 218.272L84.4037 249.699C83.769 249.44 83.1342 249.181 82.5052 248.912L84.1196 218.171C84.15 217.638 84.6017 217.217 85.14 217.252C85.2673 217.259 85.3921 217.291 85.5073 217.345C85.6224 217.4 85.7256 217.477 85.8109 217.572C85.8962 217.667 85.9621 217.777 86.0046 217.897C86.0472 218.018 86.0656 218.145 86.0588 218.272ZM205.128 235.747C204.558 236.148 203.986 236.545 203.412 236.94L196.213 206.042C196.155 205.791 196.199 205.528 196.335 205.31C196.471 205.092 196.688 204.937 196.939 204.879C197.19 204.823 197.453 204.868 197.671 205.004C197.889 205.14 198.046 205.355 198.107 205.605L205.128 235.747Z" fill="#412945"/>
<path d="M173.135 109.238C170.027 111.122 164.731 113.045 158.763 114.553L158.775 114.825L153.081 117.945L159.157 122.859L159.695 134.143C159.695 134.143 160.135 149.13 144.708 150.891C129.28 152.659 118.313 132.066 118.313 132.066L118.734 102.11C117.4 103.119 115.626 103.592 113.937 103.495C111.574 103.366 109.366 102.317 107.353 101.081C105.443 99.9024 103.611 98.4911 102.433 96.5745C100.905 94.082 100.659 90.981 101.073 88.0873C101.267 86.7214 101.61 85.3489 102.335 84.1774C102.996 83.1219 103.915 82.3196 104.983 81.7431C103.847 78.1427 103.271 74.3895 103.274 70.6144C103.274 50.2601 119.776 33.758 140.13 33.758C158.606 33.758 173.904 47.3468 176.578 65.0791C176.578 65.0791 182.612 103.509 173.135 109.238Z" fill="#EB927A"/>
<path d="M159.157 122.859C152.689 121.461 134.362 117.22 127.739 112.766L158.775 114.825L159.157 122.859ZM141.939 78.2415C142.131 80.7443 140.7 82.8955 138.743 83.0455C136.787 83.1956 135.044 81.2883 134.852 78.7854C134.661 76.2826 136.091 74.1314 138.048 73.9814C140.005 73.8308 141.747 75.7381 141.939 78.2415ZM169.462 76.1295C169.654 78.6328 168.223 80.7835 166.266 80.9335C164.309 81.0836 162.567 79.1763 162.374 76.6734C162.183 74.1701 163.613 72.0194 165.57 71.8694C167.528 71.7188 169.27 73.6261 169.462 76.1295ZM151.858 94.4011C146.938 94.4011 145.831 87.7496 145.786 87.4624C145.745 87.208 145.808 86.9481 145.959 86.7397C146.11 86.5313 146.338 86.3915 146.593 86.3512C146.847 86.3109 147.107 86.3732 147.315 86.5246C147.524 86.6759 147.664 86.9038 147.704 87.1582C147.714 87.218 148.62 92.5939 151.997 92.4562C155.509 92.3211 156.667 88.0729 156.714 87.8924C156.78 87.6436 156.941 87.4309 157.163 87.3009C157.385 87.1709 157.65 87.1342 157.899 87.1989C158.148 87.2633 158.361 87.424 158.491 87.6455C158.622 87.867 158.659 88.1313 158.594 88.3802C158.533 88.6179 157.034 94.2062 152.072 94.397C152 94.3996 151.928 94.4011 151.858 94.4011ZM132.258 70.1461C132.077 70.1461 131.9 70.0953 131.746 69.9997C131.592 69.904 131.468 69.7672 131.388 69.6048C131.308 69.4424 131.275 69.2608 131.292 69.0806C131.31 68.9003 131.378 68.7286 131.488 68.5848C133.099 66.4816 135.642 65.19 138.292 65.1307C138.822 65.108 139.272 65.5432 139.284 66.0794C139.287 66.2069 139.265 66.3338 139.219 66.4527C139.173 66.5716 139.103 66.6802 139.015 66.7724C138.927 66.8646 138.822 66.9385 138.705 66.9899C138.588 67.0413 138.462 67.0692 138.335 67.072C136.3 67.1179 134.267 68.1502 133.03 69.7661C132.839 70.0147 132.55 70.1461 132.258 70.1461ZM169.879 65.984C169.765 65.984 169.65 65.9639 169.537 65.9216C167.586 65.1891 165.48 64.9707 163.421 65.2874C163.295 65.3073 163.166 65.302 163.042 65.2719C162.918 65.2418 162.801 65.1875 162.698 65.112C162.595 65.0366 162.508 64.9416 162.442 64.8324C162.376 64.7232 162.332 64.602 162.313 64.4758C162.274 64.2213 162.337 63.9615 162.489 63.7537C162.642 63.546 162.87 63.4071 163.125 63.3677C165.514 63.0001 167.958 63.2534 170.221 64.103C170.435 64.1825 170.614 64.3346 170.727 64.5328C170.84 64.731 170.879 64.9626 170.838 65.187C170.797 65.4113 170.679 65.6142 170.503 65.7599C170.328 65.9056 170.107 65.985 169.879 65.984Z" fill="#412945"/>
<path d="M142.648 88.9747C142.746 91.8875 139.101 94.3733 134.507 94.527C129.914 94.6806 126.112 92.4438 126.014 89.5306C125.917 86.6178 129.562 84.132 134.155 83.9783C138.748 83.8252 142.551 86.062 142.648 88.9747ZM176.963 88.0017C177.06 90.9145 173.416 93.4003 168.822 93.554C164.229 93.7076 160.426 91.4703 160.329 88.5576C160.232 85.6448 163.876 83.159 168.47 83.0053C173.063 82.8517 176.866 85.089 176.963 88.0017Z" fill="#F8BDFF"/>
<path d="M166.414 32.7644C153.026 29.2932 134.678 32.7644 134.678 32.7644C134.678 32.7644 127.698 33.9833 119.777 36.0963C125.042 30.4353 126.986 23.1954 124.087 17.3982C120.004 9.23331 107.869 7.02695 96.9824 12.4699C86.0955 17.9133 80.5798 28.9451 84.662 37.1101C87.153 42.092 92.6439 44.8506 99.0175 45.0115C98.2327 45.8061 97.6986 46.628 97.4866 47.4746C95.338 56.0701 101.619 85.8222 101.619 85.8222C101.619 85.8222 103.106 81.0289 107.735 81.855C112.363 82.6815 117.652 90.1194 117.652 90.1194C117.652 90.1194 117.983 86.8137 117.487 83.012C116.991 79.2103 115.999 75.5741 115.999 75.5741C115.999 75.5741 121.784 77.0617 124.925 73.0945C128.066 69.1278 127.57 58.8792 127.57 58.8792C127.57 58.8792 134.104 63.7746 138.567 58.1548C141.821 54.0576 139.102 43.9055 137.389 38.7008C139.82 40.2492 143.715 43.278 145.675 47.7412C148.65 54.5181 147.57 58.8792 147.57 58.8792H179.307C179.307 58.8803 179.803 36.2356 166.414 32.7644Z" fill="#412945"/>
<path d="M116.818 98.3694C116.642 98.3695 116.469 98.3216 116.318 98.2308C116.167 98.1399 116.043 98.0096 115.96 97.8538C113.466 93.159 108.889 89.6218 103.716 88.3921C103.47 88.3279 103.259 88.1701 103.129 87.9524C102.998 87.7348 102.958 87.4746 103.016 87.2275C103.075 86.9805 103.228 86.7663 103.443 86.6307C103.657 86.4952 103.917 86.4491 104.165 86.5023C109.872 87.8589 114.923 91.7617 117.675 96.9422C117.754 97.0901 117.793 97.2559 117.789 97.4234C117.784 97.5909 117.737 97.7544 117.65 97.898C117.564 98.0417 117.442 98.1606 117.296 98.2432C117.151 98.3258 116.986 98.3693 116.818 98.3694Z" fill="#412945"/>
<path d="M244.662 190.481C242.785 194.099 240.733 197.623 238.514 201.041C236.987 203.399 235.38 205.703 233.696 207.951C229.213 213.951 224.207 219.542 218.739 224.659C215.92 227.298 212.983 229.807 209.935 232.178C200.619 210.992 196.461 182.557 194.841 175.078C192.699 165.168 183.768 156.73 183.768 156.73C183.768 156.73 181.123 156.237 176.33 155.577C171.532 154.917 169.222 146.983 169.222 146.983C169.12 147.41 168.981 147.828 168.806 148.231C168.792 148.271 168.775 148.31 168.756 148.348C168.68 148.51 168.604 148.668 168.522 148.815C168.492 148.876 168.456 148.932 168.421 148.988C165.776 153.476 159.145 152.44 159.145 152.44C159.145 152.44 159.145 152.425 159.14 152.389L158.815 149.13C157.627 153.552 154.22 152.983 153.494 152.806C153.489 152.801 153.484 152.801 153.479 152.801C153.433 152.791 153.397 152.781 153.377 152.776C153.362 152.77 153.357 152.77 153.357 152.77L153.327 152.349L152.986 147.952L151.594 137.509C148.294 145.282 144.097 142.964 144.097 142.964L143.935 142.219L147.082 130.117L148.63 122.593L149.067 120.471L149.224 119.709L155.515 116.521L157.753 115.383L158.774 114.866L160.079 114.206L170.979 108.682L173.025 107.641C173.523 107.449 174.101 107.504 174.746 107.773C174.777 107.788 174.807 107.799 174.838 107.814C180.864 110.464 192.607 130.975 199.141 138.555C206.416 146.983 225.059 169.082 239.31 184.506C241.184 186.536 242.971 188.521 244.662 190.481Z" fill="#EB927A"/>
<path d="M174.847 106.837C174.671 106.847 170.473 107.111 163.962 110.703L162.414 111.556C153.363 116.539 149.026 119.034 148.355 120.375C147.683 121.72 143.222 138.667 142.334 142.051C142.276 142.273 142.298 142.508 142.396 142.714C142.495 142.921 142.663 143.087 142.871 143.181C142.974 143.228 144.404 143.864 146 143.864C147.179 143.864 148.448 143.517 149.339 142.33C150.089 141.33 150.841 139.628 151.462 137.993C151.791 144.112 152.354 152.348 152.388 152.835C152.401 153.032 152.474 153.22 152.598 153.374C152.721 153.529 152.888 153.642 153.077 153.699C153.119 153.711 153.669 153.871 154.453 153.871C155.153 153.871 156.041 153.743 156.919 153.267C157.383 153.014 157.803 152.689 158.165 152.304L158.175 152.489C158.201 152.996 158.614 153.396 159.121 153.409C159.149 153.41 159.219 153.411 159.327 153.411C160.776 153.411 168.962 153.16 170.014 147.546C170.422 145.374 170.521 143.409 170.609 141.675C170.731 139.272 170.827 137.374 171.692 136.293C171.853 136.091 171.927 135.835 171.899 135.579C171.87 135.323 171.741 135.089 171.54 134.928C171.339 134.767 171.082 134.692 170.826 134.721C170.57 134.749 170.336 134.878 170.175 135.079C168.919 136.65 168.809 138.824 168.67 141.576C168.585 143.249 168.489 145.145 168.106 147.187C167.79 148.874 166.419 149.892 164.845 150.512C164.808 148.223 164.66 138.099 164.852 133.189C165.038 128.444 170.521 127.429 170.767 127.386C170.893 127.365 171.013 127.319 171.121 127.251C171.229 127.183 171.323 127.095 171.396 126.991C171.47 126.887 171.523 126.769 171.551 126.645C171.579 126.52 171.583 126.392 171.562 126.266C171.54 126.14 171.494 126.02 171.426 125.912C171.358 125.804 171.27 125.711 171.166 125.637C171.062 125.563 170.944 125.511 170.82 125.482C170.696 125.454 170.567 125.45 170.441 125.472C167.924 125.898 163.11 128.044 162.911 133.113C162.693 138.696 162.908 150.897 162.911 151.02C162.911 151.04 162.916 151.06 162.918 151.08C161.979 151.275 161.026 151.397 160.068 151.445C159.87 147.554 159.138 132.748 159.233 128.323C159.312 124.59 167.746 120.129 170.99 118.725C171.226 118.622 171.412 118.43 171.507 118.191C171.602 117.951 171.597 117.684 171.495 117.448C171.393 117.211 171.201 117.025 170.961 116.931C170.722 116.836 170.455 116.84 170.218 116.942C168.908 117.509 157.411 122.642 157.291 128.281C157.21 132.046 157.698 142.803 157.982 148.637C157.943 148.704 157.908 148.776 157.884 148.855C157.053 151.674 155.253 151.994 154.275 151.937C154.05 148.604 153.172 135.376 153.172 132.159L153.172 131.497C153.165 128.287 153.163 127.206 154.567 124.96C155.681 123.177 165.302 116.976 171.104 113.486C171.319 113.351 171.473 113.137 171.531 112.889C171.59 112.642 171.549 112.382 171.418 112.164C171.287 111.946 171.076 111.789 170.831 111.725C170.585 111.661 170.324 111.696 170.103 111.822C168.526 112.77 154.647 121.168 152.92 123.93C151.22 126.65 151.223 128.17 151.229 131.5L151.23 132.159C151.23 132.328 151.233 132.531 151.237 132.748C151.15 132.852 151.085 132.973 151.047 133.104C150.57 134.773 149.054 139.474 147.787 141.163C146.997 142.216 145.67 141.975 144.716 141.698C146.755 133.944 149.639 122.191 150.083 121.262C150.79 120.173 158.349 116.01 163.352 113.255L164.902 112.402C170.98 109.048 174.918 108.776 174.956 108.774C175.213 108.76 175.453 108.644 175.625 108.452C175.796 108.261 175.885 108.009 175.871 107.752C175.856 107.495 175.739 107.255 175.548 107.084C175.356 106.912 175.104 106.823 174.847 106.837Z" fill="#412945"/>
<path d="M103.228 89.4099C106.125 81.3749 106.176 72.2819 102.691 63.7524C95.2184 45.4616 74.333 36.6914 56.0417 44.1643C37.7504 51.6373 28.9807 72.5227 36.4537 90.814C43.9266 109.105 64.812 117.875 83.1028 110.402C90.1916 107.506 95.8413 102.59 99.6791 96.5972L113.881 100.058L103.228 89.4099Z" fill="#F7EDE5"/>
<path d="M87.9295 60.8664C90.9619 68.2889 88.4075 76.7436 82.1813 82.3587L84.1232 87.1118C84.2685 87.4675 84.3424 87.8484 84.3405 88.2326C84.3387 88.6169 84.2612 88.9971 84.1124 89.3514C83.9636 89.7057 83.7466 90.0272 83.4735 90.2977C83.2005 90.5681 82.8769 90.782 82.5211 90.9274L75.2782 93.8866C74.9224 94.0319 74.5415 94.1058 74.1573 94.1039C73.773 94.1021 73.3928 94.0246 73.0385 93.8758C72.6842 93.727 72.3627 93.5099 72.0923 93.2369C71.8218 92.9639 71.6079 92.6402 71.4625 92.2845L69.8048 88.2276C60.4617 89.6889 51.3738 85.3602 48.0274 77.169C44.0349 67.3963 49.7284 55.8226 60.7473 51.3212C71.7662 46.8188 83.937 51.0938 87.9295 60.8664Z" fill="#FFC063"/>
<path d="M75.1039 93.785L74.0933 93.6865C74.6563 87.9265 73.6586 82.0117 71.2682 76.7384C70.0281 77.0024 68.737 76.6925 67.6082 76.3352C66.5708 76.0068 65.3818 75.5633 64.4299 74.7626C63.3533 73.8576 62.7629 72.6036 62.849 71.4089C62.9166 70.4715 63.4142 69.6795 64.1469 69.3428C64.5258 69.1691 64.9672 69.1098 65.4968 69.1613C67.4819 69.3562 69.2155 70.8015 70.7974 73.5807C71.1518 74.2035 71.4859 74.8375 71.7992 75.4819C72.2597 75.2442 72.6454 74.8909 72.9677 74.4805C72.7113 73.7874 72.4633 73.0913 72.2236 72.3922C71.3759 69.9214 70.5339 67.0581 71.2836 64.3397C71.4017 63.9117 71.6234 63.3074 72.1803 63.0042C72.5294 62.814 72.9207 62.782 73.3116 62.9094C74.0257 63.144 74.5697 63.8478 74.8409 64.4279C75.9098 66.7162 75.9959 69.5743 75.0833 72.4747C74.8224 73.3033 74.4944 74.0237 74.1062 74.6269C76.792 81.74 79.7987 86.6771 83.6911 90.4236L82.9873 91.1553C79.0871 87.401 76.0609 82.5124 73.3735 75.5546C73.0415 75.8983 72.6551 76.1849 72.2298 76.4028C74.6661 81.8158 75.6819 87.8801 75.1039 93.785ZM65.1415 70.1585C64.9146 70.1585 64.7269 70.1941 64.5712 70.2653C64.1809 70.4447 63.9024 70.9217 63.8622 71.4816C63.7988 72.353 64.2557 73.2884 65.0837 73.985C65.8974 74.6692 66.9256 75.0534 67.915 75.3663C68.8334 75.6572 69.8667 75.9145 70.8185 75.7856C70.5346 75.2092 70.2335 74.6414 69.9157 74.083C68.509 71.6116 67.0313 70.3323 65.3983 70.1719C65.3129 70.1634 65.2273 70.1589 65.1415 70.1585ZM72.8465 63.8473C72.7835 63.8476 72.7218 63.8641 72.667 63.8952C72.5036 63.9844 72.3716 64.218 72.2633 64.6094C71.5909 67.0483 72.386 69.7347 73.1847 72.0617C73.3374 72.5062 73.4905 72.9429 73.6452 73.3719C73.8411 72.9646 73.9953 72.5505 74.116 72.169C74.9523 69.5114 74.8832 66.9147 73.9221 64.8569C73.7019 64.3846 73.3209 63.9803 72.996 63.8731C72.9478 63.8568 72.8974 63.8481 72.8465 63.8473Z" fill="#412945"/>
<path d="M87.0628 89.2423C87.1712 89.5077 87.2263 89.7919 87.225 90.0786C87.2236 90.3653 87.1658 90.6489 87.0548 90.9132C86.9438 91.1776 86.7818 91.4175 86.5781 91.6192C86.3744 91.821 86.133 91.9806 85.8676 92.0891L85.6902 92.1612L88.4436 98.9C88.8049 99.7842 88.8001 100.776 88.4304 101.656C88.0606 102.537 87.3561 103.235 86.4719 103.596L81.3646 105.683C80.4804 106.044 79.4888 106.04 78.6081 105.67C77.7274 105.3 77.0296 104.595 76.6683 103.711L75.0596 99.7729L76.4827 97.1932L73.9154 96.9725L73.7359 97.0458C73.4705 97.1542 73.1864 97.2093 72.8997 97.2079C72.613 97.2066 72.3294 97.1487 72.065 97.0378C71.8007 96.9268 71.5608 96.7648 71.359 96.5611C71.1573 96.3574 70.9976 96.1159 70.8892 95.8505C70.6703 95.3144 70.6733 94.7133 70.8975 94.1793C71.1218 93.6454 71.5489 93.2224 72.0849 93.0033L84.2165 88.0471C84.4819 87.9385 84.766 87.8833 85.0527 87.8846C85.3394 87.8859 85.6231 87.9437 85.8874 88.0547C86.1517 88.1657 86.3916 88.3278 86.5933 88.5315C86.795 88.7353 86.9545 88.9768 87.0628 89.2423Z" fill="#B5E1E8"/>
<path d="M85.6902 92.1613L75.059 99.7729L73.9149 96.972L85.6902 92.1613Z" fill="#412945"/>
<path d="M76.0738 55.5828C76.5203 55.752 76.9421 55.9747 77.3381 56.2413C77.5206 56.3645 77.698 56.4955 77.8723 56.6296C78.0563 56.7708 78.2394 56.9132 78.3874 57.0921C78.5983 57.3458 78.8473 57.5695 79.1443 57.717C79.3366 57.8124 79.5501 57.8604 79.7641 57.8671C80.0913 57.8744 80.4147 57.7958 80.702 57.6392C81.5162 57.1983 81.9039 55.9304 81.1913 55.1925C79.9167 53.8725 78.0697 52.0343 76.0887 52.4633C74.7264 52.9686 74.7079 55.0657 76.0738 55.5828ZM81.3404 61.2222C82.6418 62.9217 83.2982 65.059 83.4776 67.1736L83.4828 67.238C83.7143 69.4047 87.0906 69.0092 86.8364 66.8374C86.6162 64.0788 85.6108 61.4146 84.0149 59.1603C82.7062 57.4195 80.0095 59.4851 81.3404 61.2222Z" fill="#F7EDE5"/>
<path d="M209.883 117.966C205.244 117.966 201.471 114.192 201.471 109.554C201.471 104.916 205.245 101.142 209.883 101.142C214.521 101.142 218.295 104.915 218.295 109.554C218.295 114.192 214.521 117.966 209.883 117.966ZM209.883 102.8C206.158 102.8 203.128 105.829 203.128 109.553C203.128 113.278 206.158 116.307 209.883 116.307C213.607 116.307 216.637 113.278 216.637 109.553C216.637 105.829 213.607 102.8 209.883 102.8ZM146.302 28.2661C141.664 28.2661 137.89 24.4927 137.89 19.8542C137.89 15.2156 141.664 11.4423 146.302 11.4423C150.941 11.4423 154.714 15.2156 154.714 19.8542C154.714 24.4927 150.941 28.2661 146.302 28.2661ZM146.302 13.1C142.578 13.1 139.548 16.1298 139.548 19.8542C139.548 23.5785 142.578 26.6083 146.302 26.6083C150.027 26.6083 153.056 23.5785 153.056 19.8542C153.056 16.1298 150.027 13.1 146.302 13.1ZM34.8258 182.259C30.1873 182.259 26.4139 178.486 26.4139 173.847C26.4139 169.209 30.1873 165.435 34.8258 165.435C39.4644 165.435 43.2377 169.209 43.2377 173.847C43.2377 178.485 39.4644 182.259 34.8258 182.259ZM34.8258 167.093C31.1015 167.093 28.0716 170.123 28.0716 173.847C28.0716 177.571 31.1015 180.601 34.8258 180.601C38.5502 180.601 41.58 177.571 41.58 173.847C41.58 170.123 38.5502 167.093 34.8258 167.093Z" fill="#412945"/>
</g>
<defs>
<clipPath id="clip0_37_74">
<rect width="264" height="264" fill="white"/>
</clipPath>
</defs>
</svg>
