<svg width="261" height="343" viewBox="0 0 261 343" fill="none" xmlns="http://www.w3.org/2000/svg">
<path d="M163.8 11.1511C163.477 8.39556 159.99 15.5718 152.643 13.7446C145.297 11.9174 139.488 -5.32337 127.231 1.65398C114.974 8.63133 95.532 47.8282 95.532 47.8282L151.956 46.841C151.956 46.841 143.784 22.3797 144.1 19.4178C144.415 16.456 149.286 20.6262 153.137 20.2136C156.988 19.801 164.092 13.9067 163.8 11.1511Z" fill="#570B7F"/>
<path d="M122.619 77.8448C145.47 77.8448 163.994 65.7716 163.994 50.8785C163.994 35.9855 145.47 23.9122 122.619 23.9122C99.7682 23.9122 81.2439 35.9855 81.2439 50.8785C81.2439 65.7716 99.7682 77.8448 122.619 77.8448Z" fill="#8F00CD"/>
<path d="M130.637 79.488C129.685 80.598 128.468 81.4959 127.078 82.1135C125.688 82.731 124.162 83.052 122.615 83.052C121.069 83.052 119.542 82.731 118.152 82.1135C116.762 81.4959 115.545 80.598 114.593 79.488L117.724 60.781H127.506L130.637 79.488Z" fill="#FF83DF"/>
<path d="M128.679 67.7951L127.684 61.6724H117.579C117.239 63.6912 116.899 65.7174 116.568 67.7362C120.446 69.173 124.784 69.1941 128.679 67.7951Z" fill="#FF59CF"/>
<path d="M122.619 61.4661C129.04 61.4661 134.246 56.7259 134.246 50.8785C134.246 45.0312 129.04 40.291 122.619 40.291C116.198 40.291 110.993 45.0312 110.993 50.8785C110.993 56.7259 116.198 61.4661 122.619 61.4661Z" fill="#FF83DF"/>
<path d="M111.009 50.886C111.009 50.886 111.705 59.3516 114.618 62.8808C115.839 64.303 117.433 65.4228 119.254 66.1374C120.311 66.5746 121.458 66.8008 122.619 66.8008C123.78 66.8008 124.928 66.5746 125.985 66.1374C127.803 65.4187 129.396 64.2996 130.621 62.8808C133.525 59.3516 134.229 50.886 134.229 50.886C120.289 50.8786 125.629 50.8786 111.009 50.886Z" fill="#FF83DF"/>
<path d="M75.0223 114.102C69.2834 149.468 63.5498 184.85 57.8217 220.25C102.255 248.403 157.336 248.035 201.518 223.934C195.353 190.499 187.473 156.077 177.562 120.858L130.637 79.4878H114.593L75.0223 114.102Z" fill="#8F00CD"/>
<path d="M120.224 79.4878C111.268 76.4744 95.8555 72.8199 79.7714 77.7122C69.6825 80.7772 66.9317 84.8811 45.702 103.824C13.72 132.359 2.82195 138.364 3.87372 150.241C4.4077 156.136 7.79765 162.464 13.3154 165.905C27.5791 174.798 57.2553 164.955 84.9413 138.541C88.2746 128.226 91.6106 117.891 94.9493 107.537L120.224 79.4878ZM128.679 79.4878C137.643 76.4744 153.056 72.8199 169.132 77.7122C179.213 80.7772 181.972 84.8811 203.201 103.824C235.175 132.359 246.081 138.364 245.03 150.241C244.496 156.136 241.097 162.464 235.58 165.905C221.316 174.798 191.64 164.955 163.962 138.541L153.978 107.508L128.679 79.4878Z" fill="#8F00CD"/>
<path d="M73.6713 119.797C73.6713 119.797 68.817 144.288 83.2344 163.938C83.2344 163.938 6.32539 192.805 3.84967 150.212L36.6084 132.802L73.6713 119.797ZM173.388 119.797C173.388 119.797 178.242 144.288 163.833 163.938C163.833 163.938 240.742 192.805 243.217 150.212L210.451 132.802L173.388 119.797Z" fill="#8F00CD"/>
<path d="M67.9269 141.496C67.4819 152.879 71.4544 166.451 76.3977 166.738C80.977 166.996 85.4996 155.804 87.2553 149.055C91.519 132.573 86.8669 113.137 81.0498 112.651C75.7019 112.172 68.4609 127.651 67.9269 141.496ZM169.091 144.922C170.855 154.308 175.928 167.998 181.13 167.762C185.734 167.556 189.504 156.445 189.917 147.581C190.726 130.37 179.205 112.916 173.444 113.933C168.048 114.876 166.705 132.205 169.091 144.922Z" fill="#570B7F"/>
<path d="M81.5676 110.094L65.532 118.692L49.8606 134.054C49.8606 134.054 64.8686 155.251 75.4996 146.955C86.1306 138.659 85.2083 135.483 91.6808 134.054C98.1532 132.625 98.4283 120.328 98.4283 120.328L81.5676 110.094Z" fill="#FF83DF"/>
<path d="M91.5109 112.518C90.9203 109.121 89.0838 101.68 82.4495 97.3475C81.0255 96.4118 79.2133 95.2477 77.1097 95.5645C73.5984 96.1097 70.7748 100.67 70.1923 107.176C70.1923 107.176 64.2295 100.928 59.5046 112.805C59.5046 112.805 52.927 108.385 49.3914 117.926C49.3914 117.926 41.6325 114.544 39.2701 122.229C36.9076 129.913 34.7151 140.354 39.2701 141.886C43.8251 143.419 47.7005 137.613 47.7005 137.613C47.7005 137.613 48.2102 147.449 54.1082 144.679C60.0062 141.908 60.1842 132.698 60.1842 132.698C60.1842 132.698 60.3218 143.912 65.5644 141.606C70.8071 139.3 73.3395 134.695 73.655 125.021C73.655 125.021 75.6858 133.317 81.0822 131.475C86.4786 129.633 83.1048 118.567 83.1048 118.567C96.2115 123.363 96.3006 134.393 101.252 134.577C102.805 134.629 103.995 133.605 104.69 133.008C111.859 126.848 107.118 107.766 100.459 106.594C98.5578 106.226 95.7099 107.25 91.5109 112.518ZM114.868 77.8743C114.472 83.1718 116.648 87.5704 120.265 88.9261C121.451 89.3724 122.759 89.4753 124.011 89.2208C127.635 88.4325 130.378 84.3286 130.54 78.9058C129.067 76.0471 125.977 74.1978 114.868 77.8743Z" fill="#FF83DF"/>
<path d="M47.7004 137.952C47.5985 137.952 47.5002 137.917 47.4252 137.854C47.3502 137.792 47.304 137.705 47.2959 137.613C46.7527 130.978 47.3257 124.307 48.9949 117.83C49.0228 117.732 49.0922 117.649 49.1878 117.598C49.2834 117.547 49.3973 117.532 49.5046 117.558C49.6119 117.583 49.7037 117.646 49.7599 117.733C49.816 117.82 49.8319 117.924 49.804 118.022C48.1561 124.419 47.5914 131.008 48.1292 137.561C48.1328 137.613 48.1241 137.666 48.1038 137.714C48.0835 137.763 48.0521 137.808 48.0115 137.845C47.971 137.881 47.9223 137.91 47.8686 137.929C47.815 137.947 47.7577 137.955 47.7004 137.952ZM57.1259 142.564C57.0436 142.563 56.9635 142.54 56.8962 142.496C56.829 142.453 56.7779 142.392 56.7498 142.321C56.7216 142.251 56.7178 142.174 56.7387 142.102C56.7597 142.029 56.8045 141.964 56.8671 141.916C56.8671 141.916 59.5612 139.808 59.8363 135.034C59.768 134.242 59.7491 133.448 59.7797 132.654C59.7837 132.562 59.8259 132.474 59.8978 132.408C59.9698 132.343 60.0663 132.304 60.168 132.301C60.2712 132.302 60.3705 132.336 60.4478 132.399C60.5251 132.461 60.5751 132.546 60.5887 132.639C60.6654 133.433 60.687 134.23 60.6534 135.027C60.9123 138.35 61.956 142.306 65.435 141.23C70.977 139.514 72.0369 126.966 72.045 126.834C72.0267 126.736 72.0519 126.636 72.1148 126.555C72.1778 126.474 72.2734 126.419 72.3807 126.403C72.488 126.386 72.5982 126.409 72.6869 126.466C72.7757 126.524 72.8358 126.611 72.854 126.708C72.854 126.76 75.3217 131.601 78.2343 132.087C78.7174 132.151 79.2105 132.102 79.6666 131.943C80.1226 131.784 80.5265 131.522 80.8394 131.181C85.0465 127.379 83.7763 110.293 83.7601 110.116C83.7534 110.019 83.7887 109.924 83.8583 109.851C83.928 109.778 84.0264 109.733 84.1323 109.725C84.2387 109.721 84.343 109.754 84.4241 109.817C84.5051 109.879 84.557 109.968 84.5692 110.064C84.6258 110.801 85.8799 127.666 81.4139 131.704C78.2585 134.555 74.9414 131.704 72.7489 128.138C72.3201 131.483 70.7262 140.383 65.7262 141.93C62.5952 142.896 60.9771 140.67 60.2732 137.709C59.8779 139.53 58.8782 141.196 57.4091 142.483C57.3708 142.514 57.3258 142.537 57.277 142.551C57.2282 142.565 57.1767 142.569 57.1259 142.564ZM96.5109 129.854C96.4542 129.855 96.398 129.844 96.3461 129.823C96.2942 129.803 96.2477 129.772 96.2095 129.734C96.1714 129.696 96.1425 129.651 96.1247 129.602C96.1069 129.552 96.1007 129.501 96.1064 129.449C96.1064 129.368 96.9154 121.345 94.1889 118.154C94.1224 118.077 94.0922 117.979 94.1051 117.882C94.118 117.784 94.1729 117.695 94.2577 117.635C94.3424 117.574 94.4501 117.547 94.5571 117.559C94.6641 117.57 94.7615 117.62 94.828 117.697C97.7487 121.124 96.9397 129.177 96.9397 129.508C96.9314 129.605 96.8821 129.696 96.8021 129.76C96.7221 129.825 96.6177 129.859 96.5109 129.854Z" fill="#570B7F"/>
<path d="M72.4497 127.232C72.3496 127.23 72.2533 127.196 72.1789 127.135C72.1045 127.074 72.0569 126.991 72.0452 126.9L69.7879 107.213C69.7821 107.165 69.7867 107.116 69.8017 107.069C69.8166 107.022 69.8415 106.979 69.8749 106.941C69.9084 106.903 69.9497 106.871 69.9965 106.848C70.0434 106.824 70.0948 106.809 70.1479 106.804C70.201 106.799 70.2548 106.803 70.3061 106.817C70.3574 106.83 70.4053 106.853 70.447 106.883C70.4887 106.914 70.5234 106.951 70.5491 106.994C70.5749 107.037 70.5911 107.084 70.597 107.132L72.8623 126.826C72.8681 126.878 72.8616 126.931 72.8434 126.98C72.8251 127.03 72.7955 127.075 72.7565 127.114C72.7174 127.152 72.6699 127.182 72.617 127.203C72.5641 127.223 72.5071 127.233 72.4497 127.232ZM60.1844 133.037C60.0798 133.037 59.9793 133.001 59.9039 132.935C59.8285 132.869 59.784 132.779 59.7799 132.684L59.1002 112.791C59.098 112.692 59.1384 112.597 59.2125 112.525C59.2866 112.454 59.3887 112.411 59.4967 112.407C59.6026 112.405 59.7052 112.441 59.7823 112.507C59.8595 112.574 59.9051 112.665 59.9093 112.761L60.5889 132.654C60.59 132.704 60.5804 132.753 60.5606 132.799C60.5409 132.845 60.5114 132.887 60.4738 132.922C60.4362 132.958 60.3913 132.986 60.3417 133.006C60.292 133.026 60.2386 133.036 60.1844 133.037Z" fill="#570B7F"/>
<path d="M169.803 110.094L185.839 118.692L201.51 134.054C201.51 134.054 186.494 155.251 175.871 146.955C165.248 138.659 166.163 135.483 159.69 134.054C153.218 132.625 152.943 120.328 152.943 120.328L169.803 110.094Z" fill="#FF83DF"/>
<path d="M159.892 112.518C160.475 109.121 162.32 101.68 168.954 97.3476C170.378 96.4119 172.19 95.2477 174.294 95.5646C177.805 96.1098 180.629 100.67 181.211 107.176C181.211 107.176 187.174 100.928 191.899 112.805C191.899 112.805 198.476 108.385 202.012 117.926C202.012 117.926 209.771 114.544 212.133 122.229C214.496 129.913 216.688 140.354 212.133 141.886C207.578 143.419 203.735 137.613 203.735 137.613C203.735 137.613 203.226 147.449 197.328 144.679C191.43 141.908 191.252 132.698 191.252 132.698C191.252 132.698 191.114 143.912 185.871 141.606C180.629 139.3 178.096 134.695 177.781 125.021C177.781 125.021 175.758 133.317 170.362 131.475C164.965 129.633 168.339 118.567 168.339 118.567C155.232 123.363 155.143 134.393 150.192 134.577C148.638 134.629 147.449 133.605 146.753 133.008C139.585 126.848 144.326 107.766 150.985 106.594C152.862 106.226 155.693 107.25 159.892 112.518Z" fill="#FF83DF"/>
<path d="M203.735 137.952C203.68 137.952 203.625 137.942 203.575 137.922C203.524 137.902 203.478 137.873 203.44 137.836C203.402 137.799 203.373 137.756 203.354 137.709C203.336 137.662 203.328 137.611 203.331 137.561C203.869 131.008 203.305 124.419 201.656 118.022C201.628 117.924 201.644 117.82 201.7 117.733C201.756 117.646 201.848 117.583 201.955 117.557C202.063 117.532 202.177 117.547 202.272 117.598C202.368 117.649 202.437 117.732 202.465 117.83C204.134 124.307 204.707 130.978 204.164 137.613C204.156 137.709 204.106 137.799 204.026 137.862C203.946 137.926 203.841 137.958 203.735 137.952ZM194.277 142.564C194.186 142.567 194.096 142.538 194.027 142.483C192.558 141.196 191.558 139.53 191.163 137.709C190.467 140.656 188.849 142.866 185.71 141.93C180.71 140.383 179.116 131.483 178.687 128.138C176.511 131.674 173.177 134.562 170.022 131.704C165.556 127.666 166.786 110.786 166.867 110.064C166.879 109.969 166.929 109.882 167.009 109.819C167.088 109.756 167.19 109.723 167.295 109.725C167.349 109.728 167.401 109.741 167.448 109.762C167.496 109.783 167.539 109.813 167.575 109.849C167.61 109.885 167.637 109.927 167.654 109.973C167.672 110.019 167.679 110.068 167.676 110.116C167.676 110.293 166.389 127.379 170.588 131.181C170.902 131.521 171.306 131.783 171.762 131.942C172.218 132.101 172.71 132.15 173.193 132.087C176.114 131.601 178.557 126.76 178.582 126.708C178.609 126.619 178.672 126.542 178.758 126.492C178.844 126.443 178.948 126.424 179.048 126.439C179.149 126.455 179.239 126.504 179.303 126.577C179.366 126.649 179.397 126.741 179.391 126.834C179.391 126.966 180.459 139.514 186.001 141.23C189.48 142.306 190.523 138.35 190.782 135.027C190.749 134.23 190.77 133.433 190.847 132.639C190.847 132.542 190.89 132.448 190.966 132.379C191.041 132.31 191.144 132.271 191.252 132.271C191.359 132.271 191.462 132.31 191.538 132.379C191.614 132.448 191.656 132.542 191.656 132.639C191.687 133.433 191.668 134.228 191.6 135.019C191.875 139.794 194.536 141.879 194.569 141.901C194.642 141.949 194.695 142.018 194.719 142.097C194.744 142.175 194.74 142.259 194.706 142.336C194.673 142.412 194.613 142.475 194.535 142.517C194.457 142.558 194.367 142.575 194.277 142.564ZM154.893 129.854C154.792 129.855 154.695 129.821 154.62 129.76C154.545 129.699 154.498 129.614 154.488 129.523C154.488 129.177 153.679 121.123 156.575 117.697C156.642 117.622 156.738 117.573 156.844 117.561C156.949 117.548 157.056 117.574 157.142 117.631C157.225 117.693 157.279 117.782 157.293 117.879C157.306 117.977 157.278 118.075 157.215 118.154C154.496 121.345 155.289 129.368 155.297 129.449C155.302 129.5 155.294 129.552 155.276 129.6C155.258 129.649 155.229 129.693 155.191 129.731C155.153 129.769 155.107 129.8 155.056 129.821C155.004 129.842 154.949 129.854 154.893 129.854Z" fill="#570B7F"/>
<path d="M178.954 127.231C178.897 127.232 178.841 127.221 178.789 127.2C178.737 127.18 178.691 127.149 178.653 127.111C178.615 127.073 178.586 127.028 178.568 126.979C178.55 126.93 178.544 126.878 178.549 126.826L180.815 107.132C180.82 107.085 180.835 107.038 180.86 106.996C180.885 106.954 180.918 106.917 180.959 106.887C181 106.857 181.046 106.834 181.097 106.821C181.147 106.807 181.2 106.803 181.252 106.808C181.305 106.812 181.357 106.827 181.404 106.85C181.451 106.872 181.493 106.904 181.527 106.941C181.56 106.979 181.586 107.022 181.601 107.069C181.616 107.116 181.621 107.165 181.616 107.213L179.359 126.9C179.347 126.991 179.299 127.074 179.225 127.135C179.15 127.196 179.054 127.23 178.954 127.231ZM190.791 132.662L191.47 112.768C191.47 112.671 191.513 112.577 191.589 112.508C191.664 112.439 191.767 112.4 191.875 112.4C191.982 112.4 192.085 112.439 192.161 112.508C192.237 112.577 192.279 112.671 192.279 112.768L191.6 132.662C191.6 132.759 191.557 132.853 191.481 132.922C191.405 132.991 191.302 133.03 191.195 133.03C191.088 133.03 190.985 132.991 190.909 132.922C190.833 132.853 190.791 132.759 190.791 132.662ZM189.69 171.505C189.569 171.505 190.143 171.719 180.969 168.13C180.874 168.09 180.8 168.018 180.763 167.929C180.726 167.84 180.727 167.741 180.768 167.653C180.809 167.566 180.886 167.496 180.982 167.458C181.078 167.421 181.186 167.419 181.284 167.453L189.852 170.768C189.959 170.788 190.054 170.845 190.114 170.928C190.175 171.011 190.197 171.112 190.176 171.21C190.154 171.308 190.091 171.394 190 171.449C189.909 171.504 189.797 171.524 189.69 171.505ZM66.1147 169.442C66.0074 169.454 65.8994 169.426 65.8145 169.365C65.7295 169.304 65.6745 169.215 65.6617 169.118C65.6488 169.02 65.6791 168.922 65.7458 168.844C65.8126 168.767 65.9104 168.717 66.0176 168.705L76.3008 166.347C76.4081 166.324 76.5212 166.34 76.6153 166.393C76.7093 166.445 76.7766 166.53 76.8024 166.627C76.8281 166.725 76.8102 166.828 76.7525 166.914C76.6949 166.999 76.6022 167.061 76.4949 167.084C65.4756 169.597 66.1956 169.442 66.1147 169.442ZM125.734 42.4203C125.734 42.4203 121.915 40.0994 120.225 46.1042C118.534 52.109 112.652 50.8785 112.652 50.8785C112.652 50.8785 110.386 57.2075 114.82 61.6724C119.254 66.1373 119.626 67.3751 117.644 70.2707C115.661 73.1663 123.582 77.9185 116.568 82.015C109.553 86.1116 102.498 75.826 102.498 75.826C98.6522 75.2459 94.7361 75.1591 90.8638 75.5682C92.3848 69.1803 95.2974 65.9237 97.8541 64.1259C100.411 62.3282 102.158 61.9892 103.25 59.8747C104.343 57.7601 103.954 55.174 103.097 51.4311C101.6 44.8737 109.569 47.0104 110.993 40.2983C112.417 33.5862 120.564 31.84 127.684 38.088C127.684 38.088 134.504 35.9586 139.229 40.2983C143.954 44.638 137.134 51.7553 145.224 52.7573C153.315 53.7594 142.53 64.6048 149.577 67.5372C156.624 70.4696 154.828 75.3619 154.828 75.3619C146.618 75.8935 138.502 77.2778 130.637 79.4879C129.08 77.2834 128.049 74.8055 127.612 72.2149C127.174 69.6243 127.339 66.9788 128.097 64.4501C130.042 63.0971 131.57 61.3101 132.536 59.2618C133.501 57.2136 133.87 54.9733 133.606 52.7573C133.606 52.7573 129.61 50.547 129.674 46.5315C129.707 44.2106 128.428 42.7518 125.734 42.4203Z" fill="#570B7F"/>
<path d="M114.619 59.5449C116.61 58.5032 117.019 55.7502 115.533 53.396C114.047 51.0418 111.229 49.9778 109.239 51.0195C107.249 52.0612 106.84 54.8142 108.325 57.1684C109.811 59.5226 112.629 60.5866 114.619 59.5449Z" fill="#FF83DF"/>
<path d="M138.238 56.8883C139.723 54.5448 139.322 51.8006 137.34 50.7589C135.359 49.7172 132.548 50.7725 131.063 53.116C129.577 55.4594 129.979 58.2036 131.96 59.2453C133.941 60.287 136.752 59.2317 138.238 56.8883Z" fill="#FF83DF"/>
<path d="M109.885 55.4319C110.006 54.9456 110.419 54.5993 111.26 54.6141C110.831 53.9804 109.755 52.669 109.27 53.2731C109.08 53.67 109.04 54.1132 109.157 54.533C109.176 54.6286 109.154 54.7272 109.095 54.8083C109.036 54.8893 108.945 54.9465 108.841 54.9677C108.789 54.9774 108.735 54.9777 108.683 54.9685C108.631 54.9593 108.581 54.9408 108.537 54.9141C108.493 54.8874 108.455 54.8531 108.425 54.8129C108.395 54.7728 108.374 54.7278 108.364 54.6804C107.781 52.1458 110.306 51.048 112.409 54.9677C112.445 55.0337 112.458 55.1078 112.447 55.1806C112.435 55.2534 112.401 55.3215 112.347 55.3762C112.293 55.4308 112.222 55.4696 112.144 55.4874C112.066 55.5052 111.983 55.5013 111.907 55.4761C111.564 55.3471 111.183 55.3238 110.823 55.4098C110.378 55.6382 111.09 56.6476 111.762 56.8392C111.948 56.8907 112.15 56.8981 112.312 56.5518C112.328 56.5027 112.356 56.4572 112.393 56.4184C112.43 56.3795 112.475 56.3481 112.526 56.3261C112.577 56.3042 112.632 56.2922 112.689 56.2909C112.745 56.2896 112.801 56.299 112.853 56.3187C112.906 56.3383 112.953 56.3676 112.992 56.4047C113.03 56.4419 113.06 56.486 113.08 56.5343C113.099 56.5826 113.106 56.6341 113.102 56.6853C113.098 56.7365 113.083 56.7864 113.056 56.8318C112.183 58.6885 109.553 56.7581 109.885 55.4319ZM133.412 57.6054C133.165 57.5997 132.926 57.5264 132.725 57.395C132.525 57.2635 132.372 57.0801 132.288 56.8686C132.249 56.7785 132.251 56.6785 132.292 56.5894C132.332 56.5002 132.409 56.4287 132.506 56.3897C132.555 56.3704 132.608 56.3603 132.662 56.3598C132.716 56.3594 132.769 56.3687 132.819 56.3873C132.869 56.4058 132.914 56.4331 132.952 56.4677C132.99 56.5023 133.02 56.5434 133.04 56.5887C133.194 56.9349 133.396 56.9276 133.59 56.876C134.246 56.6844 134.974 55.675 134.521 55.4466C134.161 55.3612 133.78 55.3844 133.436 55.5129C133.361 55.5381 133.278 55.542 133.2 55.5242C133.122 55.5064 133.051 55.4677 132.997 55.413C132.943 55.3584 132.908 55.2903 132.897 55.2175C132.886 55.1447 132.899 55.0705 132.935 55.0046C133.178 54.5478 134.464 52.3006 135.839 52.4258C136.972 52.5363 137.207 53.7078 136.972 54.7172C136.951 54.8149 136.887 54.9009 136.796 54.9561C136.705 55.0114 136.594 55.0315 136.487 55.0119C136.379 54.9924 136.285 54.9348 136.224 54.8519C136.164 54.769 136.142 54.6676 136.163 54.5699C136.275 54.1498 136.236 53.7078 136.05 53.31C135.564 52.7058 134.488 54.0467 134.051 54.6509C134.345 54.6312 134.638 54.6847 134.901 54.8056C136.276 55.4466 134.844 57.6054 133.412 57.6054ZM83.995 97.6202C85.9933 93.5531 88.5742 88.3735 88.5742 88.3735L89.3105 88.683C89.3105 88.683 86.7296 93.8405 84.7312 97.9223C84.7117 97.9693 84.6817 98.0122 84.6433 98.0483C84.6049 98.0844 84.5587 98.113 84.5077 98.1322C84.4567 98.1515 84.4019 98.161 84.3467 98.1603C84.2915 98.1595 84.237 98.1484 84.1867 98.1278C84.1363 98.1071 84.0911 98.0773 84.0539 98.0401C84.0167 98.003 83.9882 97.9593 83.9703 97.9117C83.9523 97.8642 83.9453 97.8138 83.9495 97.7636C83.9537 97.7135 83.9692 97.6647 83.995 97.6202ZM163.995 102.542C163.903 102.541 163.814 102.512 163.742 102.46C163.67 102.408 163.62 102.336 163.598 102.255C162.15 96.795 156.648 91.1438 156.592 91.0849C156.554 91.0506 156.524 91.0099 156.503 90.965C156.483 90.9201 156.472 90.872 156.472 90.8233C156.472 90.7747 156.483 90.7266 156.503 90.6817C156.524 90.6368 156.554 90.596 156.592 90.5618C156.667 90.4943 156.769 90.4565 156.875 90.4565C156.981 90.4565 157.082 90.4943 157.158 90.5618C157.393 90.7975 162.821 96.4118 164.351 102.056C164.371 102.109 164.377 102.166 164.369 102.222C164.361 102.278 164.339 102.332 164.304 102.379C164.27 102.426 164.224 102.465 164.17 102.493C164.117 102.521 164.056 102.538 163.995 102.542Z" fill="#570B7F"/>
<path d="M122.069 96.5076C123.088 96.5076 123.914 95.7555 123.914 94.8277C123.914 93.8999 123.088 93.1478 122.069 93.1478C121.05 93.1478 120.224 93.8999 120.224 94.8277C120.224 95.7555 121.05 96.5076 122.069 96.5076Z" fill="#570B7F"/>
<path d="M122.619 110.035C123.638 110.035 124.464 109.283 124.464 108.355C124.464 107.427 123.638 106.675 122.619 106.675C121.6 106.675 120.774 107.427 120.774 108.355C120.774 109.283 121.6 110.035 122.619 110.035Z" fill="#570B7F"/>
<path d="M123.21 61.4662C124.859 61.4662 126.195 60.8229 126.195 60.0294C126.195 59.236 124.859 58.5927 123.21 58.5927C121.561 58.5927 120.224 59.236 120.224 60.0294C120.224 60.8229 121.561 61.4662 123.21 61.4662Z" fill="#570B7F"/>
<path d="M38.461 196.018C36.9885 196.136 19.7071 197.764 10.8317 212.109C1.33337 227.471 10.5081 242.818 10.9935 243.599C10.9935 243.599 -7.37209 257.524 3.3722 276.43C14.1165 295.336 35.9449 289.39 35.9449 289.39C35.9449 289.39 51.8914 314.507 83.0806 302.896C83.0806 302.896 102.498 315.863 121.203 308.296C123.137 307.515 127.732 305.349 131.527 307.073C135.192 308.716 134.982 312.562 138.088 316.843C143.016 323.636 151.972 325.589 153.088 325.817C165.904 328.455 172.935 317.668 182.036 321.293C186.519 323.083 184.876 325.714 191.462 331.859C200.175 339.963 214.253 345.769 220.321 341.628C220.709 341.356 222.295 340.737 222.279 339.418C222.279 335.786 203.824 333.332 198.816 313.542C198.816 313.542 227.263 308.281 227.942 288.293C231.818 286.819 242.392 282.221 248.039 271.774C256.13 256.847 248.848 239.797 239.431 230.101C228.913 219.263 215.159 216.839 210.256 216.176C211.721 207.04 206.834 198 197.465 192.599C184.148 184.936 168.954 188.79 167.627 189.151C164.706 186.874 124.432 156.526 78.477 170.179C57.5548 176.434 44.5613 189.077 38.461 196.018Z" fill="#00E4E0"/>
<path d="M88.9059 220.973C88.8066 220.971 88.7114 220.937 88.6383 220.876C88.5652 220.814 88.5193 220.731 88.5094 220.641C88.0263 217.919 86.3837 215.481 83.9382 213.855C80.702 211.829 76.0823 211.512 70.2975 212.919C70.1968 212.943 70.0899 212.931 69.9984 212.886C69.9069 212.841 69.8375 212.766 69.804 212.676C69.7474 212.514 64.1406 196.998 38.453 196.386C38.3457 196.386 38.2428 196.347 38.167 196.278C38.0911 196.209 38.0485 196.115 38.0485 196.018C38.0485 195.92 38.0911 195.826 38.167 195.757C38.2428 195.688 38.3457 195.649 38.453 195.649C52.207 195.981 60.1843 200.512 64.4642 204.262C67.0541 206.458 69.0886 209.141 70.427 212.124C76.2846 210.761 80.9447 211.136 84.3751 213.251C85.6893 214.108 86.8012 215.196 87.6448 216.452C88.4884 217.707 89.0465 219.104 89.2861 220.56C89.2928 220.61 89.2882 220.661 89.2724 220.709C89.2567 220.758 89.2301 220.803 89.1944 220.841C89.1588 220.88 89.1148 220.912 89.0651 220.934C89.0155 220.957 88.9613 220.97 88.9059 220.973ZM154.496 241.455C164.763 232.43 174.852 239.355 177.061 241.094C180.726 232.901 187.344 222.417 198.299 217.849C205.022 215.041 210.127 215.8 210.337 215.837C210.445 215.854 210.54 215.909 210.603 215.989C210.666 216.07 210.691 216.17 210.673 216.268C210.655 216.366 210.595 216.453 210.506 216.51C210.417 216.568 210.307 216.591 210.2 216.574C209.998 216.574 189.909 213.767 177.595 241.868C177.571 241.925 177.533 241.975 177.482 242.015C177.431 242.055 177.37 242.082 177.305 242.094C177.24 242.107 177.172 242.104 177.108 242.086C177.044 242.069 176.986 242.037 176.939 241.993C176.494 241.595 166.041 232.348 155.054 241.993C154.976 242.06 154.872 242.097 154.764 242.094C154.656 242.091 154.554 242.05 154.48 241.978C154.406 241.907 154.366 241.812 154.369 241.714C154.372 241.616 154.418 241.523 154.496 241.455ZM82.9188 302.564C83.0564 302.512 96.7133 296.824 98.0644 278.574C98.0782 278.48 98.1294 278.393 98.2084 278.331C98.2873 278.269 98.3886 278.235 98.4932 278.235C98.5463 278.238 98.5984 278.251 98.6463 278.272C98.6942 278.293 98.737 278.322 98.7724 278.359C98.8077 278.395 98.8348 278.437 98.8521 278.483C98.8695 278.529 98.8767 278.578 98.8735 278.626C98.1534 288.396 93.9544 294.563 90.5563 298.011C88.5308 300.174 86.0563 301.951 83.2748 303.242C83.1761 303.285 83.0627 303.29 82.9595 303.257C82.8563 303.224 82.7719 303.155 82.7247 303.065C82.6774 302.975 82.6714 302.872 82.7078 302.778C82.7442 302.684 82.8201 302.607 82.9188 302.564ZM47.5145 243.968C46.8349 243.968 36.7055 234.773 21.9725 238.67C18.0462 239.707 14.4006 241.479 11.2687 243.872C11.2311 243.906 11.1863 243.934 11.137 243.952C11.0877 243.971 11.0349 243.981 10.9815 243.981C10.9281 243.981 10.8752 243.971 10.8259 243.952C10.7766 243.934 10.7319 243.906 10.6943 243.872C10.6196 243.802 10.5779 243.708 10.5779 243.61C10.5779 243.513 10.6196 243.419 10.6943 243.349C10.8642 243.209 27.9838 229.217 47.7329 243.349C47.7839 243.397 47.8197 243.456 47.8364 243.521C47.853 243.586 47.85 243.654 47.8276 243.718C47.8051 243.781 47.7641 243.838 47.709 243.882C47.6538 243.926 47.5866 243.956 47.5145 243.968ZM120.224 210.731C120.149 210.731 120.074 210.711 120.01 210.674C119.946 210.637 119.895 210.585 119.862 210.523C119.829 210.46 119.816 210.391 119.824 210.322C119.833 210.254 119.862 210.189 119.909 210.134C124.44 205.058 129.027 202.59 133.582 202.767C138.436 202.973 141.77 206.156 142.967 207.511C150.362 186.329 167.53 188.782 167.708 188.819C167.761 188.825 167.812 188.841 167.858 188.866C167.903 188.891 167.943 188.924 167.974 188.964C168.005 189.003 168.027 189.048 168.038 189.095C168.05 189.143 168.05 189.192 168.04 189.239C168.032 189.288 168.014 189.334 167.985 189.376C167.957 189.418 167.92 189.454 167.876 189.482C167.832 189.51 167.783 189.53 167.73 189.54C167.678 189.55 167.623 189.551 167.571 189.541C167.401 189.541 150.58 187.139 143.501 208.41C143.479 208.477 143.437 208.536 143.38 208.582C143.322 208.627 143.252 208.657 143.177 208.668C143.101 208.679 143.024 208.67 142.954 208.643C142.884 208.615 142.824 208.571 142.781 208.514C142.781 208.462 139.181 203.732 133.542 203.503C129.27 203.304 124.893 205.714 120.54 210.591C120.502 210.635 120.454 210.67 120.4 210.694C120.345 210.718 120.285 210.731 120.224 210.731ZM198.735 313.925C169.083 307.294 173.857 286.871 173.905 286.664C173.929 286.567 173.994 286.481 174.087 286.427C174.179 286.374 174.292 286.355 174.399 286.377C174.506 286.398 174.6 286.458 174.659 286.542C174.718 286.626 174.738 286.729 174.715 286.826C174.512 287.637 170.079 306.719 198.946 313.211C199.05 313.236 199.139 313.298 199.192 313.383C199.246 313.468 199.261 313.569 199.233 313.664C199.205 313.758 199.137 313.839 199.044 313.888C198.95 313.937 198.84 313.951 198.735 313.925Z" fill="#570B7F"/>
<path d="M30.6067 154.064L0 165.234L29.2555 187.249L16.2216 191.051L54.8946 212.336L38.503 191.051L53.0661 187.411L30.6067 154.064ZM260.905 178.459L239.06 155.972L226.115 188.472L217.79 178.577L208.802 218.908L225.282 197.652L233.971 208.962L260.905 178.459ZM101.197 140.559L141.31 139.188L130.857 187.44H147.119L118.422 232.502V194.381L96.6662 196.4L101.197 140.559Z" fill="#F7E00B"/>
</svg>
